#N canvas 253 22 1049 734 10;
#X obj 217 326 dac~;
#X obj 777 117 s bela_setDigital;
#X obj 772 64 loadbang;
#X msg 770 90 in 11 message;
#X obj 437 41 r bela_digitalIn11;
#X obj 427 71 delay 3;
#X obj 435 105 f;
#X obj 430 134 tgl 15 0 empty empty empty 17 7 0 10 -262144 -1 -1 0
1;
#X obj 430 173 select 1 0;
#X obj 342 413 tabwrite~ \$0-sample;
#X obj 506 532 tabread4~ \$0-sample;
#N canvas 0 22 450 278 (subpatch) 0;
#X array \$0-sample 441000 float 2;
#X coords 0 1 441000 -1 200 140 1;
#X restore 802 220 graph;
#X obj 492 600 dac~;
#X obj 506 499 line~;
#X obj 642 337 bng 15 250 50 0 empty empty empty 17 7 0 10 -262144
-1 -1;
#X obj 536 250 timer;
#X obj 532 313 f;
#X obj 513 226 t b b;
#X obj 676 361 delay;
#X msg 506 471 0 \, \$1 \$2;
#X obj 532 383 list;
#X obj 532 337 t f f;
#X obj 532 360 * 44.1;
#X obj 813 559 sig~;
#X obj 812 534 tgl 15 0 empty empty empty 17 7 0 10 -262144 -1 -1 0
1;
#X obj 788 474 bng 15 250 50 0 empty empty empty 17 7 0 10 -262144
-1 -1;
#X obj 305 293 dac~ 27;
#X msg 395 380 stop;
#X text 753 446 Scope channel 3 can be used as a trigger;
#X obj 806 494 delay 1;
#X text 491 273 Timer returns the duration of the sample;
#X text 493 438 Read the table from 0 to the end of the sample;
#X text 228 432 Record the input to the table;
#X text 708 21 Initialize Bela digital: use digital 0 as an input;
#X text 127 310 Monitor input;
#X obj 254 255 adc~ 1;
#X text 20 26 Simple sampler: press and play;
#X msg 679 247 stop;
#X text 10 63 Connect a button with to bela digital 0 (P8_07). Hold
press the button to record. Release it to start looping. Use a pull-down
resistor to ground for the pin and wire it so that when the button
is not pressed P8_07 is low and it goes high when you press it. Connect
your sound source to the left audio input. You can adjust the input
gain by starting the patch with --pga-gain-left=xx where xx is the
input gain in dB;
#X text 378 24 Receive the button value as it changes;
#X text 465 107 debounce for 3ms;
#X text 295 275 Send input to scope channel 1;
#X text 619 381 When the playback is done \, [delay] re-triggers in
a loop.;
#X text 679 183 \$0-sample can store up to 10 seconds of audio at 44100kHz.
;
#X text 561 45 0: non-pressed;
#X text 561 61 1: pressed;
#X obj 534 582 dac~ 28;
#X obj 822 592 dac~ 29;
#X text 535 553 Send the playback also to scope channel 2;
#X connect 2 0 3 0;
#X connect 3 0 1 0;
#X connect 4 0 6 1;
#X connect 4 0 5 0;
#X connect 5 0 6 0;
#X connect 6 0 7 0;
#X connect 7 0 8 0;
#X connect 8 0 9 0;
#X connect 8 0 15 0;
#X connect 8 0 37 0;
#X connect 8 1 17 0;
#X connect 8 1 27 0;
#X connect 10 0 12 0;
#X connect 10 0 12 1;
#X connect 10 0 46 0;
#X connect 13 0 10 0;
#X connect 14 0 18 0;
#X connect 15 0 18 1;
#X connect 15 0 16 1;
#X connect 16 0 21 0;
#X connect 17 0 16 0;
#X connect 17 1 15 1;
#X connect 18 0 16 0;
#X connect 19 0 13 0;
#X connect 20 0 19 0;
#X connect 20 0 14 0;
#X connect 20 0 25 0;
#X connect 21 0 22 0;
#X connect 21 1 20 1;
#X connect 22 0 20 0;
#X connect 23 0 47 0;
#X connect 24 0 23 0;
#X connect 25 0 24 0;
#X connect 25 0 29 0;
#X connect 27 0 9 0;
#X connect 29 0 24 0;
#X connect 35 0 9 0;
#X connect 35 0 0 0;
#X connect 35 0 26 0;
#X connect 35 0 0 1;
#X connect 37 0 18 0;
