#N canvas 744 22 936 702 10;
#X text 35 361 ------------;
#X text 385 32 ............................;
#X text 385 42 . ____ ._____ _ .......___ .;
#X text 385 52 .| __ )| ____| |....../ _ |.;
#X text 385 72 .| |_) | |___| |___ / ___ |.;
#X text 385 82 .|____/|_____|_____/_/..._|.io;
#X text 385 92 ............................;
#X text 385 62 .| __ || __|.| |...../ _| |.;
#X text 36 499 DAC 27-28-29-30: Bela scope;
#X text 34 41 Analog output;
#X text 34 51 =============;
#X text 35 353 DAC routing:;
#X text 36 373 DAC channels 3-10 are used to address the analog outputs:
;
#X text 36 399 DAC 1: Audio Out L;
#X text 36 409 DAC 2: Audio Out R;
#X text 36 419 DAC 3: Analog Out 0;
#X text 36 429 DAC 4: Analog Out 1;
#X text 36 439 DAC 5: Analog Out 2;
#X text 36 449 DAC 6: Analog Out 3;
#X text 36 459 DAC 7: Analog Out 4;
#X text 36 469 DAC 8: Analog Out 5;
#X text 36 479 DAC 9: Analog Out 6;
#X text 36 489 DAC 10: Analog Out 7;
#X obj 47 179 phasor~ 0.5;
#X obj 47 230 dac~ 3 4 5 6 7 8 9 10, f 25;
#X text 245 181 << Ramp generator;
#X text 248 231 << Analog outputs;
#X text 34 74 This example uses a ramp generator to control;
#X text 34 88 the brightness of 8 LEDs.;
#X text 34 118 https://learn.bela.io/tutorials/pure-data/connecting/analog-output/
;
#X connect 23 0 24 0;
#X connect 23 0 24 1;
#X connect 23 0 24 2;
#X connect 23 0 24 3;
#X connect 23 0 24 4;
#X connect 23 0 24 5;
#X connect 23 0 24 6;
#X connect 23 0 24 7;
