#N canvas 228 17 940 658 10;
#X text 166 291 Throttle printing;
#X obj 243 190 r bela_trill;
#X text 360 191 This receives the reading from the Trill sensor.;
#X text 89 331 [<num_touches> <position> <size>];
#X obj 160 369 print ringReadings;
#X obj 35 48 loadbang;
#X text 189 49 First initialise the Trill sensor;
#X obj 537 19 r bela_trillCreated;
#X obj 537 48 print bela_trillCreated;
#X text 84 16 >>> See full documentation in examples/Trill/general-pd
<<<;
#X obj 243 248 route myring;
#X text 360 247 Which will be prepended with the <sensor_id>;
#X text 141 84 Message: [new <sensor_id> <bus> <device> <address=255>(
;
#X obj 41 528 cos;
#X obj 87 527 sin;
#X obj 10 449 unpack f f f;
#X obj 73 494 t f f;
#X obj 63 475 * -6.28319;
#X text 141 442 The reading is 0 to 1 clockwise \, starting at 0 degrees
;
#X text 140 428 compute x and y location for the first touch;
#X text 134 475 << this converts to radians (spinning counter-clockwise)
;
#X text 345 387 pX and sX are position and size of each touch;
#N canvas 731 155 450 300 throttle_time 0;
#X obj 49 60 t a b;
#X obj 50 35 inlet;
#X obj 73 193 spigot;
#X obj 106 166 tgl 15 0 empty empty empty 17 7 0 10 #fcfcfc #000000
#000000 0 1;
#X obj 73 235 outlet;
#X obj 270 20 loadbang;
#X obj 156 109 timer;
#X text 96 48 Let one input through every;
#X text 304 50 ms (at least);
#X obj 227 22 bng 15 250 50 0 empty empty empty 17 7 0 10 #fcfcfc #000000
#000000;
#X obj 154 141 >;
#X obj 204 142 select 1;
#X obj 270 50 200;
#X connect 0 0 2 0;
#X connect 0 1 6 1;
#X connect 1 0 0 0;
#X connect 2 0 4 0;
#X connect 3 0 2 1;
#X connect 5 0 12 0;
#X connect 6 0 10 0;
#X connect 9 0 12 0;
#X connect 10 0 3 0;
#X connect 10 0 11 0;
#X connect 11 0 6 0;
#X connect 12 0 10 1;
#X restore 58 292 pd throttle_time;
#X obj 41 556 pack f f;
#X obj 41 581 print x \, y;
#X text 278 369 printing: <num_touches> <p1> <s1> <...px sx...>;
#X text 118 582 Print the x and y coordinates of the first touch;
#X obj 59 346 t a a;
#X obj 35 156 s bela_setTrill @hv_param;
#X msg 35 128 new myring 1 RING;
#X connect 1 0 10 0;
#X connect 5 0 29 0;
#X connect 7 0 8 0;
#X connect 10 0 22 0;
#X connect 13 0 23 0;
#X connect 14 0 23 1;
#X connect 15 1 17 0;
#X connect 16 0 13 0;
#X connect 16 1 14 0;
#X connect 17 0 16 0;
#X connect 22 0 27 0;
#X connect 23 0 24 0;
#X connect 27 0 15 0;
#X connect 27 1 4 0;
#X connect 29 0 28 0;
