#N canvas 487 76 678 545 10;
#X obj 43 253 osc~ 440;
#X obj 43 306 dac~;
#X obj 43 274 *~;
#X text 36 419 ADC 3: Analog In 0;
#X text 34 41 Basic analog in (or 'theremin');
#X text 34 51 ===============================;
#X text 35 353 ADC routing:;
#X text 35 361 ------------;
#X text 36 429 ADC 4: Analog In 1;
#X text 36 439 ADC 5: Analog In 2;
#X text 36 449 ADC 6: Analog In 3;
#X text 36 459 ADC 7: Analog In 4;
#X text 36 469 ADC 8: Analog In 5;
#X text 36 479 ADC 9: Analog In 6;
#X text 36 489 ADC 10: Analog In 7;
#X text 36 399 ADC 1: Audio In L;
#X text 36 409 ADC 2: Audio In R;
#X obj 43 232 *~ 880;
#X obj 43 189 adc~ 3 4;
#X text 121 231 << Analog In 0 controls frequency;
#X text 121 274 << Analog In 1 controls amplitude;
#X text 121 188 << Use first two analog ins;
#X text 37 74 In this example the first two analog inputs are;
#X text 37 87 used to control the frequency and amplitude of an;
#X text 37 100 oscillator.;
#X text 36 373 ADC channels 3-10 are used to address the analog inputs:
;
#X text 385 32 ............................;
#X text 385 42 . ____ ._____ _ .......___ .;
#X text 385 52 .| __ )| ____| |....../ _ |.;
#X text 385 72 .| |_) | |___| |___ / ___ |.;
#X text 385 82 .|____/|_____|_____/_/..._|.io;
#X text 385 92 ............................;
#X text 385 62 .| __ || __|.| |...../ _| |.;
#X text 37 114 Note that analog inputs and outputs have a range between
;
#X text 37 128 0 and 1 \, unlike regular audio signals (which have
a;
#X text 37 142 range between -1 and 1).;
#X text 374 282 using [metro] and [snapshot~].;
#X text 374 270 Task 1: print the value of the analog input;
#X text 374 320 Bela scope.;
#X text 36 499 DAC 27-28-29-30: Bela scope;
#X text 373 199 Hardware: connect a potentiometer to analog in 0;
#X text 373 212 and a force-sensing resistor to analog in 1;
#X text 374 308 Task 3: connect the analog input to the;
#X text 374 295 Task 2: map the frequency range to [300 1200];
#X connect 0 0 2 0;
#X connect 2 0 1 0;
#X connect 2 0 1 1;
#X connect 17 0 0 0;
#X connect 18 0 17 0;
#X connect 18 1 2 1;
