#N canvas 19 0 1242 774 10;
#X obj 706 25 TablePartial;
#X obj 670 733 *~;
#X obj 824 733 *~;
#X obj 471 509 sel 0 1;
#X msg 469 539 1;
#X obj 733 140 adc~ 9;
#X text 647 143 Table Morph;
#X obj 891 103 adc~ 10;
#X text 777 683 VCA;
#X msg 506 542 5;
#X text 465 491 Saturation select;
#X obj 706 54 bela_enableLeds;
#X obj 829 489 *~ 7;
#X obj 678 493 mtof~;
#X obj 675 459 *~ 127;
#X text 3 21 ===============================;
#X text 434 2 ............................;
#X text 434 12 . ____ ._____ _ .......___ .;
#X text 434 22 .| __ )| ____| |....../ _ |.;
#X text 434 42 .| |_) | |___| |___ / ___ |.;
#X text 434 62 ............................;
#X text 434 32 .| __ || __|.| |...../ _| |.;
#X text 27 203 This patch is designed to run on Salt \,;
#X text 27 213 a Eurorack module based on Bela.;
#X text 28 249 I/O:;
#X text 28 425 MIDI CC:;
#X text 434 52 .|____/|_____|_____/_/..._|.io;
#X text 28 390 Audio out 1: oscillator 1 out;
#X text 28 400 Audio out 2: oscillator 2 out;
#X text 28 445 CC 2-6 \, 8 \, 9 \, 12 \, 13 : oscillator 2 partials
;
#X text 28 435 CC 14-22 - oscillator 1 partials;
#X obj 1103 492 s porto;
#X obj 1103 439 loadbang;
#X text 1073 414 Set a fixed cutoff;
#X text 1073 424 for the portamento;
#X obj 645 659 filter;
#X obj 820 663 filter;
#X obj 525 568 f;
#X text 28 269 Audio in 2: filter 2 aux input;
#X text 28 259 Audio in 1: filter 1 aux input;
#X obj 531 176 adc~ 1 2;
#X text 594 187 Audio inputs;
#X text 277 279 (status mirrored by LED2);
#X text 257 299 (status mirrored by LED4);
#X obj 699 676 adc~ 7;
#X obj 888 662 adc~ 8;
#X obj 823 760 dac~ 2;
#X obj 671 758 dac~ 1;
#X text 28 349 CV in 5: VCA 1;
#X text 28 359 CV in 6: VCA 2;
#X text 28 329 CV in 3: VCF cutoff;
#X text 28 339 CV in 4: VCF resonance;
#X text 28 309 CV in 1: VCO 1 pitch;
#X text 28 319 CV in 2: VCO 2 pitch;
#X obj 675 427 adc~ 5;
#X obj 822 440 adc~ 6;
#X text 654 406 VCF cutoff;
#X text 806 422 VCF resonance;
#X obj 667 258 adc~ 3;
#X text 662 238 VCO 1 pitch;
#X text 942 304 VCO 2 pitch;
#X obj 946 324 adc~ 4;
#X obj 567 352 oscillator;
#X obj 992 215 toggleWithLed 4 1 2;
#X obj 643 309 toggleWithLed 3 1 2;
#X text 3 12 DuoWave - by Cherif Hashizume - www.cherifhashizume.org
;
#X text 28 299 Trig in 4: toggle VCO 2 enabled;
#X text 257 289 (status mirrored by LED3);
#X text 28 289 Trig in 3: toggle VCO 1 enabled;
#X text 7 141 Each oscillator is mixed with an external audio input
;
#X text 7 151 before it is processed through a low-pass \, resonating
\,;
#X text 7 163 saturating filter.;
#X text 7 174 The output of each filter goes through a VCA.;
#X text 28 379 CV in 8: partial spread;
#X text 7 45 DuoWave is a dual inharmonic additive oscillator \, with
;
#X text 7 55 filter and VCA.;
#X text 7 77 When the partial spread is at a minimum \, the partials
are;
#X text 7 67 Each oscillator contains a mixture of 9 partials.;
#X text 7 87 pure harmonics of the fundamental. As it increasees \,
the;
#X text 7 97 ratios between the partials increases and the sound becomes
;
#X text 948 100 Partial spread;
#X obj 897 176 spreadThePartials;
#X obj 923 386 oscillator;
#X obj 698 707 lop~ 500;
#X obj 888 691 lop~ 500;
#X text 7 109 inharmonic. Two different sets of partial amplitudes
are;
#X text 8 120 available. You can morph between them \, or use MIDI
CC to;
#X text 7 131 adjust the amplitudes.;
#X text 28 369 CV in 7: morph between partial tables;
#X msg 1103 466 100;
#X text 28 279 Trig in 2: toggle filter saturation;
#X obj 889 132 +~ 1;
#X obj 404 466 toggleWithLed 2 0 2;
#X connect 1 0 47 0;
#X connect 2 0 46 0;
#X connect 3 0 4 0;
#X connect 3 1 9 0;
#X connect 4 0 37 0;
#X connect 5 0 62 0;
#X connect 5 0 82 0;
#X connect 7 0 91 0;
#X connect 9 0 37 0;
#X connect 12 0 35 2;
#X connect 12 0 36 2;
#X connect 13 0 35 1;
#X connect 13 0 36 1;
#X connect 14 0 13 0;
#X connect 32 0 89 0;
#X connect 35 0 1 0;
#X connect 36 0 2 0;
#X connect 37 0 35 3;
#X connect 37 0 36 3;
#X connect 40 0 35 1;
#X connect 40 1 36 0;
#X connect 44 0 83 0;
#X connect 45 0 84 0;
#X connect 54 0 14 0;
#X connect 55 0 12 0;
#X connect 58 0 62 1;
#X connect 61 0 82 1;
#X connect 62 0 35 0;
#X connect 63 0 82 3;
#X connect 64 0 62 3;
#X connect 81 0 62 2;
#X connect 81 0 82 2;
#X connect 82 0 36 0;
#X connect 83 0 1 1;
#X connect 84 0 2 1;
#X connect 89 0 31 0;
#X connect 91 0 81 0;
#X connect 92 0 3 0;
