#N canvas 457 49 552 440 10;
#X obj 54 34 inlet;
#X obj 58 318 outlet;
#X obj 157 113 \$1;
#X obj 69 149 spigot;
#X obj 109 109 tgl 15 0 empty empty empty 17 7 0 10 -262144 -1 -1 1
1;
#X obj 157 88 loadbang;
#X obj 154 189 \$1;
#X msg 78 85 0;
#X msg 122 75 1;
#X text 143 36 Debouncer for float inputs;
#X text 198 115 5ms default time \, or first creation argument;
#X obj 59 56 t f f f;
#X obj 68 278 f;
#X obj 158 142 != 0;
#X obj 157 165 select 1;
#X obj 92 249 delay 8;
#X connect 0 0 11 0;
#X connect 2 0 13 0;
#X connect 3 0 15 0;
#X connect 4 0 3 1;
#X connect 5 0 2 0;
#X connect 5 0 8 0;
#X connect 6 0 15 1;
#X connect 7 0 4 0;
#X connect 8 0 4 0;
#X connect 11 0 7 0;
#X connect 11 1 3 0;
#X connect 11 2 12 1;
#X connect 12 0 1 0;
#X connect 13 0 14 0;
#X connect 14 0 6 0;
#X connect 15 0 8 0;
#X connect 15 0 12 0;
