#N canvas 461 25 799 746 10;
#X obj 225 53 inlet~;
#X text 282 53 cutoff;
#X obj 358 54 inlet~;
#X text 414 54 resonance;
#X obj 128 409 outlet~;
#X text 199 408 audio out;
#X obj 80 55 inlet~;
#X text 131 56 audio in;
#X obj 151 284 vcf~;
#X obj 288 172 snapshot~;
#X obj 293 139 bang~;
#X obj 287 203 * 20;
#X text 372 164 Convert to message-rate;
#X obj 277 234 + 1;
#X obj 172 320 vcf~;
#X connect 0 0 8 1;
#X connect 0 0 14 1;
#X connect 2 0 9 0;
#X connect 6 0 8 0;
#X connect 8 1 14 0;
#X connect 9 0 11 0;
#X connect 10 0 9 0;
#X connect 11 0 13 0;
#X connect 13 0 8 2;
#X connect 13 0 14 2;
#X connect 14 1 4 0;
