#N canvas 461 25 799 746 10;
#X obj 225 53 inlet~;
#X text 282 53 cutoff;
#X obj 358 54 inlet~;
#X text 414 54 resonance;
#X obj 521 48 inlet;
#X obj 152 352 outlet~;
#X text 223 351 audio out;
#X obj 80 55 inlet~;
#X text 131 56 audio in;
#X obj 159 130 loadbang;
#X msg 160 168 oversample 2;
#X obj 151 283 bob~;
#X text 568 47 saturation level;
#X msg 296 181 saturation \$1;
#X connect 0 0 11 1;
#X connect 2 0 11 2;
#X connect 4 0 13 0;
#X connect 7 0 11 0;
#X connect 9 0 10 0;
#X connect 10 0 11 0;
#X connect 11 0 5 0;
#X connect 13 0 11 0;
