#N canvas 0 0 1280 774 10;
#X obj 117 414 sig~ 1;
#X obj 123 494 sqrt~;
#X obj 124 461 -~;
#X obj 212 491 sqrt~;
#X obj 26 520 *~;
#X obj 277 526 *~;
#X obj 29 650 outlet~;
#X text 536 56 table morph;
#X obj 345 38 inlet~;
#X text 397 37 pitch in;
#X obj 333 126 mtof~;
#X obj 204 270 lop~ 100;
#X obj 314 303 lop~ 100;
#X obj 255 154 r porto;
#X obj 482 52 inlet~;
#X obj 584 200 inlet;
#X text 641 192 enable;
#X obj 564 309 switch~;
#X obj 600 251 loadbang;
#X msg 600 276 1;
#X text 574 153 partial spread;
#X obj 518 150 inlet;
#X obj -1 462 Oscbank 1;
#X obj 343 503 Oscbank 2;
#X obj 333 93 *~ 120;
#X text 384 87 Assuming a 10V pk-to-pk input;
#X text 384 97 this becomes a 1V/oct scaling;
#X connect 0 0 2 0;
#X connect 1 0 4 1;
#X connect 2 0 1 0;
#X connect 3 0 5 1;
#X connect 4 0 6 0;
#X connect 5 0 6 0;
#X connect 8 0 24 0;
#X connect 10 0 11 0;
#X connect 10 0 12 0;
#X connect 11 0 22 0;
#X connect 12 0 23 0;
#X connect 13 0 11 1;
#X connect 13 0 12 1;
#X connect 14 0 2 1;
#X connect 14 0 3 0;
#X connect 15 0 17 0;
#X connect 18 0 19 0;
#X connect 19 0 17 0;
#X connect 21 0 22 1;
#X connect 21 0 23 1;
#X connect 22 0 4 0;
#X connect 23 0 5 0;
#X connect 24 0 10 0;
