#N canvas 0 22 1296 320 10;
#X obj 70 224 dac~ 17 18 21 13 14 11 12 15 16 19;
#X obj 120 108 phasor~ 2000;
#X obj 120 139 expr~ $v1 < $v2;
#X text 232 139 <<< PWM signal with variable duty cycle;
#X obj 206 76 abs~;
#X obj 206 97 lop~ 20;
#X obj 206 51 inlet~;
#X obj 501 81 s bela_setDigital;
#X obj 501 25 loadbang;
#X obj 501 162 s bela_setDigital;
#X obj 501 115 loadbang;
#X msg 501 137 in 25 \, in 26;
#X obj 501 242 s bela_setDigital;
#X obj 501 195 loadbang;
#X msg 501 217 in 22 \, in 20 \, in 24 \, in 23;
#X text 630 136 Initialise the buttons;
#X text 700 216 Initialise the digital inputs;
#X msg 501 47 out 17 ~ \, out 18 ~ \, out 21 ~ \, out 13 ~ \, out 14
~ \, out 11 ~ \, out 12 ~ \, out 15 ~ \, out 16 ~ \, out 19 ~, f 79
;
#X text 998 47 Initialise the LED pins at signal rate;
#X connect 1 0 2 0;
#X connect 2 0 0 0;
#X connect 2 0 0 1;
#X connect 2 0 0 2;
#X connect 2 0 0 3;
#X connect 2 0 0 4;
#X connect 2 0 0 5;
#X connect 2 0 0 6;
#X connect 2 0 0 7;
#X connect 2 0 0 8;
#X connect 2 0 0 9;
#X connect 4 0 5 0;
#X connect 5 0 2 1;
#X connect 6 0 4 0;
#X connect 8 0 17 0;
#X connect 10 0 11 0;
#X connect 11 0 9 0;
#X connect 13 0 14 0;
#X connect 14 0 12 0;
#X connect 17 0 7 0;
