#N canvas 207 23 1127 782 10;
#X obj 40 710 dac~ 1 2;
#X text 33 22 Karplus Strong;
#X text 33 32 ==============;
#X obj 40 663 vd~ \$0-wg1;
#X obj 120 685 lop~ 1000;
#X obj 120 729 s~ \$0-fb1;
#X obj 40 336 hip~ 100;
#X obj 105 395 r~ \$0-fb1;
#X obj 40 418 delwrite~ \$0-wg1 100;
#X obj 40 588 *~;
#X obj 40 610 *~ 10;
#X text 135 336 <<< centre (i.e. DC block) signal with high-pass filter
;
#X text 126 542 <<< use potentiometer or fader on second analog in
;
#X text 37 240 EXCITATION INPUT:;
#X text 37 468 DELAY PERIOD:;
#X text 214 705 <<< and decay here [0-0.9999];
#X text 155 357 <<< thresholding to remove any consistent noise in
the excitation signal;
#X obj 40 284 adc~ 1;
#X obj 40 516 sig~ 1;
#X obj 40 565 -~;
#X obj 40 632 +~ 2;
#X text 214 685 <<< set damping here [100-20000];
#X text 126 623 <<< period range between 2-12ms;
#X text 151 555 to set period (or 'length of string');
#X text 36 55 This is an example of simple 'Karplus Strong' synthesis
;
#X text 36 69 which produces a sound resembling a plucked string by
;
#X text 36 84 feeding the filtered output of a delay line back into
;
#X text 36 98 itself. Here we use the left audio input as an excitation
;
#X text 36 112 mechanism for the string. Try connecting a piezo to
bela's;
#X text 36 126 audio input and tapping against it. The first analog
input;
#X text 36 140 sets the length of the string.;
#X text 485 15 ............................;
#X text 485 25 . ____ ._____ _ .......___ .;
#X text 485 35 .| __ )| ____| |....../ _ |.;
#X text 485 55 .| |_) | |___| |___ / ___ |.;
#X text 485 65 .|____/|_____|_____/_/..._|.io;
#X text 485 75 ............................;
#X text 485 45 .| __ || __|.| |...../ _| |.;
#X text 116 284 <<< use piezo or microphone on left audio channel;
#X text 140 298 (you can even try hooking up an accelerometer...);
#X text 37 250 ----------------;
#X text 37 479 ------------;
#X obj 120 707 *~ 0.9999;
#X obj 479 618 snapshot~;
#X obj 528 590 metro 10;
#X obj 528 568 loadbang;
#X obj 479 660 + 100;
#X obj 479 639 * 5000;
#X obj 480 546 adc~ 3;
#X obj 193 481 adc~ 4;
#X text 37 169 https://learn.bela.io/tutorials/pure-data/audio/virtual-string-synthesis/
;
#X connect 3 0 4 0;
#X connect 3 0 0 0;
#X connect 3 0 0 1;
#X connect 4 0 42 0;
#X connect 6 0 8 0;
#X connect 7 0 8 0;
#X connect 9 0 10 0;
#X connect 10 0 20 0;
#X connect 17 0 6 0;
#X connect 18 0 19 0;
#X connect 19 0 9 1;
#X connect 19 0 9 0;
#X connect 20 0 3 0;
#X connect 42 0 5 0;
#X connect 43 0 47 0;
#X connect 44 0 43 0;
#X connect 45 0 44 0;
#X connect 46 0 4 1;
#X connect 47 0 46 0;
#X connect 48 0 43 0;
#X connect 49 0 19 1;
