#N canvas 26 22 1042 835 10;
#X obj 71 387 vline~;
#X obj 70 159 loadbang;
#X obj 264 391 vline~;
#X obj 480 391 vline~;
#X obj 70 187 metro 6000;
#X text 144 187 metro generates a bang message every 6 seconds;
#X obj 369 540 dac~ 3 4 5;
#X text 599 220 Currently the LED is only showing one colour at a time.
;
#X text 599 240 Try and make the LED cycle through every combination
of;
#X text 599 260 colours by changing the timings of the ramps generated
by;
#X text 599 280 [vline~].;
#X text 693 360 Arguments of vline~ are as follows:;
#X text 693 380 - the value to reach;
#X text 693 400 - the time to take to reach it;
#X text 693 420 - the delay before doing it;
#X msg 71 357 0 1000 \, 1 1000 1000;
#X msg 264 358 0 1000 2000 \, 1 1000 3000;
#X msg 480 360 0 1000 4000 \, 1 1000 5000;
#X text 696 321 HINTS;
#X text 693 480 When it receives 1 from dac~ it is off.;
#X text 693 460 When the LED receives 0 from dac~ it is on.;
#X text 693 540 Extra step: control the speed of the cycling;
#X text 693 560 with a pot.;
#X text 85 870;
#X text 525 35 ............................;
#X text 525 45 . ____ ._____ _ .......___ .;
#X text 525 55 .| __ )| ____| |....../ _ |.;
#X text 525 75 .| |_) | |___| |___ / ___ |.;
#X text 525 85 .|____/|_____|_____/_/..._|.io;
#X text 525 95 ............................;
#X text 525 65 .| __ || __|.| |...../ _| |.;
#X text 73 42 RGB LED Cycling;
#X text 73 52 ===============;
#X connect 0 0 6 0;
#X connect 1 0 4 0;
#X connect 2 0 6 1;
#X connect 3 0 6 2;
#X connect 4 0 17 0;
#X connect 4 0 15 0;
#X connect 4 0 16 0;
#X connect 15 0 0 0;
#X connect 16 0 2 0;
#X connect 17 0 3 0;
