#N canvas 380 0 900 778 10;
#N canvas 0 22 450 278 (subpatch) 0;
#X array bela_multiplexer 1 float 2;
#X coords 0 1 1 -1 200 140 1 0 0;
#X restore 34 215 graph;
#X obj 333 129 bng 15 250 50 0 empty empty empty 17 7 0 10 #fcfcfc
#000000 #000000;
#X obj 297 214 t b b b b b b;
#X obj 308 104 loadbang;
#X obj 264 149 tgl 15 0 empty empty empty 17 7 0 10 #fcfcfc #000000
#000000 0 1;
#X obj 360 167 bng 15 250 50 0 empty empty empty 17 7 0 10 #fcfcfc
#000000 #000000;
#X obj 545 124 r bela_multiplexerChannels;
#X obj 527 177 * 8;
#X obj 560 214 print arraySize;
#X obj 274 453 tabread bela_multiplexer;
#X obj 274 421 + 0;
#X obj 304 473 tabread bela_multiplexer;
#X obj 334 493 tabread bela_multiplexer;
#X obj 364 513 tabread bela_multiplexer;
#X obj 394 533 tabread bela_multiplexer;
#X obj 424 553 tabread bela_multiplexer;
#X obj 454 573 tabread bela_multiplexer;
#X obj 484 593 tabread bela_multiplexer;
#X obj 304 421 + 1;
#X obj 334 421 + 2;
#X obj 364 421 + 3;
#X obj 394 421 + 4;
#X obj 424 421 + 5;
#X obj 454 421 + 6;
#X obj 484 421 + 7;
#X obj 261 266 f;
#X obj 314 739 print -n;
#X obj 257 295 + 8;
#X obj 313 619 pack f f f f f f f f f f;
#X obj 286 375 t f f f;
#X obj 245 421 / 8;
#X obj 281 167 metro 600;
#X msg 326 714 _;
#X msg 315 670 mux channel [x. \$1 ] : \$2 \$3 \$4 \$5 \$6 \$7 \$8
\$9;
#X obj 338 323 select 1;
#X obj 608 411 osc~ 100;
#X obj 607 456 dac~;
#X obj 356 354 bang;
#X obj 84 577 pack f f f f f f f f f;
#X msg 266 241 -8;
#X obj 439 247 - 8;
#X floatatom 490 115 5 0 0 0 - - - 0;
#X obj 338 294 == 56;
#X obj 303 262 delay 5;
#X text 590 7 ............................;
#X text 590 17 . ____ ._____ _ .......___ .;
#X text 590 27 .| __ )| ____| |....../ _ |.;
#X text 590 47 .| |_) | |___| |___ / ___ |.;
#X text 590 57 .|____/|_____|_____/_/..._|.io;
#X text 590 67 ............................;
#X text 590 37 .| __ || __|.| |...../ _| |.;
#X text 20 28 Using the multiplexer capelet with PD;
#X text 20 38 =====================================;
#X connect 1 0 31 0;
#X connect 2 0 39 0;
#X connect 2 5 32 0;
#X connect 3 0 31 0;
#X connect 4 0 31 0;
#X connect 5 0 2 0;
#X connect 6 0 7 0;
#X connect 7 0 8 0;
#X connect 7 0 40 0;
#X connect 9 0 28 1;
#X connect 10 0 9 0;
#X connect 10 0 38 1;
#X connect 11 0 28 2;
#X connect 12 0 28 3;
#X connect 13 0 28 4;
#X connect 14 0 28 5;
#X connect 15 0 28 6;
#X connect 16 0 28 7;
#X connect 17 0 28 8;
#X connect 18 0 11 0;
#X connect 18 0 38 2;
#X connect 19 0 12 0;
#X connect 19 0 38 3;
#X connect 20 0 13 0;
#X connect 20 0 38 4;
#X connect 21 0 14 0;
#X connect 21 0 38 5;
#X connect 22 0 15 0;
#X connect 22 0 38 6;
#X connect 23 0 16 0;
#X connect 23 0 38 7;
#X connect 24 0 17 0;
#X connect 24 0 38 8;
#X connect 25 0 27 0;
#X connect 27 0 25 1;
#X connect 27 0 29 0;
#X connect 27 0 42 0;
#X connect 28 0 33 0;
#X connect 29 0 30 0;
#X connect 29 1 24 0;
#X connect 29 1 23 0;
#X connect 29 1 22 0;
#X connect 29 1 21 0;
#X connect 29 1 20 0;
#X connect 29 1 19 0;
#X connect 29 1 18 0;
#X connect 29 1 10 0;
#X connect 30 0 38 0;
#X connect 30 0 28 0;
#X connect 31 0 2 0;
#X connect 32 0 26 0;
#X connect 33 0 26 0;
#X connect 34 1 37 0;
#X connect 35 0 36 0;
#X connect 35 0 36 1;
#X connect 37 0 43 0;
#X connect 39 0 25 0;
#X connect 40 0 42 1;
#X connect 41 0 7 0;
#X connect 42 0 34 0;
#X connect 43 0 25 0;
