#N canvas 204 382 1168 1183 10;
#X obj 409 198 pack 0 0;
#X obj 409 247 pack 0 0 0;
#X obj 407 1106 dac~ 1 2;
#X obj 409 299 s voice-note-1;
#X obj 499 299 s voice-note-2;
#X obj 589 299 s voice-note-3;
#X obj 679 299 s voice-note-4;
#X obj 408 642 catch~ output;
#X obj 408 396 voice 1;
#X obj 922 249 loadbang;
#X obj 922 271 metro 10;
#X obj 922 293 s metro;
#X obj 646 923 * 1000;
#X obj 646 968 s attack;
#X obj 738 923 * 8000;
#X obj 738 945 + 200;
#X obj 646 945 + 5;
#X obj 828 945 *~ 25;
#X obj 850 685 clip~ 0 0.999;
#X obj 646 730 *~;
#X obj 409 269 route 1 2 3 4, f 36;
#X obj 705 629 +~ 100;
#X obj 705 605 *~ 1900;
#X obj 409 225 poly 4 1;
#X obj 474 889 *~ 0.5;
#X obj 408 890 *~ 0.5;
#X obj 407 917 hip~ 5;
#X obj 424 768 hip~ 5;
#X obj 424 790 hv_tanh;
#X obj 646 757 hip~ 5;
#X obj 646 779 hv_tanh;
#N canvas 0 22 178 130 snapshot 0;
#X obj 24 20 inlet~;
#X obj 24 62 snapshot~;
#X obj 24 84 outlet;
#X obj 86 29 r metro;
#X connect 0 0 1 0;
#X connect 1 0 2 0;
#X connect 3 0 1 0;
#X restore 705 658 pd snapshot;
#X obj 159 243 s c1;
#X obj 159 303 s c2;
#X obj 159 363 s c3;
#X obj 159 423 s c4;
#X obj 446 983 r c1;
#X obj 446 1005 / 127;
#X obj 646 898 / 127;
#X obj 646 876 r c2;
#X obj 738 898 / 127;
#X obj 738 876 r c3;
#X obj 828 898 / 127;
#X obj 828 876 r c4;
#X obj 828 923 sig~;
#X obj 159 483 s c5;
#X obj 159 543 s c6;
#X obj 705 527 / 127;
#X obj 705 549 sig~;
#X obj 705 504 r c5;
#X obj 850 639 / 127;
#X obj 850 661 sig~;
#X obj 850 617 r c6;
#X obj 408 719 *~ 0.5;
#X obj 646 686 vd~ ddd;
#X obj 407 944 hv_tanh;
#X obj 408 690 lop~ 1000;
#X obj 705 578 lop~ 10;
#X obj 159 603 s c7;
#X obj 159 663 s c8;
#X obj 919 923 * 8000;
#X obj 919 945 + 200;
#X obj 919 898 / 127;
#X obj 919 876 r c7;
#X obj 407 1050 lop~ 8000;
#X obj 1019 876 r c8;
#X obj 1019 899 / 127;
#X obj 1019 968 s octVol;
#X obj 424 811 delwrite~ \$0-del 2000;
#X obj 705 686 delread~ \$0-del 500;
#X obj 407 1028 *~ 0.75;
#X obj 78 213 ctlin 1 0;
#X obj 78 273 ctlin 2 0;
#X obj 78 333 ctlin 3 0;
#X obj 78 393 ctlin 4 0;
#X obj 78 453 ctlin 5 0;
#X obj 78 513 ctlin 6 0;
#X obj 78 573 ctlin 7 0;
#X obj 78 633 ctlin 8 0;
#X obj 409 169 notein 0;
#X obj 828 968 s~ detune;
#X obj 478 396 voice 2;
#X obj 549 396 voice 3;
#X obj 618 396 voice 4;
#X text 71 55 Polyphonic subtractive synth controllable via MIDI;
#X text 71 65 ==================================================;
#X text 400 135 Voice management;
#X text 400 145 ----------------;
#X text 400 365 Voices;
#X text 400 375 ------;
#X text 400 495 Post-effects and output;
#X text 400 505 -----------------------;
#X text 80 146 Midi CC routing;
#X text 80 156 ---------------;
#X text 205 242 gain;
#X text 205 302 attack/release;
#X obj 738 968 s cutoff;
#X obj 919 968 s cutoffP;
#X obj 478 1028 r cutoffP;
#X obj 459 667 r cutoff;
#X text 205 362 cutoff (pre-FX);
#X text 205 422 osc2 detune;
#X text 205 482 delay length;
#X text 205 542 delay feedback;
#X text 205 602 cutoff (post-FX);
#X text 205 662 sub-oscillator gain;
#X text 918 47 ............................;
#X text 918 57 . ____ ._____ _ .......___ .;
#X text 918 67 .| __ )| ____| |....../ _ |.;
#X text 918 87 .| |_) | |___| |___ / ___ |.;
#X text 918 97 .|____/|_____|_____/_/..._|.io;
#X text 918 107 ............................;
#X text 918 77 .| __ || __|.| |...../ _| |.;
#X text 1011 1094 @rjack0101;
#X connect 0 0 23 0;
#X connect 1 0 20 0;
#X connect 7 0 56 0;
#X connect 9 0 10 0;
#X connect 10 0 11 0;
#X connect 12 0 16 0;
#X connect 14 0 15 0;
#X connect 15 0 96 0;
#X connect 16 0 13 0;
#X connect 17 0 80 0;
#X connect 18 0 19 1;
#X connect 19 0 24 0;
#X connect 19 0 29 0;
#X connect 20 0 3 0;
#X connect 20 1 4 0;
#X connect 20 2 5 0;
#X connect 20 3 6 0;
#X connect 21 0 31 0;
#X connect 21 0 54 0;
#X connect 22 0 21 0;
#X connect 23 0 1 0;
#X connect 23 1 1 1;
#X connect 23 2 1 2;
#X connect 24 0 26 0;
#X connect 25 0 26 0;
#X connect 26 0 55 0;
#X connect 27 0 28 0;
#X connect 28 0 68 0;
#X connect 29 0 30 0;
#X connect 30 0 68 0;
#X connect 31 0 69 0;
#X connect 36 0 37 0;
#X connect 37 0 70 1;
#X connect 38 0 12 0;
#X connect 39 0 38 0;
#X connect 40 0 14 0;
#X connect 41 0 40 0;
#X connect 42 0 44 0;
#X connect 43 0 42 0;
#X connect 44 0 17 0;
#X connect 47 0 48 0;
#X connect 48 0 57 0;
#X connect 49 0 47 0;
#X connect 50 0 51 0;
#X connect 51 0 18 0;
#X connect 52 0 50 0;
#X connect 53 0 25 0;
#X connect 53 0 27 0;
#X connect 54 0 19 0;
#X connect 55 0 70 0;
#X connect 56 0 53 0;
#X connect 57 0 22 0;
#X connect 60 0 61 0;
#X connect 61 0 97 0;
#X connect 62 0 60 0;
#X connect 63 0 62 0;
#X connect 64 0 2 0;
#X connect 64 0 2 1;
#X connect 65 0 66 0;
#X connect 66 0 67 0;
#X connect 70 0 64 0;
#X connect 71 0 32 0;
#X connect 72 0 33 0;
#X connect 73 0 34 0;
#X connect 74 0 35 0;
#X connect 75 0 45 0;
#X connect 76 0 46 0;
#X connect 77 0 58 0;
#X connect 78 0 59 0;
#X connect 79 0 0 0;
#X connect 79 1 0 1;
#X connect 98 0 64 1;
#X connect 99 0 56 1;
