#N canvas 145 23 439 703 10;
#X obj 137 43 r voice-note-\$1;
#X obj 137 65 unpack 0 0;
#X obj 137 131 mtof;
#X obj 149 594 *~;
#X obj 300 515 / 127;
#X obj 149 648 throw~ output;
#X obj 300 567 line~;
#X obj 300 541 pack 0 0;
#X obj 164 284 phasor~;
#X obj 46 284 phasor~;
#X obj 149 352 +~;
#X obj 345 515 r attack;
#X obj 46 218 sig~;
#X obj 46 263 +~;
#X obj 164 306 *~ 2;
#X obj 164 328 -~ 1;
#X obj 46 306 *~ 2;
#X obj 46 328 -~ 1;
#X obj 196 476 r octVol;
#X obj 164 475 osc~;
#X obj 164 497 *~;
#X obj 149 519 +~;
#X obj 149 623 *~ 0.5;
#X obj 164 452 mtof;
#X obj 164 429 - 12;
#X obj 61 241 r~ detune;
#X obj 137 153 t f f;
#X obj 137 87 t f f;
#X obj 164 407 r \$0-midinote;
#X obj 164 109 s \$0-midinote;
#X connect 0 0 1 0;
#X connect 1 0 27 0;
#X connect 1 1 4 0;
#X connect 2 0 26 0;
#X connect 3 0 22 0;
#X connect 4 0 7 0;
#X connect 6 0 3 1;
#X connect 7 0 6 0;
#X connect 8 0 14 0;
#X connect 9 0 16 0;
#X connect 10 0 21 0;
#X connect 11 0 7 1;
#X connect 12 0 13 0;
#X connect 13 0 9 0;
#X connect 14 0 15 0;
#X connect 15 0 10 1;
#X connect 16 0 17 0;
#X connect 17 0 10 0;
#X connect 18 0 20 1;
#X connect 19 0 20 0;
#X connect 20 0 21 1;
#X connect 21 0 3 0;
#X connect 22 0 5 0;
#X connect 23 0 19 0;
#X connect 24 0 23 0;
#X connect 25 0 13 1;
#X connect 26 0 12 0;
#X connect 26 1 8 0;
#X connect 27 0 2 0;
#X connect 27 1 29 0;
#X connect 28 0 24 0;
