#N canvas 332 22 1108 856 10;
#X text 35 32 Rubber Duckie;
#X text 35 42 =============;
#X text 251 15 ............................;
#X text 251 25 . ____ ._____ _ .......___ .;
#X text 251 35 .| __ )| ____| |....../ _ |.;
#X text 251 55 .| |_) | |___| |___ / ___ |.;
#X text 251 65 .|____/|_____|_____/_/..._|.io;
#X text 251 75 ............................;
#X text 251 45 .| __ || __|.| |...../ _| |.;
#X obj 39 211 sigdelta;
#X text 113 246 <<< open this abstraction to see how the model works
;
#X text 113 211 <<< calculate differential on input signal;
#X text 474 98 .........................................................
;
#X text 474 108 .........................==~~~~..........................
;
#X text 474 118 .......................=?+?====~~~.......................
;
#X text 474 128 ......................++++==========.....................
;
#X text 474 138 .....................??+++++++++=====....................
;
#X text 474 148 ....................N???+++...++++====...................
;
#X text 474 158 ...................N??????.O8O++++====~..................
;
#X text 474 168 ..................??I+==??.DD++++++====..................
;
#X text 474 188 .............7\$777$III????=++++++++====..................
;
#X text 474 198 .............I$ZZZZ$$I???+?=+????+++===..................
;
#X text 474 208 ................ZOZZZZ\$7III???+????++++=..=====..........
;
#X text 474 228 ..............\$77II77$$$\$7\$77?II????+===========.........
;
#X text 474 238 ................7$$$$$$$$$$IIII????++============........
;
#X text 474 248 ..............=+?I7\$7777777IIII???+++============:.......
;
#X text 474 268 ...........:????IIIIIIII??????++++++==============.......
;
#X text 474 288 ..........????????????++++++++====================~......
;
#X text 474 278 ..........~???????????????+++++++++=+============~:......
;
#X text 474 298 .........+???????????+++++++++===================~~......
;
#X text 474 308 .........+???????????+++++++++++++++++++==========.......
;
#X text 474 318 .........+????????????????????????+????++++=======.......
;
#X text 474 328 .........:??????????????????????????????++++=====........
;
#X text 474 338 ..........???????????????????????????II???+++===:........
;
#X text 474 348 ...........?II?????????????IIIIII?I???I???+++++=.........
;
#X text 474 368 ..............+777IIIIIIIIIIIIIIIIIIIIIIIII$I+:..........
;
#X text 474 358 ............7IIIIII??????IIIIIIIIIIIIIIII????I=:.........
;
#X text 474 378 ...............:=?$Z777IIIIIIIIIIIII77ZI+~:..............
;
#X text 474 388 ........................::~~~~~~:........................
;
#X text 474 398 .........................................................
;
#X text 474 178 .............7$$|\$7I?????=++++++++++===..................
;
#X text 474 258 .............+??I77$||\\\$7777III???++++++============......
;
#X text 474 218 ..............7$$$$ZZZOZ$|\$7777?????++++++=+===..........
;
#X obj 39 107 adc~ 3;
#X text 113 107 <<< use FSR on analog input 0;
#X obj 39 309 dac~ 1 2;
#X obj 39 246 duckie;
#X obj 39 274 *~ 0.1;
#X obj 153 156 lop~ 10;
#X obj 212 156 lop~ 20;
#X obj 153 188 dac~ 27 28 29 30;
#X connect 9 0 46 0;
#X connect 43 0 9 0;
#X connect 43 0 48 0;
#X connect 43 0 49 0;
#X connect 43 0 50 0;
#X connect 46 0 47 0;
#X connect 47 0 45 0;
#X connect 47 0 45 1;
#X connect 48 0 50 1;
#X connect 49 0 50 2;
