#N canvas 158 22 1490 927 10;
#N canvas 0 22 450 300 (subpatch) 0;
#X array sample-1 441000 float 2;
#X coords 0 1 441000 -1 200 140 1 0 0;
#X restore 42 757 graph;
#X obj 52 653 dac~ 1 2;
#X obj 62 530 adc~ 1;
#X obj 810 270 tabwrite~ sample-1;
#X obj 41 341 tabplay~ sample-1;
#X obj 821 44 initialise_digitals;
#X text 982 44 Initialise LEDs \, buttons and trigger inputs;
#X obj 518 627 led-bargraph, f 60;
#X obj 41 432 throw~ output;
#X obj 52 620 catch~ output;
#N canvas 0 22 450 300 (subpatch) 0;
#X array sample-2 441000 float 2;
#X coords 0 1 441000 -1 200 140 1 0 0;
#X restore 252 757 graph;
#N canvas 0 22 450 300 (subpatch) 0;
#X array sample-3 441000 float 2;
#X coords 0 1 441000 -1 200 140 1 0 0;
#X restore 462 757 graph;
#N canvas 0 22 450 300 (subpatch) 0;
#X array sample-4 441000 float 2;
#X coords 0 1 441000 -1 200 140 1 0 0;
#X restore 672 757 graph;
#X obj 910 174 buttons, f 57;
#N canvas 457 28 516 435 recorder-1 0;
#X obj 117 189 f;
#X obj 117 210 tgl 15 0 empty empty empty 17 7 0 10 -262144 -1 -1 0
1;
#X obj 117 229 select 1 0;
#X msg 162 253 stop;
#X text 182 166 debounce for 3ms;
#X text 55 378 timer returns the duration of the recorded sample;
#X obj 199 328 timer 1 sample;
#X text 54 390 (interval between start and stop) in samples;
#X msg 117 253 start;
#X obj 199 354 s sampleLength1;
#X obj 118 167 delay 200;
#X obj 120 19 inlet;
#X obj 117 277 print recording-1;
#X obj 88 345 outlet;
#X obj 239 233 s button-1;
#X obj 198 70 tgl 15 0 empty empty empty 17 7 0 10 -262144 -1 -1 0
1;
#X obj 198 47 sel 1;
#X obj 137 88 r cv-clock;
#X obj 137 109 spigot;
#X obj 137 134 tgl 15 0 empty empty empty 17 7 0 10 -262144 -1 -1 0
1;
#X obj 161 134 sel 0;
#X obj 225 95 s record-latch;
#X connect 0 0 1 0;
#X connect 1 0 2 0;
#X connect 1 0 14 0;
#X connect 2 0 6 0;
#X connect 2 0 8 0;
#X connect 2 0 13 0;
#X connect 2 1 3 0;
#X connect 2 1 6 1;
#X connect 3 0 12 0;
#X connect 3 0 13 0;
#X connect 6 0 9 0;
#X connect 8 0 12 0;
#X connect 10 0 0 0;
#X connect 11 0 16 0;
#X connect 15 0 18 1;
#X connect 15 0 21 0;
#X connect 16 0 15 0;
#X connect 17 0 18 0;
#X connect 18 0 19 0;
#X connect 19 0 20 0;
#X connect 19 0 10 0;
#X connect 19 0 0 1;
#X connect 20 0 15 0;
#X restore 873 242 pd recorder-1;
#X obj 62 551 s~ input;
#X obj 810 224 r~ input;
#N canvas 613 22 252 276 loop-1 0;
#X obj 36 17 inlet;
#X obj 39 204 outlet;
#X obj 67 47 r sampleLength1;
#X obj 53 137 print;
#X obj 60 83 i;
#X msg 34 108 0 \$1;
#X obj 36 62 bng 15 250 50 0 empty empty empty 17 7 0 10 -262144 -1
-1;
#X obj 109 204 s flash-1;
#X obj 116 136 delay 100;
#X obj 103 166 tgl 15 0 empty empty empty 17 7 0 10 -262144 -1 -1 0
1;
#X connect 0 0 6 0;
#X connect 0 0 8 0;
#X connect 0 0 9 0;
#X connect 2 0 4 1;
#X connect 2 0 4 0;
#X connect 4 0 5 0;
#X connect 5 0 3 0;
#X connect 5 0 1 0;
#X connect 6 0 4 0;
#X connect 8 0 9 0;
#X connect 9 0 7 0;
#X restore 119 317 pd loop-1;
#X obj 519 580 r flash-1;
#X obj 970 224 r~ input;
#N canvas 0 22 463 470 recorder-2 0;
#X obj 117 220 tgl 15 0 empty empty empty 17 7 0 10 -262144 -1 -1 0
1;
#X obj 117 239 select 1 0;
#X msg 162 263 stop;
#X text 55 388 timer returns the duration of the recorded sample;
#X obj 199 338 timer 1 sample;
#X text 54 400 (interval between start and stop) in samples;
#X msg 117 263 start;
#X obj 117 287 print recording-1;
#X obj 88 355 outlet;
#X obj 239 243 s button-2;
#X obj 199 364 s sampleLength2;
#X obj 118 196 f;
#X text 183 173 debounce for 3ms;
#X obj 119 174 delay 200;
#X obj 121 26 inlet;
#X obj 199 77 tgl 15 0 empty empty empty 17 7 0 10 -262144 -1 -1 0
1;
#X obj 199 54 sel 1;
#X obj 138 95 r cv-clock;
#X obj 138 116 spigot;
#X obj 138 141 tgl 15 0 empty empty empty 17 7 0 10 -262144 -1 -1 0
1;
#X obj 162 141 sel 0;
#X obj 226 102 s record-latch;
#X connect 0 0 1 0;
#X connect 0 0 9 0;
#X connect 1 0 4 0;
#X connect 1 0 6 0;
#X connect 1 0 8 0;
#X connect 1 1 2 0;
#X connect 1 1 4 1;
#X connect 2 0 7 0;
#X connect 2 0 8 0;
#X connect 4 0 10 0;
#X connect 6 0 7 0;
#X connect 11 0 0 0;
#X connect 13 0 11 0;
#X connect 14 0 16 0;
#X connect 15 0 18 1;
#X connect 15 0 21 0;
#X connect 16 0 15 0;
#X connect 17 0 18 0;
#X connect 18 0 19 0;
#X connect 19 0 20 0;
#X connect 19 0 13 0;
#X connect 19 0 11 1;
#X connect 20 0 15 0;
#X restore 1033 242 pd recorder-2;
#X obj 970 270 tabwrite~ sample-2;
#X obj 201 432 throw~ output;
#N canvas 613 22 252 276 loop-2 0;
#X obj 36 17 inlet;
#X obj 39 204 outlet;
#X obj 53 137 print;
#X obj 60 83 i;
#X msg 34 108 0 \$1;
#X obj 36 62 bng 15 250 50 0 empty empty empty 17 7 0 10 -262144 -1
-1;
#X obj 116 136 delay 100;
#X obj 103 166 tgl 15 0 empty empty empty 17 7 0 10 -262144 -1 -1 0
1;
#X obj 67 47 r sampleLength2;
#X obj 109 204 s flash-2;
#X connect 0 0 5 0;
#X connect 0 0 6 0;
#X connect 0 0 7 0;
#X connect 3 0 4 0;
#X connect 4 0 2 0;
#X connect 4 0 1 0;
#X connect 5 0 3 0;
#X connect 6 0 7 0;
#X connect 7 0 9 0;
#X connect 8 0 3 1;
#X connect 8 0 3 0;
#X restore 279 319 pd loop-2;
#X obj 201 343 tabplay~ sample-2;
#X obj 66 362 adc~ 3;
#X obj 66 383 *~ 3;
#X obj 41 404 *~;
#X obj 226 383 *~ 3;
#X obj 201 404 *~;
#X obj 599 580 r flash-2;
#X obj 226 362 adc~ 4;
#X obj 391 432 throw~ output;
#X obj 416 383 *~ 3;
#X obj 391 404 *~;
#N canvas 613 22 252 276 loop-3 0;
#X obj 36 17 inlet;
#X obj 39 204 outlet;
#X obj 53 137 print;
#X obj 60 83 i;
#X msg 34 108 0 \$1;
#X obj 36 62 bng 15 250 50 0 empty empty empty 17 7 0 10 -262144 -1
-1;
#X obj 116 136 delay 100;
#X obj 103 166 tgl 15 0 empty empty empty 17 7 0 10 -262144 -1 -1 0
1;
#X obj 67 47 r sampleLength3;
#X obj 109 204 s flash-3;
#X connect 0 0 5 0;
#X connect 0 0 6 0;
#X connect 0 0 7 0;
#X connect 3 0 4 0;
#X connect 4 0 2 0;
#X connect 4 0 1 0;
#X connect 5 0 3 0;
#X connect 6 0 7 0;
#X connect 7 0 9 0;
#X connect 8 0 3 1;
#X connect 8 0 3 0;
#X restore 469 319 pd loop-3;
#X obj 391 343 tabplay~ sample-3;
#X obj 416 362 adc~ 5;
#X obj 679 580 r flash-3;
#X obj 1130 224 r~ input;
#X obj 1130 270 tabwrite~ sample-3;
#N canvas 0 22 442 503 recorder-3 0;
#X obj 118 221 tgl 15 0 empty empty empty 17 7 0 10 -262144 -1 -1 0
1;
#X obj 118 240 select 1 0;
#X msg 163 264 stop;
#X text 56 389 timer returns the duration of the recorded sample;
#X obj 200 339 timer 1 sample;
#X text 55 401 (interval between start and stop) in samples;
#X msg 118 264 start;
#X obj 89 356 outlet;
#X obj 240 244 s button-3;
#X obj 118 288 print recording-3;
#X obj 200 365 s sampleLength3;
#X obj 117 189 f;
#X text 182 166 debounce for 3ms;
#X obj 118 167 delay 200;
#X obj 120 19 inlet;
#X obj 198 70 tgl 15 0 empty empty empty 17 7 0 10 -262144 -1 -1 0
1;
#X obj 198 47 sel 1;
#X obj 137 88 r cv-clock;
#X obj 137 109 spigot;
#X obj 137 134 tgl 15 0 empty empty empty 17 7 0 10 -262144 -1 -1 0
1;
#X obj 161 134 sel 0;
#X obj 225 95 s record-latch;
#X connect 0 0 1 0;
#X connect 0 0 8 0;
#X connect 1 0 4 0;
#X connect 1 0 6 0;
#X connect 1 0 7 0;
#X connect 1 1 2 0;
#X connect 1 1 4 1;
#X connect 2 0 7 0;
#X connect 2 0 9 0;
#X connect 4 0 10 0;
#X connect 6 0 9 0;
#X connect 11 0 0 0;
#X connect 13 0 11 0;
#X connect 14 0 16 0;
#X connect 15 0 18 1;
#X connect 15 0 21 0;
#X connect 16 0 15 0;
#X connect 17 0 18 0;
#X connect 18 0 19 0;
#X connect 19 0 20 0;
#X connect 19 0 13 0;
#X connect 19 0 11 1;
#X connect 20 0 15 0;
#X restore 1193 242 pd recorder-3;
#X obj 1280 224 r~ input;
#N canvas 0 22 485 499 recorder-4 0;
#X obj 117 217 tgl 15 0 empty empty empty 17 7 0 10 -262144 -1 -1 0
1;
#X obj 117 236 select 1 0;
#X msg 162 260 stop;
#X text 55 385 timer returns the duration of the recorded sample;
#X obj 199 335 timer 1 sample;
#X text 54 397 (interval between start and stop) in samples;
#X msg 117 260 start;
#X obj 88 352 outlet;
#X obj 239 240 s button-4;
#X obj 117 284 print recording-4;
#X obj 199 361 s sampleLength4;
#X obj 117 189 f;
#X text 182 166 debounce for 3ms;
#X obj 118 167 delay 200;
#X obj 120 19 inlet;
#X obj 198 70 tgl 15 0 empty empty empty 17 7 0 10 -262144 -1 -1 0
1;
#X obj 198 47 sel 1;
#X obj 137 88 r cv-clock;
#X obj 137 109 spigot;
#X obj 137 134 tgl 15 0 empty empty empty 17 7 0 10 -262144 -1 -1 0
1;
#X obj 161 134 sel 0;
#X obj 225 95 s record-latch;
#X connect 0 0 1 0;
#X connect 0 0 8 0;
#X connect 1 0 4 0;
#X connect 1 0 6 0;
#X connect 1 0 7 0;
#X connect 1 1 2 0;
#X connect 1 1 4 1;
#X connect 2 0 7 0;
#X connect 2 0 9 0;
#X connect 4 0 10 0;
#X connect 6 0 9 0;
#X connect 11 0 0 0;
#X connect 13 0 11 0;
#X connect 14 0 16 0;
#X connect 15 0 18 1;
#X connect 15 0 21 0;
#X connect 16 0 15 0;
#X connect 17 0 18 0;
#X connect 18 0 19 0;
#X connect 19 0 20 0;
#X connect 19 0 13 0;
#X connect 19 0 11 1;
#X connect 20 0 15 0;
#X restore 1343 242 pd recorder-4;
#X obj 1280 270 tabwrite~ sample-4;
#X obj 759 580 r flash-4;
#X obj 581 432 throw~ output;
#X obj 606 383 *~ 3;
#X obj 581 404 *~;
#N canvas 613 22 252 276 loop-4 0;
#X obj 36 17 inlet;
#X obj 39 204 outlet;
#X obj 53 137 print;
#X obj 60 83 i;
#X msg 34 108 0 \$1;
#X obj 36 62 bng 15 250 50 0 empty empty empty 17 7 0 10 -262144 -1
-1;
#X obj 116 136 delay 100;
#X obj 103 166 tgl 15 0 empty empty empty 17 7 0 10 -262144 -1 -1 0
1;
#X obj 67 47 r sampleLength4;
#X obj 109 204 s flash-4;
#X connect 0 0 5 0;
#X connect 0 0 6 0;
#X connect 0 0 7 0;
#X connect 3 0 4 0;
#X connect 4 0 2 0;
#X connect 4 0 1 0;
#X connect 5 0 3 0;
#X connect 6 0 7 0;
#X connect 7 0 9 0;
#X connect 8 0 3 1;
#X connect 8 0 3 0;
#X restore 659 319 pd loop-4;
#X obj 581 343 tabplay~ sample-4;
#X obj 606 362 adc~ 6;
#X obj 259 576 adc~ 10;
#X obj 259 597 threshold~ 0.3 50 0.1 50;
#X obj 259 620 s cv-clock;
#X obj 834 580 r record-latch;
#X obj 17 232 r cv-clock;
#X text 47 488 audio input;
#X text 44 590 audio output;
#X text 542 544 Leds show loop restart \, last two show when record
is armed;
#N canvas 0 22 310 226 selector 0;
#X obj 37 37 inlet~;
#X obj 173 54 metro 20;
#X obj 188 32 loadbang;
#X obj 37 79 snapshot~;
#X obj 37 120 i;
#X obj 37 141 change;
#X obj 37 162 outlet;
#X msg 118 142 0;
#X connect 0 0 3 0;
#X connect 1 0 3 0;
#X connect 2 0 1 0;
#X connect 2 0 7 0;
#X connect 3 0 4 0;
#X connect 4 0 5 0;
#X connect 5 0 6 0;
#X connect 7 0 6 0;
#X restore 862 404 pd selector;
#X obj 862 383 adc~ 7;
#X text 999 352 Pot 5 controls whether loop is locked to clock;
#X obj 862 425 send clock-select;
#X text 999 392 based on the clock signal. If it's all the way right
;
#X text 999 412 then the loops restarted are based on their length.
;
#X text 999 372 If it's all the way left then the loops are restarted
;
#X text 999 432 This means you can change the clock before recording
each;
#X text 999 452 for interesting polyrhythms but it is also prone to
phasing;
#X text 999 472 if the loops run for a long time.;
#X obj 92 234 r clock-select;
#X obj 92 265 == 0;
#X obj 132 265 == 1;
#X obj 93 291 spigot;
#X obj 143 291 spigot;
#X obj 207 232 r cv-clock;
#X obj 282 234 r clock-select;
#X obj 282 265 == 0;
#X obj 322 265 == 1;
#X obj 283 291 spigot;
#X obj 333 291 spigot;
#X obj 387 232 r cv-clock;
#X obj 462 234 r clock-select;
#X obj 462 265 == 0;
#X obj 502 265 == 1;
#X obj 463 291 spigot;
#X obj 513 291 spigot;
#X obj 567 232 r cv-clock;
#X obj 642 234 r clock-select;
#X obj 642 265 == 0;
#X obj 682 265 == 1;
#X obj 643 291 spigot;
#X obj 693 291 spigot;
#X text 909 142 clock received in CV in 7;
#X text 149 200 The first 4 pots control the volume of each loop;
#X text 245 525 CV In 7 is the clock;
#X text 185 548 Make sure it's configured as analog on the back;
#X text 345 705 Store up to 10 seconds for each channel;
#X text 909 122 Push button to arm channel for record \, record starts
on next;
#X text 28 24 4 Channel Looper;
#X text 28 34 =================;
#X text 28 54 This patch is a 4 channel looper designed for PEPPER.
;
#X text 28 74 The volume of each loop can be controlled and the recording
;
#X text 28 94 new samples happens when a clock signal is received.
;
#X text 28 114 Different clock signals can be used for each channel
giving;
#X text 28 134 complex polyrhythms.;
#X text 28 164 robert-jack 2020;
#X connect 2 0 15 0;
#X connect 4 0 27 0;
#X connect 4 1 74 0;
#X connect 9 0 1 0;
#X connect 9 0 1 1;
#X connect 13 0 14 0;
#X connect 13 1 20 0;
#X connect 13 2 41 0;
#X connect 13 3 43 0;
#X connect 14 0 3 0;
#X connect 16 0 3 0;
#X connect 17 0 4 0;
#X connect 18 0 7 0;
#X connect 18 0 7 1;
#X connect 19 0 21 0;
#X connect 20 0 21 0;
#X connect 23 0 24 0;
#X connect 24 0 29 0;
#X connect 24 1 80 0;
#X connect 25 0 26 0;
#X connect 26 0 27 1;
#X connect 27 0 8 0;
#X connect 28 0 29 1;
#X connect 29 0 22 0;
#X connect 30 0 7 2;
#X connect 30 0 7 3;
#X connect 31 0 28 0;
#X connect 33 0 34 1;
#X connect 34 0 32 0;
#X connect 35 0 36 0;
#X connect 36 0 34 0;
#X connect 36 1 86 0;
#X connect 37 0 33 0;
#X connect 38 0 7 4;
#X connect 38 0 7 5;
#X connect 39 0 40 0;
#X connect 41 0 40 0;
#X connect 42 0 44 0;
#X connect 43 0 44 0;
#X connect 45 0 7 6;
#X connect 45 0 7 7;
#X connect 47 0 48 1;
#X connect 48 0 46 0;
#X connect 49 0 50 0;
#X connect 50 0 48 0;
#X connect 50 1 92 0;
#X connect 51 0 47 0;
#X connect 52 0 53 0;
#X connect 53 0 54 0;
#X connect 55 0 7 8;
#X connect 55 0 7 9;
#X connect 56 0 73 0;
#X connect 60 0 63 0;
#X connect 61 0 60 0;
#X connect 70 0 71 0;
#X connect 70 0 72 0;
#X connect 71 0 73 1;
#X connect 72 0 74 1;
#X connect 73 0 17 0;
#X connect 74 0 17 0;
#X connect 75 0 79 0;
#X connect 76 0 77 0;
#X connect 76 0 78 0;
#X connect 77 0 79 1;
#X connect 78 0 80 1;
#X connect 79 0 23 0;
#X connect 80 0 23 0;
#X connect 81 0 85 0;
#X connect 82 0 83 0;
#X connect 82 0 84 0;
#X connect 83 0 85 1;
#X connect 84 0 86 1;
#X connect 85 0 35 0;
#X connect 86 0 35 0;
#X connect 87 0 91 0;
#X connect 88 0 89 0;
#X connect 88 0 90 0;
#X connect 89 0 91 1;
#X connect 90 0 92 1;
#X connect 91 0 49 0;
#X connect 92 0 49 0;
