#N canvas 151 282 856 383 10;
#X obj 25 21 inlet;
#X obj 75 21 inlet;
#X obj 144 21 inlet;
#X obj 194 21 inlet;
#X obj 265 21 inlet;
#X obj 315 21 inlet;
#X obj 383 21 inlet;
#X obj 433 21 inlet;
#X obj 504 21 inlet;
#X obj 555 21 inlet;
#X obj 25 174 s bela_digitalOut17;
#X obj 75 194 s bela_digitalOut18;
#X obj 145 174 s bela_digitalOut21;
#X obj 195 194 s bela_digitalOut13;
#X obj 265 174 s bela_digitalOut14;
#X obj 315 194 s bela_digitalOut11;
#X obj 385 174 s bela_digitalOut12;
#X obj 435 194 s bela_digitalOut15;
#X obj 505 174 s bela_digitalOut16;
#X obj 555 194 s bela_digitalOut19;
#X connect 0 0 10 0;
#X connect 1 0 11 0;
#X connect 2 0 12 0;
#X connect 3 0 13 0;
#X connect 4 0 14 0;
#X connect 5 0 15 0;
#X connect 6 0 16 0;
#X connect 7 0 17 0;
#X connect 8 0 18 0;
#X connect 9 0 19 0;
