#N canvas 0 22 1440 856 10;
#X text 36 419 ADC 3: Analog In 0;
#X text 34 41 Basic analog in (or 'theremin');
#X text 34 51 ===============================;
#X text 35 353 ADC routing:;
#X text 35 361 ------------;
#X text 36 429 ADC 4: Analog In 1;
#X text 36 439 ADC 5: Analog In 2;
#X text 36 449 ADC 6: Analog In 3;
#X text 36 459 ADC 7: Analog In 4;
#X text 36 469 ADC 8: Analog In 5;
#X text 36 479 ADC 9: Analog In 6;
#X text 36 489 ADC 10: Analog In 7;
#X text 36 399 ADC 1: Audio In L;
#X text 36 409 ADC 2: Audio In R;
#X obj 43 189 adc~ 3 4;
#X text 121 188 << Use first two analog ins;
#X text 37 74 In this example the first two analog inputs are;
#X text 37 87 used to control the frequency and amplitude of an;
#X text 37 100 oscillator.;
#X text 36 373 ADC channels 3-10 are used to address the analog inputs:
;
#X text 385 32 ............................;
#X text 385 42 . ____ ._____ _ .......___ .;
#X text 385 52 .| __ )| ____| |....../ _ |.;
#X text 385 72 .| |_) | |___| |___ / ___ |.;
#X text 385 82 .|____/|_____|_____/_/..._|.io;
#X text 385 92 ............................;
#X text 385 62 .| __ || __|.| |...../ _| |.;
#X text 37 114 Note that analog inputs and outputs have a range between
;
#X text 37 128 0 and 1 \, unlike regular audio signals (which have
a;
#X text 37 142 range between -1 and 1).;
#X text 454 252 using [metro] and [snapshot~].;
#X text 454 240 Task 1: print the value of the analog input;
#X text 36 499 DAC 27-28-29-30: Bela scope;
#X text 454 332 Task 4: remove noise from analog input;
#X obj 43 306 dac~ 1 2;
#X text 454 343 using [lop~ 10];
#X text 373 192 and a potentiometer to analog in 1;
#X text 373 179 Hardware: connect a force sensing resistor to analog
in 0;
#X text 453 307 Task 3: map the frequency range to [300 1200];
#X text 454 274 Task 2: connect the analog input to the;
#X obj 63 222 *~ 1500;
#X obj 43 274 *~;
#N canvas 0 22 235 352 oscillator 0;
#X obj 48 44 inlet~;
#X obj 48 125 phasor~;
#X obj 118 125 phasor~;
#X obj 48 146 *~ 0.5;
#X obj 118 146 *~ 0.5;
#X obj 83 184 +~;
#X obj 83 273 outlet~;
#X obj 118 105 *~ 1.005;
#X obj 83 226 lop~ 5000;
#X obj 83 205 vcf~ 3;
#X connect 0 0 1 0;
#X connect 0 0 7 0;
#X connect 0 0 9 1;
#X connect 1 0 3 0;
#X connect 2 0 4 0;
#X connect 3 0 5 0;
#X connect 4 0 5 1;
#X connect 5 0 9 0;
#X connect 7 0 2 0;
#X connect 8 0 6 0;
#X connect 9 0 8 0;
#X restore 43 248 pd oscillator;
#X text 141 221 << Analog In 1 controls frequency;
#X text 121 274 << Analog In 0 controls amplitude;
#X text 454 286 Bela scope [dac~ 27 28 29 30]. Press scope button in
IDE.;
#X text 454 372 Task 5: view the effect of different filter types on
the sensor signal;
#X connect 14 0 41 1;
#X connect 14 1 40 0;
#X connect 40 0 42 0;
#X connect 41 0 34 0;
#X connect 41 0 34 1;
#X connect 42 0 41 0;
