#N canvas 0 22 621 265 10;
#X obj 40 84 snapshot~;
#X obj 47 62 r analogInputTick;
#X obj 40 185 change;
#X text 276 23 \$1 first creation argument is adc~ number;
#X text 276 43 \$2 second creation argument is ctlout number;
#X obj 40 13 adc~ \$1;
#X obj 40 210 ctlout \$2;
#X obj 40 106 * 128;
#X obj 40 159 i;
#X text 103 186 Only send value on change;
#X obj 40 38 lop~ 100;
#X text 109 40 Smooth the signal;
#X text 115 86 Sample it;
#X text 82 107 Rescale to MIDI range;
#X obj 40 132 + 0.5;
#X text 86 140 and round to integer value;
#X connect 0 0 7 0;
#X connect 1 0 0 0;
#X connect 2 0 6 0;
#X connect 5 0 10 0;
#X connect 7 0 14 0;
#X connect 8 0 2 0;
#X connect 10 0 0 0;
#X connect 14 0 8 0;
