#N canvas 63 23 797 726 10;
#X obj 36 162 *~ 1000;
#X obj 36 139 adc~ 3;
#X obj 154 162 adc~ 4;
#X obj 293 134 adc~ 5;
#X text 33 22 Simple FM;
#X text 33 32 =========;
#X obj 36 431 +~;
#X obj 109 373 osc~;
#X obj 109 414 *~;
#X obj 109 333 *~;
#X obj 174 355 *~;
#X obj 36 457 osc~;
#X obj 36 513 dac~ 1 2;
#X obj 36 267 receive~ frequency;
#X obj 124 296 receive~ harmonicRatio;
#X obj 189 326 receive~ modulationIndex;
#X obj 36 184 send~ frequency;
#X obj 154 184 send~ harmonicRatio;
#X obj 293 184 send~ modulationIndex;
#X text 33 55 Simple frequency modulation synthesis. Use the first
three;
#X text 33 69 analog inputs to change frequency \, harmonic ratio and
;
#X text 33 83 modulation index.;
#X text 445 15 ............................;
#X text 445 25 . ____ ._____ _ .......___ .;
#X text 445 35 .| __ )| ____| |....../ _ |.;
#X text 445 55 .| |_) | |___| |___ / ___ |.;
#X text 445 65 .|____/|_____|_____/_/..._|.io;
#X text 445 75 ............................;
#X text 445 45 .| __ || __|.| |...../ _| |.;
#X obj 212 510 dac~ 27 28 29 30;
#X obj 243 480 adc~ 3 4 5;
#X text 333 508 << Output to these channels for scope;
#X obj 293 156 *~ 5;
#X text 453 179 Hardware: connect a LDR to analog in 3;
#X text 453 192 you now have 4 analog sensors;
#X text 454 250 Task 1: choose the best mapping for these;
#X text 454 262 4 sensors;
#X text 454 275 Task 2: map them to an appropriate range;
#X text 454 287 using Bela scope.;
#X text 454 302 Task 3: open [simple-sequencer] and find out;
#X text 454 314 how to use it sequence the fm synth;
#X text 454 329 Task 4: once you have this working try;
#X text 455 341 modulating other parameters with the envelope;
#X text 454 357 Task 5: use a button to trigger envelope;
#X text 455 369 via the right inlet of [simple-sequencer];
#X obj 515 447 simple-sequencer;
#X obj 36 482 *~ 0.2;
#X text 454 385 Task 6: make LED flash in time;
#X text 455 397 via the right outlet of [simple-sequencer];
#X connect 0 0 16 0;
#X connect 1 0 0 0;
#X connect 2 0 17 0;
#X connect 3 0 32 0;
#X connect 6 0 11 0;
#X connect 7 0 8 0;
#X connect 8 0 6 1;
#X connect 9 0 10 0;
#X connect 9 0 7 0;
#X connect 10 0 8 1;
#X connect 11 0 46 0;
#X connect 13 0 9 0;
#X connect 13 0 6 0;
#X connect 14 0 9 1;
#X connect 15 0 10 1;
#X connect 30 0 29 1;
#X connect 30 1 29 2;
#X connect 30 2 29 3;
#X connect 32 0 18 0;
#X connect 46 0 12 1;
#X connect 46 0 12 0;
#X connect 46 0 29 0;
