#N canvas 419 23 825 662 10;
#X obj 40 552 outlet~ envelope;
#X obj 40 510 vline~;
#X obj 41 97 snapshot~;
#X obj 64 52 loadbang;
#X obj 64 75 metro 10;
#X obj 55 428 r tempo;
#X obj 40 455 f;
#X obj 194 253 float;
#X obj 236 253 + 1;
#X obj 260 408 sig~ 1;
#X obj 236 275 % 8;
#X obj 236 317 select 0 1 2 3 4 5 6 7;
#X msg 266 345 1.2;
#X msg 296 345 1.5;
#X msg 326 345 2;
#X msg 236 345 1;
#X msg 356 345 1.5;
#X msg 386 345 1.2;
#X msg 458 345 1.2;
#X obj 426 148 loadbang;
#X obj 509 198 metro 250;
#X obj 560 101 r tempo;
#X obj 509 220 s clock;
#X obj 40 405 r clock;
#X obj 194 226 r clock;
#X obj 361 28 inlet clock;
#X obj 40 172 s tempo;
#X obj 361 74 s clock;
#X obj 544 406 r clock;
#X obj 544 552 outlet~ toggle-led;
#X obj 260 552 outlet~ frequency-multiplier;
#X obj 482 171 tgl 15 0 empty empty empty 17 7 0 10 -262144 -1 -1 0
1;
#X obj 361 50 bang;
#X obj 279 274 random 8;
#X msg 416 345 1.333;
#X obj 482 125 < 1500;
#X obj 41 28 inlet~ tempo;
#X obj 40 142 * 1800;
#X obj 482 147 change;
#X obj 41 119 + 0.005;
#X msg 40 482 0.2 5 \, 0 \$1 5;
#X obj 544 512 vline~;
#X obj 559 430 r tempo;
#X obj 544 457 f;
#X msg 544 484 0.2 5 \, 0 \$1 5;
#X text 621 158 << generate master clock;
#X text 501 348 << multipliers for base freqeuncy;
#X text 641 428 << envelope LED;
#X text 115 454 << amplitude envelope;
#X text 441 28 << control rate input to trigger note;
#X text 131 28 << signal rate input tempo;
#X obj 99 129 loadbang;
#X msg 99 151 250;
#X connect 1 0 0 0;
#X connect 2 0 39 0;
#X connect 3 0 4 0;
#X connect 4 0 2 0;
#X connect 5 0 6 1;
#X connect 6 0 40 0;
#X connect 7 0 8 0;
#X connect 8 0 7 1;
#X connect 8 0 10 0;
#X connect 9 0 30 0;
#X connect 10 0 11 0;
#X connect 11 0 15 0;
#X connect 11 1 12 0;
#X connect 11 2 13 0;
#X connect 11 3 14 0;
#X connect 11 4 16 0;
#X connect 11 5 17 0;
#X connect 11 6 34 0;
#X connect 11 7 18 0;
#X connect 12 0 9 0;
#X connect 13 0 9 0;
#X connect 14 0 9 0;
#X connect 15 0 9 0;
#X connect 16 0 9 0;
#X connect 17 0 9 0;
#X connect 18 0 9 0;
#X connect 19 0 31 0;
#X connect 20 0 22 0;
#X connect 21 0 20 1;
#X connect 21 0 35 0;
#X connect 23 0 6 0;
#X connect 24 0 7 0;
#X connect 25 0 32 0;
#X connect 28 0 43 0;
#X connect 31 0 20 0;
#X connect 32 0 27 0;
#X connect 34 0 9 0;
#X connect 35 0 38 0;
#X connect 36 0 2 0;
#X connect 37 0 26 0;
#X connect 38 0 31 0;
#X connect 39 0 37 0;
#X connect 40 0 1 0;
#X connect 41 0 29 0;
#X connect 42 0 43 1;
#X connect 43 0 44 0;
#X connect 44 0 41 0;
#X connect 51 0 52 0;
#X connect 52 0 26 0;
