#N canvas 542 62 520 564 12;
#X obj 107 31 r bela_adxl345;
#X obj 135 65 print;
#X obj 107 98 unpack f f f;
#X obj 4 202 phasor~ 100;
#X obj 83 243 lop~;
#X obj 107 130 t f f;
#X obj 107 154 *;
#X obj 225 252 lop~;
#X obj 249 139 t f f;
#X obj 249 163 *;
#X obj 226 280 *~ 0.5;
#X obj 376 254 lop~;
#X obj 400 141 t f f;
#X obj 400 165 *;
#X obj 146 211 phasor~ 149.3;
#X obj 297 213 phasor~ 198.6;
#X obj 107 180 * 1500;
#X obj 249 189 * 1500;
#X obj 400 191 * 1500;
#X obj 228 369 hip~ 10;
#X obj 302 371 hip~ 10;
#X obj 245 415 dac~;
#X text 229 344 Remove phasor's DC offset;
#X connect 0 0 1 0;
#X connect 0 0 2 0;
#X connect 2 0 5 0;
#X connect 2 1 8 0;
#X connect 2 2 12 0;
#X connect 3 0 4 0;
#X connect 4 0 19 0;
#X connect 5 0 6 0;
#X connect 5 1 6 1;
#X connect 6 0 16 0;
#X connect 7 0 10 0;
#X connect 8 0 9 0;
#X connect 8 1 9 1;
#X connect 9 0 17 0;
#X connect 10 0 19 0;
#X connect 10 0 20 0;
#X connect 11 0 20 0;
#X connect 12 0 13 0;
#X connect 12 1 13 1;
#X connect 13 0 18 0;
#X connect 14 0 7 0;
#X connect 15 0 11 0;
#X connect 16 0 4 1;
#X connect 17 0 7 1;
#X connect 18 0 11 1;
#X connect 19 0 21 0;
#X connect 20 0 21 1;
