#N canvas 1869 -471 1076 704 10;
#X obj 164 142 adc~ 4;
#X obj 323 141 adc~ 5;
#X obj 36 461 +~;
#X obj 109 403 osc~;
#X obj 109 444 *~;
#X obj 109 363 *~;
#X obj 174 385 *~;
#X obj 36 487 osc~;
#X obj 36 603 dac~ 1 2;
#X obj 124 326 receive~ harmonicRatio;
#X obj 189 356 receive~ modulationIndex;
#X obj 164 204 send~ harmonicRatio;
#X obj 323 202 send~ modulationIndex;
#X text 33 55 Simple frequency modulation synthesis. Use the first
three;
#X text 33 69 analog inputs to change frequency \, harmonic ratio and
;
#X text 33 83 modulation index.;
#X text 445 15 ............................;
#X text 445 25 . ____ ._____ _ .......___ .;
#X text 445 35 .| __ )| ____| |....../ _ |.;
#X text 445 55 .| |_) | |___| |___ / ___ |.;
#X text 445 65 .|____/|_____|_____/_/..._|.io;
#X text 445 75 ............................;
#X text 445 45 .| __ || __|.| |...../ _| |.;
#X obj 36 259 sig~ 300;
#X obj 24 142 adc~ 3;
#X obj 24 204 send~ amplitude;
#X obj 84 487 receive~ amplitude;
#X obj 36 512 *~;
#X obj 24 173 lop~ 10;
#X obj 556 394 loadbang;
#X obj 556 449 simple-sequencer;
#X obj 556 415 metro 500;
#X obj 164 173 *~ 16;
#X obj 323 171 *~ 2000;
#X text 33 22 FM Synthesis;
#X text 33 32 ============;
#X connect 0 0 32 0;
#X connect 1 0 33 0;
#X connect 2 0 7 0;
#X connect 3 0 4 0;
#X connect 4 0 2 1;
#X connect 5 0 6 0;
#X connect 5 0 3 0;
#X connect 7 0 27 0;
#X connect 9 0 5 1;
#X connect 10 0 6 1;
#X connect 10 0 4 1;
#X connect 23 0 2 0;
#X connect 23 0 5 0;
#X connect 24 0 28 0;
#X connect 26 0 27 1;
#X connect 27 0 8 1;
#X connect 27 0 8 0;
#X connect 28 0 25 0;
#X connect 29 0 31 0;
#X connect 31 0 30 0;
#X connect 32 0 11 0;
#X connect 33 0 12 0;
