#N canvas 615 41 825 662 10;
#X obj 40 552 outlet~ envelope;
#X obj 40 510 vline~;
#X obj 194 253 float;
#X obj 236 253 + 1;
#X obj 260 408 sig~ 1;
#X obj 236 275 % 8;
#X obj 236 317 select 0 1 2 3 4 5 6 7;
#X msg 266 345 1.2;
#X msg 296 345 1.5;
#X msg 326 345 2;
#X msg 236 345 1;
#X msg 356 345 1.5;
#X msg 386 345 1.2;
#X msg 458 345 1.2;
#X obj 40 405 r clock;
#X obj 194 226 r clock;
#X obj 36 41 inlet clock;
#X obj 36 67 s clock;
#X obj 544 406 r clock;
#X obj 544 552 outlet~ toggle-led;
#X obj 260 552 outlet~ frequency-multiplier;
#X obj 279 274 random 8;
#X msg 416 345 1.333;
#X obj 544 512 vline~;
#X text 501 348 << multipliers for base freqeuncy;
#X text 641 428 << envelope LED;
#X text 115 454 << amplitude envelope;
#X text 116 41 << control rate input to trigger note;
#X msg 40 482 0.2 5 \, 0 200 5;
#X msg 544 484 1 10 \, 0 200 10;
#X connect 1 0 0 0;
#X connect 2 0 3 0;
#X connect 3 0 2 1;
#X connect 3 0 5 0;
#X connect 4 0 20 0;
#X connect 5 0 6 0;
#X connect 6 0 10 0;
#X connect 6 1 7 0;
#X connect 6 2 8 0;
#X connect 6 3 9 0;
#X connect 6 4 11 0;
#X connect 6 5 12 0;
#X connect 6 6 22 0;
#X connect 6 7 13 0;
#X connect 7 0 4 0;
#X connect 8 0 4 0;
#X connect 9 0 4 0;
#X connect 10 0 4 0;
#X connect 11 0 4 0;
#X connect 12 0 4 0;
#X connect 13 0 4 0;
#X connect 14 0 28 0;
#X connect 15 0 2 0;
#X connect 16 0 17 0;
#X connect 18 0 29 0;
#X connect 22 0 4 0;
#X connect 23 0 19 0;
#X connect 28 0 1 0;
#X connect 29 0 23 0;
