#N canvas 521 22 687 700 10;
#X obj 560 48 loadbang;
#X obj 560 70 metro 20;
#X obj 96 162 snapshot~;
#X msg 66 198 0;
#X obj 98 269 s bela_guiOut;
#X obj 560 91 s clock;
#X obj 107 138 r clock;
#X obj 176 162 snapshot~;
#X obj 187 138 r clock;
#X obj 256 162 snapshot~;
#X obj 267 138 r clock;
#X obj 336 162 snapshot~;
#X obj 347 138 r clock;
#X obj 98 239 pack f f f f f, f 26;
#X obj 96 95 osc~ 0.8;
#X obj 176 95 osc~ 0.4;
#X obj 256 95 osc~ 0.2;
#X obj 336 95 osc~ 0.1;
#X connect 0 0 1 0;
#X connect 1 0 5 0;
#X connect 2 0 13 1;
#X connect 3 0 13 0;
#X connect 6 0 2 0;
#X connect 6 0 3 0;
#X connect 7 0 13 2;
#X connect 8 0 7 0;
#X connect 9 0 13 3;
#X connect 10 0 9 0;
#X connect 11 0 13 4;
#X connect 12 0 11 0;
#X connect 13 0 4 0;
#X connect 14 0 2 0;
#X connect 15 0 7 0;
#X connect 16 0 9 0;
#X connect 17 0 11 0;
