#N canvas 216 161 466 425 10;
#X obj 130 280 print backward;
#X obj 148 36 loadbang;
#X obj 168 92 metro 500;
#X obj 168 113 f;
#X obj 198 114 + 1;
#X obj 168 134 % 6;
#X msg 63 135 disconnect;
#X msg 5 96 connect 192.168.7.1 7562;
#X obj 168 197 list prepend send;
#X obj 168 218 list trim;
#X obj 57 247 netsend -u -b;
#X obj 294 113 adc~ 3;
#X obj 294 134 snapshot~;
#X obj 295 161 oscformat slider;
#X obj 168 163 oscformat counter;
#X connect 1 0 2 0;
#X connect 1 0 7 0;
#X connect 2 0 3 0;
#X connect 2 0 12 0;
#X connect 3 0 4 0;
#X connect 3 0 5 0;
#X connect 4 0 3 1;
#X connect 5 0 14 0;
#X connect 6 0 10 0;
#X connect 7 0 10 0;
#X connect 8 0 9 0;
#X connect 9 0 10 0;
#X connect 10 1 0 0;
#X connect 11 0 12 0;
#X connect 12 0 13 0;
#X connect 13 0 8 0;
#X connect 14 0 8 0;
