#N canvas 88 22 851 569 10;
#X obj 28 189 loadbang;
#X obj 66 362 snapshot~;
#X msg 17 389 0;
#X obj 90 488 s bela_guiOut;
#X obj 28 232 s clock;
#X obj 77 338 r clock;
#X obj 146 362 snapshot~;
#X obj 157 338 r clock;
#X obj 266 371 snapshot~;
#X obj 267 338 r clock;
#X obj 336 362 snapshot~;
#X obj 347 338 r clock;
#X obj 63 244 osc~ 0.8;
#X obj 146 295 osc~ 0.4;
#X obj 256 295 osc~ 0.2;
#X obj 336 295 osc~ 0.1;
#X text 178 469 send to the Bela GUI;
#X text 427 362 Convert to control rate;
#X text 92 413 Prepend with buffer number;
#X text 409 294 Oscillators give out -1 to 1;
#X obj 28 211 metro 30;
#X text 590 7 ............................;
#X text 590 17 . ____ ._____ _ .......___ .;
#X text 590 27 .| __ )| ____| |....../ _ |.;
#X text 590 47 .| |_) | |___| |___ / ___ |.;
#X text 590 57 .|____/|_____|_____/_/..._|.io;
#X text 590 67 ............................;
#X text 590 37 .| __ || __|.| |...../ _| |.;
#X text 20 38 =========================;
#X text 20 28 Sending data to the GUI;
#X text 22 59 This example show how to send data to the GUI.;
#X text 23 79 We send the value of 4 LFOs which are visualised in the
GUI.;
#X text 22 99 Launch the GUI in the IDE to see the visualisation.;
#X text 22 129 https://learn.bela.io/tutorials/pure-data/communication/graphical-user-interfaces/
;
#X obj 71 439 pack f f f;
#X obj 276 432 pack f f f;
#X msg 251 395 1;
#X obj 64 281 *~ 2;
#X connect 0 0 20 0;
#X connect 1 0 34 1;
#X connect 2 0 34 0;
#X connect 5 0 1 0;
#X connect 5 0 2 0;
#X connect 6 0 34 2;
#X connect 7 0 6 0;
#X connect 8 0 35 1;
#X connect 9 0 8 0;
#X connect 9 0 36 0;
#X connect 10 0 35 2;
#X connect 11 0 10 0;
#X connect 12 0 37 0;
#X connect 13 0 6 0;
#X connect 14 0 8 0;
#X connect 15 0 10 0;
#X connect 20 0 4 0;
#X connect 34 0 3 0;
#X connect 35 0 3 0;
#X connect 36 0 35 0;
#X connect 37 0 1 0;
