#N canvas 521 22 687 700 10;
#X obj 560 48 loadbang;
#X obj 560 70 metro 20;
#X obj 126 162 snapshot~;
#X msg 66 198 0;
#X obj 98 269 s bela_guiOut;
#X obj 560 91 s clock;
#X obj 137 138 r clock;
#X obj 98 239 pack f f, f 10;
#X obj 126 95 adc~ 3;
#X connect 0 0 1 0;
#X connect 1 0 5 0;
#X connect 2 0 7 1;
#X connect 3 0 7 0;
#X connect 6 0 2 0;
#X connect 6 0 3 0;
#X connect 7 0 4 0;
#X connect 8 0 2 0;
