#N canvas 219 296 623 462 10;
#X obj 66 202 s bela_setDigital @hv_param;
#X obj 55 45 loadbang;
#X obj 55 69 f \$1;
#X obj 55 94 select 1 2 3 4;
#X msg 50 129 11;
#X msg 92 132 16;
#X msg 141 133 23;
#X msg 179 130 24;
#X msg 66 177 out \$1;
#X obj 18 274 s bela_digitalOut11 @hv_param;
#X obj 18 244 spigot;
#X obj 129 298 spigot;
#X obj 163 343 spigot;
#X obj 337 388 spigot;
#X obj 322 149 inlet;
#X obj 129 321 s bela_digitalOut16 @hv_param;
#X obj 163 368 s bela_digitalOut23 @hv_param;
#X obj 336 410 s bela_digitalOut24 @hv_param;
#X text 275 45 Trig out 1: 11;
#X text 275 55 Trig out 2: 16;
#X text 275 65 Trig out 3: 23;
#X text 275 75 Trig out 4: 24;
#X connect 1 0 2 0;
#X connect 2 0 3 0;
#X connect 3 0 4 0;
#X connect 3 1 5 0;
#X connect 3 2 6 0;
#X connect 3 3 7 0;
#X connect 4 0 8 0;
#X connect 4 0 10 1;
#X connect 5 0 8 0;
#X connect 5 0 11 1;
#X connect 6 0 8 0;
#X connect 6 0 12 1;
#X connect 7 0 8 0;
#X connect 7 0 13 1;
#X connect 8 0 0 0;
#X connect 10 0 9 0;
#X connect 11 0 15 0;
#X connect 12 0 16 0;
#X connect 13 0 17 0;
#X connect 14 0 11 0;
#X connect 14 0 13 0;
#X connect 14 0 12 0;
#X connect 14 0 10 0;
