#N canvas 173 0 1033 776 10;
#X text 26 486 Throttle printing;
#X obj 35 48 loadbang;
#X obj 327 480 r bela_trill;
#X text 386 682 [<num_touches> <position> <size>];
#X obj 93 720 print craft;
#X obj 325 658 print bar;
#X text 496 629 [<num_touches> <x> <y> <size>];
#X obj 405 612 print square;
#X text 112 116 <bus> is the i2c bus that yout sensor is connected
to;
#X text 596 277 AUTO(default) will use the default mode for the device
type.;
#X text 113 166 <address> is the address of the sensor. If unspecified
\, the;
#X text 136 178 default address for the device type will be used;
#X text 112 136 <device> the type of sensor you are connecting: BAR
SQUARE;
#X text 123 145 CRAFT RING HEX;
#X obj 569 60 r bela_trillCreated;
#X obj 569 84 print bela_trillCreated;
#X text 665 138 device that was successfully initialised. The message
;
#X text 664 127 bela_trillCreated will receive a message for each;
#X obj 120 60 s bela_setTrill;
#X text 112 86 <sensor_id> is the name you assign to your sensor \,
which;
#X text 112 96 will identify it throughout the patch;
#X text 51 281 In this example we initialise a Craft \, Bar and Square.
;
#X text 166 342 If the "mycraft" device was initialised correctly \,
;
#X text 600 415 More details on these settings can be found at learn.bela.io/trill
;
#X text 599 316 Set the prescaler:;
#X text 598 351 Set the threshold:;
#X text 407 478 This receives the reading from all the Trills;
#X text 513 515 each message will be prepended with the <sensor_id>
;
#X text 186 733 [<num_channels> <values .... >];
#X text 185 719 Devices in RAW \, DIFF or BASELINE mode will receive:
;
#X text 496 603 Devices in CENTROID mode with 2 axes (SQUARE \, HEX)
will receive:;
#X text 387 656 Devices in CENTROID mode with 1 axis (BAR \, RING)
will receive:;
#X obj 327 516 route mycraft mybar mysquare;
#X text 599 381 Reset the baseline:;
#X text 601 394 [updateBaseline <sensor_id>(;
#X text 598 330 [prescaler <sensor_id> <value>( <value> is between
1 and 8;
#X text 600 364 [threshold <sensor_id> <value>( <value> is between
0 and 0.1;
#X text 601 436 or in the Trill/general-settings example;
#X text 106 21 1 Initialise the Trill device;
#X text 638 35 2 Verify that the device was initialised correctly;
#X text 165 362 update the baseline of the capacitive channels.;
#X text 114 39 [new <sensor_id> <bus> <device> <address=255>(;
#X text 593 254 Set the device mode:;
#X text 596 266 can be one of AUTO \, CENTROID. RAW BASELINE DIFF.
;
#X text 596 293 [mode <sensor_id> <mode>(;
#X text 166 352 we change its mode \, prescaler and threshold values
\, and;
#X text 665 148 will contain: <sensor_id> <device> <address> <mode>
;
#X text 26 496 If a device was correctly initialised;
#X text 94 686 The Craft returns many values;
#X text 97 698 but we only print the first 6;
#X obj 534 103 route mycraft mybar mysquare;
#X text 26 506 then start printing its readings;
#X msg 1 383 mode mycraft raw \, prescaler mycraft 2 \, threshold mycraft
0.01 \, updateBaseline mycraft;
#X text 586 198 3 If needed \, adjust some parameters by sending to:
;
#N canvas 731 155 450 300 throttle_time 0;
#X obj 49 60 t a b;
#X obj 50 35 inlet;
#X obj 73 193 spigot;
#X obj 106 166 tgl 15 0 empty empty empty 17 7 0 10 #fcfcfc #000000
#000000 0 1;
#X obj 73 235 outlet;
#X obj 270 20 loadbang;
#X obj 156 109 timer;
#X text 96 48 Let one input through every;
#X text 304 50 ms (at least);
#X obj 227 22 bng 15 250 50 0 empty empty empty 17 7 0 10 #fcfcfc #000000
#000000;
#X obj 154 141 >;
#X obj 204 142 select 1;
#X obj 270 50 200;
#X connect 0 0 2 0;
#X connect 0 1 6 1;
#X connect 1 0 0 0;
#X connect 2 0 4 0;
#X connect 3 0 2 1;
#X connect 5 0 12 0;
#X connect 6 0 10 0;
#X connect 9 0 12 0;
#X connect 10 0 3 0;
#X connect 10 0 11 0;
#X connect 11 0 6 0;
#X connect 12 0 10 1;
#X restore 285 615 pd throttle_time;
#N canvas 731 155 450 300 throttle_time 0;
#X obj 49 60 t a b;
#X obj 50 35 inlet;
#X obj 73 193 spigot;
#X obj 106 166 tgl 15 0 empty empty empty 17 7 0 10 #fcfcfc #000000
#000000 0 1;
#X obj 73 235 outlet;
#X obj 270 20 loadbang;
#X obj 156 109 timer;
#X text 96 48 Let one input through every;
#X text 304 50 ms (at least);
#X obj 227 22 bng 15 250 50 0 empty empty empty 17 7 0 10 #fcfcfc #000000
#000000;
#X obj 154 141 >;
#X obj 204 142 select 1;
#X obj 270 50 200;
#X connect 0 0 2 0;
#X connect 0 1 6 1;
#X connect 1 0 0 0;
#X connect 2 0 4 0;
#X connect 3 0 2 1;
#X connect 5 0 12 0;
#X connect 6 0 10 0;
#X connect 9 0 12 0;
#X connect 10 0 3 0;
#X connect 10 0 11 0;
#X connect 11 0 6 0;
#X connect 12 0 10 1;
#X restore 405 572 pd throttle_time;
#X obj 89 665 pack f f f f f f;
#N canvas 731 155 450 300 throttle_time 0;
#X obj 49 60 t a b;
#X obj 50 35 inlet;
#X obj 73 193 spigot;
#X obj 106 166 tgl 15 0 empty empty empty 17 7 0 10 #fcfcfc #000000
#000000 0 1;
#X obj 73 235 outlet;
#X obj 270 20 loadbang;
#X obj 156 109 timer;
#X text 96 48 Let one input through every;
#X text 304 50 ms (at least);
#X obj 227 22 bng 15 250 50 0 empty empty empty 17 7 0 10 #fcfcfc #000000
#000000;
#X obj 154 141 >;
#X obj 204 142 select 1;
#X obj 270 50 200;
#X connect 0 0 2 0;
#X connect 0 1 6 1;
#X connect 1 0 0 0;
#X connect 2 0 4 0;
#X connect 3 0 2 1;
#X connect 5 0 12 0;
#X connect 6 0 10 0;
#X connect 9 0 12 0;
#X connect 10 0 3 0;
#X connect 10 0 11 0;
#X connect 11 0 6 0;
#X connect 12 0 10 1;
#X restore 88 628 pd throttle_time;
#X obj 610 166 print successfully created;
#X obj 34 424 s bela_setTrill @hv_param;
#X obj 598 225 s bela_setTrill @hv_param;
#X msg 33 309 new mycraft 1 CRAFT \, new mybar 1 BAR \, new mysquare
1 SQUARE;
#X connect 1 0 61 0;
#X connect 2 0 32 0;
#X connect 14 0 15 0;
#X connect 14 0 50 0;
#X connect 32 0 57 0;
#X connect 32 1 54 0;
#X connect 32 2 55 0;
#X connect 50 0 52 0;
#X connect 50 1 58 0;
#X connect 50 2 58 0;
#X connect 52 0 59 0;
#X connect 54 0 5 0;
#X connect 55 0 7 0;
#X connect 56 0 4 0;
#X connect 57 0 56 0;
#X connect 61 0 59 0;
