#N canvas 19 23 1242 699 10;
#X obj 706 25 TablePartial;
#X obj 635 488 *~;
#X obj 789 488 *~;
#X text 639 136 Table Morph;
#X obj 825 112 adc~ 10;
#X text 3 21 ===============================;
#X text 434 2 ............................;
#X text 434 12 . ____ ._____ _ .......___ .;
#X text 434 22 .| __ )| ____| |....../ _ |.;
#X text 434 42 .| |_) | |___| |___ / ___ |.;
#X text 434 62 ............................;
#X text 434 32 .| __ || __|.| |...../ _| |.;
#X text 27 153 This patch is designed to run on Salt \,;
#X text 27 163 a Eurorack module based on Bela.;
#X text 28 199 I/O:;
#X text 28 335 MIDI CC:;
#X text 434 52 .|____/|_____|_____/_/..._|.io;
#X text 28 310 Audio out 1: oscillator 1 out;
#X text 28 320 Audio out 2: oscillator 2 out;
#X text 28 355 CC 2-6 \, 8 \, 9 \, 12 \, 13 : oscillator 2 partials
;
#X text 28 345 CC 14-22 - oscillator 1 partials;
#X obj 788 515 dac~ 2;
#X obj 636 513 dac~ 1;
#X text 28 229 CV in 1: VCO 1 pitch;
#X text 28 239 CV in 2: VCO 2 pitch;
#X obj 563 207 adc~ 3;
#X text 558 187 VCO 1 pitch;
#X text 930 219 VCO 2 pitch;
#X obj 934 239 adc~ 4;
#X obj 553 329 oscillator;
#X text 3 12 DuoWave - by Cherif Hashizume - www.cherifhashizume.org
;
#X text 7 67 When the partial spread is at a minimum \, the partials
are;
#X text 7 57 Each oscillator contains a mixture of 9 partials.;
#X text 7 77 pure harmonics of the fundamental. As it increasees \,
the;
#X text 7 87 ratios between the partials increases and the sound becomes
;
#X text 882 108 Partial spread;
#X obj 825 193 spreadThePartials;
#X text 7 99 inharmonic. Two different sets of partial amplitudes are
;
#X text 8 110 available. You can morph between them \, or use MIDI
CC to;
#X text 7 121 adjust the amplitudes.;
#X obj 825 164 +~ 1;
#X obj 723 171 lop~ 100;
#X obj 663 462 lop~ 100;
#X obj 853 446 lop~ 100;
#X obj 825 137 lop~ 100;
#X text 28 209 Trig in 1: toggle VCO 1 enabled;
#X text 28 219 Trig in 2: toggle VCO 2 enabled;
#X text 28 250 CV in 3: VCO 1 level;
#X text 28 260 CV in 4: VCO 2 level;
#X text 655 404 VCO 1 amplitude;
#X text 874 395 VCO 2 amplitude;
#X text 28 270 CV in 5: VCO 1 portamento;
#X text 28 280 CV in 6: VCO 2 portamento;
#X text 257 209 (status mirrored by LED1);
#X text 256 219 (status mirrored by LED2);
#X text 7 45 DuoWave is a dual inharmonic additive oscillator;
#X obj 727 278 adc~ 7;
#X obj 1034 174 adc~ 8;
#X text 777 277 VCO 1 Portamento;
#X text 1087 170 VCO 2 Portamento;
#X obj 923 316 oscillator;
#X obj 664 431 adc~ 5;
#X obj 853 417 adc~ 6;
#X text 28 289 CV in 7: morph between partial tables;
#X text 28 299 CV in 8: partial spread;
#X obj 725 133 adc~ 9;
#X text 190 433 Initialise LEDs \, buttons and trigger inputs;
#X obj 29 433 initialise_digitals;
#N canvas 0 22 450 300 toggleWithLed1 1;
#X obj 57 78 select 1;
#X obj 58 112 tgl 15 0 empty empty empty 17 7 0 10 -262144 -1 -1 0
1;
#X obj 4 173 outlet;
#X obj 58 40 buttons;
#X obj 73 183 led-bargraph, f 54;
#X connect 0 0 1 0;
#X connect 1 0 2 0;
#X connect 1 0 4 0;
#X connect 1 0 4 1;
#X connect 1 0 4 2;
#X connect 1 0 4 3;
#X connect 1 0 4 4;
#X connect 3 0 0 0;
#X restore 642 239 pd toggleWithLed1;
#N canvas 0 22 450 300 toggleWithLed2 0;
#X obj 77 76 select 1;
#X obj 78 110 tgl 15 0 empty empty empty 17 7 0 10 -262144 -1 -1 0
1;
#X obj 24 171 outlet;
#X obj 78 38 buttons;
#X obj 93 181 led-bargraph, f 54;
#X connect 0 0 1 0;
#X connect 1 0 2 0;
#X connect 1 0 4 9;
#X connect 1 0 4 8;
#X connect 1 0 4 7;
#X connect 1 0 4 6;
#X connect 1 0 4 5;
#X connect 3 1 0 0;
#X restore 1020 244 pd toggleWithLed2;
#X connect 1 0 22 0;
#X connect 2 0 21 0;
#X connect 4 0 44 0;
#X connect 25 0 29 0;
#X connect 28 0 60 0;
#X connect 29 0 1 0;
#X connect 36 0 29 2;
#X connect 36 0 60 2;
#X connect 40 0 36 0;
#X connect 41 0 29 1;
#X connect 41 0 60 1;
#X connect 42 0 1 1;
#X connect 43 0 2 1;
#X connect 44 0 40 0;
#X connect 56 0 29 3;
#X connect 57 0 60 3;
#X connect 60 0 2 0;
#X connect 61 0 42 0;
#X connect 62 0 43 0;
#X connect 65 0 41 0;
#X connect 68 0 29 4;
#X connect 69 0 60 4;
