#N canvas 316 580 896 193 10;
#X obj 45 119 outlet;
#X obj 73 68 delay 3;
#X text 705 84 Read buttons with debounce;
#X obj 44 69 f;
#X obj 185 119 outlet;
#X obj 213 68 delay 3;
#X obj 184 69 f;
#X obj 45 36 r bela_digitalIn26;
#X obj 185 36 r bela_digitalIn25;
#X obj 335 119 outlet;
#X obj 363 68 delay 3;
#X obj 334 69 f;
#X obj 475 119 outlet;
#X obj 503 68 delay 3;
#X obj 474 69 f;
#X obj 335 36 r bela_digitalIn24;
#X obj 475 36 r bela_digitalIn23;
#X connect 1 0 3 0;
#X connect 3 0 0 0;
#X connect 5 0 6 0;
#X connect 6 0 4 0;
#X connect 7 0 1 0;
#X connect 7 0 3 1;
#X connect 8 0 5 0;
#X connect 8 0 6 1;
#X connect 10 0 11 0;
#X connect 11 0 9 0;
#X connect 13 0 14 0;
#X connect 14 0 12 0;
#X connect 15 0 10 0;
#X connect 15 0 11 1;
#X connect 16 0 13 0;
#X connect 16 0 14 1;
