#N canvas 0 0 1280 774 10;
#X obj 117 414 sig~ 1;
#X obj 123 494 sqrt~;
#X obj 124 461 -~;
#X obj 212 491 sqrt~;
#X obj 26 520 *~;
#X obj 277 526 *~;
#X obj 29 650 outlet~;
#X text 536 56 table morph;
#X obj 345 38 inlet~;
#X text 397 37 pitch in;
#X obj 333 126 mtof~;
#X obj 320 179 lop~ 100;
#X obj 482 52 inlet~;
#X obj 959 201 inlet;
#X text 1016 193 enable;
#X obj 939 310 switch~;
#X obj 975 252 loadbang;
#X msg 975 277 1;
#X text 574 153 partial spread;
#X obj 518 150 inlet;
#X obj -1 462 Oscbank 1;
#X obj 343 503 Oscbank 2;
#X obj 333 93 *~ 120;
#X text 384 87 Assuming a 10V pk-to-pk input;
#X text 384 97 this becomes a 1V/oct scaling;
#X obj 784 150 inlet~;
#X obj 796 184 bang~;
#X obj 772 212 snapshot~;
#X text 846 145 Portamento;
#X obj 726 346 /;
#X obj 705 201 loadbang;
#X obj 708 409 nbx 10 14 -1e+37 1e+37 0 0 empty empty empty 0 -8 0
10 -262144 -1 -1 0.1998 256;
#X obj 756 268 t b a;
#X obj 760 247 * 1;
#X obj 771 303 + 0.001;
#X obj 703 301 f 0.2;
#X connect 0 0 2 0;
#X connect 1 0 4 1;
#X connect 2 0 1 0;
#X connect 3 0 5 1;
#X connect 4 0 6 0;
#X connect 5 0 6 0;
#X connect 8 0 22 0;
#X connect 10 0 11 0;
#X connect 11 0 20 0;
#X connect 11 0 21 0;
#X connect 12 0 2 1;
#X connect 12 0 3 0;
#X connect 13 0 15 0;
#X connect 16 0 17 0;
#X connect 17 0 15 0;
#X connect 19 0 20 1;
#X connect 19 0 21 1;
#X connect 20 0 4 0;
#X connect 21 0 5 0;
#X connect 22 0 10 0;
#X connect 25 0 27 0;
#X connect 26 0 27 0;
#X connect 27 0 33 0;
#X connect 29 0 11 1;
#X connect 29 0 31 0;
#X connect 30 0 35 0;
#X connect 32 0 35 0;
#X connect 32 1 34 0;
#X connect 33 0 32 0;
#X connect 34 0 29 1;
#X connect 35 0 29 0;
