#N canvas 298 146 952 503 10;
#X text 278 51 Trig in 1: 26;
#X text 278 61 Trig in 2: 25;
#X text 278 71 Trig in 3: 12;
#X text 278 81 Trig in 4: 14;
#X text 278 40 Switch 1: 17;
#X obj 412 222 s bela_setDigital @hv_param;
#X obj 401 65 loadbang;
#X obj 401 89 f \$1;
#X obj 401 114 select 1 2 3 4;
#X msg 396 149 26;
#X msg 438 152 25;
#X msg 487 153 12;
#X msg 525 150 14;
#X msg 364 149 17;
#X msg 412 197 in \$1 ~;
#X obj 158 379 outlet~;
#X obj 118 269 *~ 0;
#X obj 74 257 *~ 0;
#X obj 204 287 *~ 0;
#X obj 160 275 *~ 0;
#X msg 98 226 1;
#X msg 142 238 1;
#X msg 182 239 1;
#X msg 230 258 1;
#X obj 71 139 adc~ 26 25 12 14;
#X obj 32 169 adc~ 17;
#X connect 6 0 7 0;
#X connect 7 0 8 0;
#X connect 8 0 9 0;
#X connect 8 0 13 0;
#X connect 8 0 20 0;
#X connect 8 1 10 0;
#X connect 8 1 21 0;
#X connect 8 2 11 0;
#X connect 8 2 22 0;
#X connect 8 3 12 0;
#X connect 8 3 23 0;
#X connect 9 0 14 0;
#X connect 10 0 14 0;
#X connect 11 0 14 0;
#X connect 12 0 14 0;
#X connect 13 0 14 0;
#X connect 14 0 5 0;
#X connect 16 0 15 0;
#X connect 17 0 15 0;
#X connect 18 0 15 0;
#X connect 19 0 15 0;
#X connect 20 0 17 1;
#X connect 21 0 16 1;
#X connect 22 0 19 1;
#X connect 23 0 18 1;
#X connect 24 0 17 0;
#X connect 24 1 16 0;
#X connect 24 2 19 0;
#X connect 24 3 18 0;
#X connect 25 0 17 0;
