#N canvas 275 31 865 612 10;
#X obj 78 143 samplerate~;
#X obj 78 123 loadbang;
#X obj 33 239 rpole~;
#X obj 33 97 sig~ 1;
#X obj 438 191 sig~ 0.5;
#X obj 33 421 *~ 512;
#X obj 33 259 clip~ 0 1;
#X obj 33 400 *~;
#X obj 48 356 sig~ 1;
#X obj 48 379 /~;
#X obj 112 356 clip~ 1e-05 100000;
#X text 513 141 differentiator;
#X text 512 159 (generates impulse on positive trigger (0->1);
#X text 107 240 signal-rate counter;
#X text 497 238 rpole~ coeff to 0;
#X obj 112 312 *~;
#X obj 112 334 *~ 0.25;
#X obj 444 127 sig~ 1;
#X text 497 250 (coefficient of 1 causes rpole~ to;
#X text 497 263 accumulate input samples);
#X text 108 162 setting input to (1/sampleRate) means;
#X text 108 175 rpole~ counts seconds when its coefficient;
#X text 108 189 is set to 1 (resets when 0);
#X text 188 436 use envelope value for volume and frequency;
#X text 479 214 -> boolean (x != x);
#X text 111 387 multiplies counter output allowing to alter;
#X text 111 401 playback speed of envelope;
#X text 497 227 resets counter by briefly setting;
#X obj 401 20 inlet~;
#X obj 30 503 outlet~;
#X obj 124 270 inlet~;
#X obj 33 442 tabread4~ envTab;
#X obj 399 212 hv_lte~;
#X obj 399 148 rzero~ 1;
#X obj 33 163 /~;
#X connect 0 0 34 1;
#X connect 1 0 0 0;
#X connect 2 0 6 0;
#X connect 3 0 34 0;
#X connect 4 0 32 1;
#X connect 5 0 31 0;
#X connect 6 0 7 0;
#X connect 7 0 5 0;
#X connect 8 0 9 0;
#X connect 9 0 7 1;
#X connect 10 0 9 1;
#X connect 15 0 16 0;
#X connect 16 0 10 0;
#X connect 17 0 33 1;
#X connect 28 0 33 0;
#X connect 30 0 15 0;
#X connect 30 0 15 1;
#X connect 31 0 29 0;
#X connect 32 0 2 1;
#X connect 33 0 32 0;
#X connect 34 0 2 0;
