#N canvas 0 23 1061 508 10;
#N canvas 0 22 1265 524 (subpatch) 0;
#X array VOICE1 30000 float 0;
#X coords 0 1 29999 -1 200 140 1 0 0;
#X restore 100 52 graph;
#N canvas 0 22 450 278 (subpatch) 0;
#X array VOICE2 30000 float 0;
#X coords 0 1 29999 -1 200 140 1;
#X restore 340 52 graph;
#N canvas 0 22 450 278 (subpatch) 0;
#X array VOICE3 30000 float 0;
#X coords 0 1 29999 -1 200 140 1;
#X restore 576 52 graph;
#N canvas 0 22 450 278 (subpatch) 0;
#X array VOICE4 30000 float 0;
#X coords 0 1 29999 -1 200 140 1;
#X restore 794 52 graph;
#X obj 300 238 loadbang;
#X obj 360 447 soundfiler;
#X msg 300 260 read -resize Wave1.wav VOICE1;
#X msg 418 333 read -resize Wave3.wav VOICE3;
#X msg 448 362 read -resize Wave4.wav VOICE4;
#X msg 386 301 read -resize Wave2.wav VOICE2;
#X connect 4 0 6 0;
#X connect 4 0 7 0;
#X connect 4 0 8 0;
#X connect 4 0 9 0;
#X connect 6 0 5 0;
#X connect 7 0 5 0;
#X connect 8 0 5 0;
#X connect 9 0 5 0;
