#N canvas 0 22 1405 715 10;
#X obj 497 106 s bela_setDigital;
#X obj 497 50 loadbang;
#X obj 497 187 s bela_setDigital;
#X obj 497 140 loadbang;
#X obj 41 358 phasor~ 2000;
#X obj 41 399 expr~ $v1 < $v2;
#X text 151 401 <<< PWM signal with variable duty cycle;
#X msg 497 72 out 17 ~ \, out 18 ~ \, out 21 ~ \, out 13 ~ \, out 14
~ \, out 11 ~ \, out 12 ~ \, out 15 ~ \, out 16 ~ \, out 19 ~, f 79
;
#X text 798 46 Initialise the LED pins at signal rate;
#X obj 128 288 adc~ 3;
#X obj 41 464 dac~ 17 18;
#X obj 480 471 dac~ 21 13;
#X obj 676 472 dac~ 14 11;
#X obj 872 473 dac~ 12 15;
#X obj 1073 473 dac~ 16 19;
#X obj 134 465 dac~ 3;
#X obj 128 331 *~ 0.5;
#X obj 478 366 phasor~ 2000;
#X obj 478 407 expr~ $v1 < $v2;
#X obj 565 296 adc~ 4;
#X obj 565 339 *~ 1;
#X obj 571 473 dac~ 4;
#X obj 675 366 phasor~ 2000;
#X obj 675 407 expr~ $v1 < $v2;
#X obj 768 473 dac~ 5;
#X obj 762 297 adc~ 5;
#X obj 762 339 *~ 2;
#X obj 875 366 phasor~ 2000;
#X obj 875 407 expr~ $v1 < $v2;
#X obj 962 339 *~ 4;
#X obj 968 473 dac~ 6;
#X obj 962 297 adc~ 6;
#X obj 1074 366 phasor~ 2000;
#X obj 1074 407 expr~ $v1 < $v2;
#X obj 1167 473 dac~ 7;
#X obj 1161 297 adc~ 7;
#X obj 1161 339 *~ 6;
#X obj 478 567 adc~ 8;
#N canvas 0 22 450 300 selector 0;
#X obj 37 37 inlet~;
#X obj 173 54 metro 20;
#X obj 188 32 loadbang;
#X obj 37 79 snapshot~;
#X obj 37 120 i;
#X obj 37 141 change;
#X obj 37 162 outlet;
#X obj 37 100 * 3;
#X msg 118 142 0;
#X connect 0 0 3 0;
#X connect 1 0 3 0;
#X connect 2 0 1 0;
#X connect 2 0 8 0;
#X connect 3 0 7 0;
#X connect 4 0 5 0;
#X connect 5 0 6 0;
#X connect 7 0 4 0;
#X connect 8 0 6 0;
#X restore 478 588 pd selector;
#X obj 478 609 send waveform;
#X obj 129 356 waveform;
#X obj 963 361 waveform;
#X obj 763 361 waveform;
#X obj 566 361 waveform;
#X obj 1162 361 waveform;
#X text 575 566 Pot 6 controls waveform;
#X obj 868 567 adc~ 9;
#N canvas 0 22 450 300 clock-offset 0;
#X obj 37 17 inlet~;
#X obj 37 82 outlet~;
#X obj 37 58 *~ 2;
#X connect 0 0 2 0;
#X connect 2 0 1 0;
#X restore 868 588 pd clock-offset;
#X obj 128 309 +~;
#X obj 184 297 r~ clock-offset;
#X obj 868 609 s~ clock-offset;
#X obj 565 317 +~;
#X obj 762 318 +~;
#X obj 962 318 +~;
#X obj 1161 318 +~;
#X obj 614 307 r~ clock-offset;
#X obj 814 307 r~ clock-offset;
#X obj 1014 307 r~ clock-offset;
#X obj 1214 307 r~ clock-offset;
#X text 975 566 Pot 7 controls overall speed;
#X msg 497 162 in 25 \, in 26 \, in 24 \, in 23 \, in 22 \, in 20;
#X text 806 161 Initialise the buttons and trigger ins;
#X text 201 421 this allows us to fade the LEDs;
#X text 608 337 freq multiplier;
#X text 808 337 freq multiplier;
#X text 1008 337 freq multiplier;
#X text 1208 337 freq multiplier;
#X text 575 586 sinewave | rampup | rampdown | square;
#X text 28 34 ==============;
#X text 28 24 LFO Playground;
#X text 28 54 This patch sends an LFO to the first 5 CV out channels
;
#X text 28 74 of PEPPER. The first 5 pots control the freq of the LFOs
\,;
#X text 28 94 with freq ranges increasing as we go down the pots.;
#X text 28 134 set the digital outputs at audio rate so we can use
PWM;
#X text 28 154 to fade them in and out.;
#X text 28 194 Pot 6 swtiches between different waveforms: sine \,
rampup \,;
#X text 28 214 rampdown and square. Pot 7 controls the overall speed.
;
#X text 28 114 The LFOs are visualised on the LED bargraph. Note that
we;
#X connect 1 0 7 0;
#X connect 3 0 60 0;
#X connect 4 0 5 0;
#X connect 5 0 10 0;
#X connect 5 0 10 1;
#X connect 7 0 0 0;
#X connect 9 0 48 0;
#X connect 16 0 40 0;
#X connect 17 0 18 0;
#X connect 18 0 11 0;
#X connect 18 0 11 1;
#X connect 19 0 51 0;
#X connect 20 0 43 0;
#X connect 22 0 23 0;
#X connect 23 0 12 0;
#X connect 23 0 12 1;
#X connect 25 0 52 0;
#X connect 26 0 42 0;
#X connect 27 0 28 0;
#X connect 28 0 13 0;
#X connect 28 0 13 1;
#X connect 29 0 41 0;
#X connect 31 0 53 0;
#X connect 32 0 33 0;
#X connect 33 0 14 0;
#X connect 33 0 14 1;
#X connect 35 0 54 0;
#X connect 36 0 44 0;
#X connect 37 0 38 0;
#X connect 38 0 39 0;
#X connect 40 0 5 1;
#X connect 40 0 15 0;
#X connect 41 0 28 1;
#X connect 41 0 30 0;
#X connect 42 0 23 1;
#X connect 42 0 24 0;
#X connect 43 0 18 1;
#X connect 43 0 21 0;
#X connect 44 0 33 1;
#X connect 44 0 34 0;
#X connect 46 0 47 0;
#X connect 47 0 50 0;
#X connect 48 0 16 0;
#X connect 49 0 48 1;
#X connect 51 0 20 0;
#X connect 52 0 26 0;
#X connect 53 0 29 0;
#X connect 54 0 36 0;
#X connect 55 0 51 1;
#X connect 56 0 52 1;
#X connect 57 0 53 1;
#X connect 58 0 54 1;
#X connect 60 0 2 0;
