#N canvas 0 22 651 322 10;
#X obj 359 88 receive waveform;
#X obj 142 26 inlet~;
#X obj 42 90 osc~;
#X obj 112 90 phasor~;
#X obj 262 90 phasor~;
#X obj 262 111 expr~ $v1 > 0.5;
#X obj 42 112 +~ 1;
#X obj 42 133 *~ 0.5;
#X obj 360 118 == 0;
#X obj 400 118 == 1;
#X obj 440 118 == 2;
#X obj 42 174 *~;
#X obj 112 174 *~;
#X obj 262 174 *~;
#X obj 142 230 outlet~;
#X obj 480 118 == 3;
#X obj 182 90 phasor~;
#X obj 182 174 *~;
#X obj 182 111 *~ -1;
#X obj 182 132 +~ 1;
#X connect 0 0 8 0;
#X connect 0 0 9 0;
#X connect 0 0 10 0;
#X connect 0 0 15 0;
#X connect 1 0 2 0;
#X connect 1 0 3 0;
#X connect 1 0 4 0;
#X connect 1 0 16 0;
#X connect 2 0 6 0;
#X connect 3 0 12 0;
#X connect 4 0 5 0;
#X connect 5 0 13 0;
#X connect 6 0 7 0;
#X connect 7 0 11 0;
#X connect 8 0 11 1;
#X connect 9 0 12 1;
#X connect 10 0 17 1;
#X connect 11 0 14 0;
#X connect 12 0 14 0;
#X connect 13 0 14 0;
#X connect 15 0 13 1;
#X connect 16 0 18 0;
#X connect 17 0 14 0;
#X connect 18 0 19 0;
#X connect 19 0 17 0;
