#N canvas 646 723 282 303 10;
#X obj 30 32 inlet~;
#X obj 218 133 wrap~;
#X obj 124 113 +~ 1;
#X obj 30 258 outlet~;
#X obj 124 157 *~;
#X obj 30 225 +~;
#X obj 30 186 *~;
#X obj 218 159 *~ -1;
#X obj 218 182 +~ 1;
#X obj 30 157 tabread~ \$1;
#X obj 124 133 tabread~ \$1;
#X connect 0 0 2 0;
#X connect 0 0 9 0;
#X connect 1 0 4 1;
#X connect 1 0 7 0;
#X connect 2 0 10 0;
#X connect 2 0 1 0;
#X connect 4 0 5 1;
#X connect 5 0 3 0;
#X connect 6 0 5 0;
#X connect 7 0 8 0;
#X connect 8 0 6 1;
#X connect 9 0 6 0;
#X connect 10 0 4 0;
