#N canvas 1270 159 410 827 10;
#X obj 22 393 *~;
#X obj 21 475 +~;
#X obj 105 368 samphold~;
#X obj 104 448 samphold~;
#X text 38 256 velocity;
#X obj 21 628 *~;
#X obj 104 583 *~;
#X obj 105 328 r~ \$1-sampleSize;
#X obj 105 408 r~ \$1-sampleStart;
#X obj 21 62 r~ \$1-sampleRateDivBySampleSize;
#X obj 41 83 r~ \$1-velocity;
#X obj 21 769 throw~ \$1-out;
#X obj 21 733 *~;
#X obj 104 706 samphold~;
#X obj 104 686 *~;
#X obj 118 666 r~ \$1-density;
#X text 21 13 sampling grain;
#X text 21 23 --------------;
#X obj 119 563 r~ \$1-envSize;
#X obj 310 65 noise~;
#X obj 310 86 *~ 0.5;
#X obj 310 107 +~ 0.5;
#X obj 310 128 s~ \$0-noise01;
#X obj 104 646 r~ \$0-noise01;
#N canvas 1216 719 178 128 variation 0;
#X obj 14 15 inlet~;
#X obj 14 76 +~;
#X obj 44 36 *~;
#X obj 59 15 noise~;
#X obj 14 97 outlet~;
#X obj 44 57 *~;
#X obj 70 36 r~ \$1-variation;
#X connect 0 0 1 0;
#X connect 0 0 2 0;
#X connect 1 0 4 0;
#X connect 2 0 5 0;
#X connect 3 0 2 1;
#X connect 5 0 1 1;
#X connect 6 0 5 1;
#X restore 105 348 pd variation;
#N canvas 1216 719 178 127 variation 0;
#X obj 14 15 inlet~;
#X obj 14 76 +~;
#X obj 44 36 *~;
#X obj 59 15 noise~;
#X obj 14 97 outlet~;
#X obj 44 57 *~;
#X obj 70 36 r~ \$1-variation;
#X connect 0 0 1 0;
#X connect 0 0 2 0;
#X connect 1 0 4 0;
#X connect 2 0 5 0;
#X connect 3 0 2 1;
#X connect 5 0 1 1;
#X connect 6 0 5 1;
#X restore 105 428 pd variation;
#N canvas 1216 719 178 90 variation 0;
#X obj 14 15 inlet~;
#X obj 14 76 +~;
#X obj 44 36 *~;
#X obj 59 15 noise~;
#X obj 14 97 outlet~;
#X obj 44 57 *~;
#X obj 70 36 r~ \$1-variation;
#X connect 0 0 1 0;
#X connect 0 0 2 0;
#X connect 1 0 4 0;
#X connect 2 0 5 0;
#X connect 3 0 2 1;
#X connect 5 0 1 1;
#X connect 6 0 5 1;
#X restore 41 103 pd variation;
#X obj 133 287 s~ \$0-trig;
#X obj 41 133 samphold~;
#X obj 137 118 r~ \$0-trig;
#X obj 223 62 loadbang;
#X msg 223 83 set 1;
#X obj 21 541 tabread4~ buf;
#X obj 104 603 k.tabread2~ env;
#X text 206 600 (todo: parameterise envelope);
#X obj 21 510 clip~ 0 1;
#X obj 72 490 r \$1-bufSize;
#X obj 41 174 r~ \$1-bufSampleRateDivBySampleRate;
#X obj 21 272 phasor~ 1;
#X obj 21 194 *~;
#X obj 21 153 *~;
#X obj 21 228 clip~ 0.1 88;
#X connect 0 0 1 0;
#X connect 1 0 35 0;
#X connect 2 0 0 1;
#X connect 3 0 1 1;
#X connect 5 0 12 0;
#X connect 6 0 33 0;
#X connect 7 0 24 0;
#X connect 8 0 25 0;
#X connect 9 0 40 0;
#X connect 10 0 26 0;
#X connect 12 0 11 0;
#X connect 13 0 12 1;
#X connect 14 0 13 0;
#X connect 15 0 14 1;
#X connect 18 0 6 1;
#X connect 19 0 20 0;
#X connect 20 0 21 0;
#X connect 21 0 22 0;
#X connect 23 0 14 0;
#X connect 24 0 2 0;
#X connect 25 0 3 0;
#X connect 26 0 28 0;
#X connect 28 0 40 1;
#X connect 29 0 28 1;
#X connect 30 0 31 0;
#X connect 31 0 28 0;
#X connect 32 0 5 0;
#X connect 33 0 5 1;
#X connect 35 0 32 0;
#X connect 36 0 35 2;
#X connect 37 0 39 1;
#X connect 38 0 0 0;
#X connect 38 0 6 0;
#X connect 38 0 2 1;
#X connect 38 0 3 1;
#X connect 38 0 13 1;
#X connect 38 0 27 0;
#X connect 39 0 41 0;
#X connect 40 0 39 0;
#X connect 41 0 38 0;
