#N canvas -2 4 1280 770 10;
#N canvas 0 22 450 278 (subpatch) 0;
#X array \$0-table1 449372 float 2;
#X coords 0 1 449372 -1 200 140 1 0 0;
#X restore 635 599 graph;
#X obj 166 673 dac~;
#X obj 42 512 lop~ 1;
#X text 20 28 Load sample into table and scrub using analog input;
#X text 20 38 ===================================================;
#X text 104 513 <<< avoid zipper noise;
#X text 86 470 <<< analog input 0 (range 0-1);
#X text 226 97 <<< loading a file:;
#X text 226 117 point soundfiler to the samples folder;
#X obj 42 573 *~;
#X text 104 573 <<< multiply by sample length;
#X text 349 470 <<< analog input 1 (range 0-1);
#X obj 306 572 *~;
#X text 375 513 <<< avoid zipper noise;
#X text 375 573 <<< multiply by sample length;
#X obj 57 547 r sampleLength1;
#X obj 321 546 r sampleLength2;
#X obj 42 594 tabread4~ exampleTable1;
#X obj 306 593 tabread4~ exampleTable2;
#N canvas 0 22 450 278 (subpatch) 0;
#X array \$0-table2 65238 float 2;
#X coords 0 1 65238 -1 200 140 1 0 0;
#X restore 842 599 graph;
#X obj 19 146 soundfiler;
#X obj 19 64 loadbang;
#X obj 19 170 s sampleLength2;
#X text 225 162 <<< If you include your own samples in the project
;
#X text 101 426 Connect two potentiometers to analog in 0 and 1;
#X text 974 16 ............................;
#X text 974 26 . ____ ._____ _ .......___ .;
#X text 974 36 .| __ )| ____| |....../ _ |.;
#X text 974 56 .| |_) | |___| |___ / ___ |.;
#X text 974 66 .|____/|_____|_____/_/..._|.io;
#X text 974 76 ............................;
#X text 974 46 .| __ || __|.| |...../ _| |.;
#X text 226 137 name_of_file.wav;
#X obj 305 471 adc~ 7;
#X obj 306 511 lop~ 2;
#X obj 42 469 adc~ 6;
#X msg 19 118 read -resize rt.wav \$1-table1;
#X obj 19 89 \$1;
#X text 226 60 \$0-table1 contains a sample from file;
#X text 596 57 We can record into \$0-table2 from the audio input;
#X text 595 71 \$0-table2 can store up to 10 seconds of audio at 44100kHz.
;
#X obj 658 159 s bela_setDigital;
#X obj 659 116 loadbang;
#X msg 658 137 in 11 message;
#X text 596 89 Initialize Bela digital: use digital 0 as an input;
#X text 225 182 just change the path to the file name;
#X obj 711 230 r bela_digitalIn11;
#X obj 711 257 delay 3;
#X obj 710 279 f;
#X obj 710 300 tgl 15 0 empty empty empty 17 7 0 10 -262144 -1 -1 0
1;
#X obj 710 319 select 1 0;
#X obj 811 424 timer;
#X msg 712 378 stop;
#X text 599 427 Record the input to the table;
#X obj 582 243 adc~ 1;
#X text 1043 262 Simple sampler: press and play;
#X text 701 209 Receive the button value as it changes;
#X text 740 281 debounce for 3ms;
#X text 830 246 0: non-pressed;
#X text 830 262 1: pressed;
#X text 890 291 Connect a button to bela digital 0 (P8_07). Hold press
the button to record. Release it to start looping. Use a pull-down
resistor to ground for the pin and wire it so that when the button
is not pressed P8_07 is low and it goes high when you press it. Connect
your sound source to the left audio input. You can adjust the input
gain by starting the patch with --pga-gain-left=xx where xx is the
input gain in dB;
#X obj 637 407 tabwrite~ \$0-table2;
#X obj 812 448 s sampleLength2;
#X obj 558 279 dac~ 27;
#X text 518 261 Send input to scope channel 1;
#X text 859 419 timer returns the duration of the recorded sample;
#X text 858 430 (interval between start and stop);
#X connect 2 0 9 0;
#X connect 9 0 17 0;
#X connect 12 0 18 0;
#X connect 15 0 9 1;
#X connect 16 0 12 1;
#X connect 17 0 1 0;
#X connect 17 0 1 1;
#X connect 18 0 1 0;
#X connect 18 0 1 1;
#X connect 20 0 22 0;
#X connect 21 0 37 0;
#X connect 33 0 34 0;
#X connect 34 0 12 0;
#X connect 35 0 2 0;
#X connect 36 0 20 0;
#X connect 37 0 36 0;
#X connect 42 0 43 0;
#X connect 43 0 41 0;
#X connect 46 0 48 1;
#X connect 46 0 47 0;
#X connect 47 0 48 0;
#X connect 48 0 49 0;
#X connect 49 0 50 0;
#X connect 50 0 51 0;
#X connect 50 0 61 0;
#X connect 50 1 52 0;
#X connect 50 1 51 1;
#X connect 51 0 62 0;
#X connect 52 0 61 0;
#X connect 54 0 61 0;
#X connect 54 0 63 0;
