#N canvas 0 23 1280 751 10;
#X obj 86 502 dac~ 27 28 29 30;
#X obj 805 24 loadbang;
#X text 663 33 CORE;
#X text 626 57 Audio left: adc~/dac~ 1;
#X text 626 67 Audio right: adc~/dac~ 2;
#X text 626 77 Analog 1: adc~/dac~ 3;
#X text 626 87 Analog 2: adc~/dac~ 4;
#X text 626 97 Analog 3: adc~/dac~ 5;
#X obj 818 267 loadbang;
#X text 663 243 EXPANDER;
#X text 626 267 Analog 4: adc~/dac~ 7;
#X text 626 277 Analog 5: adc~/dac~ 8;
#X text 626 287 Analog 6: adc~/dac~ 9;
#X text 626 297 Analog 7: adc~/dac~ 10;
#X obj 95 209 adc~ 3 4 5 6 7 8 9 10;
#X obj 94 273 dac~ 3 4 5 6 7 8 9 10;
#X obj 818 311 s bela_setDigital @hv_param;
#X obj 805 83 s bela_setDigital @hv_param;
#X obj 181 406 *~ 0.99;
#X obj 253 413 *~ 0.99;
#X text 626 117 Trig in 1: adc~ 26;
#X text 626 127 Trig in 2: adc~ 25;
#X obj 42 416 *~ 0.99;
#X obj 116 413 *~ 0.99;
#X text 626 157 Switch 1: adc~ 17;
#X text 626 167 LED 1: dac~ 13;
#X text 626 177 LED 2: dac~ 15;
#X msg 805 47 in 26 ~ \, in 25 ~ \, out 11 ~ \, out 16 ~ \, in 17 ~
\, out 13 ~ \, out 15 ~ \, out 18 ~ \, out 21 ~;
#X obj 773 553 dac~ 18 21;
#X text 782 383 Drive PWM;
#X text 604 10 BelaModular rev02;
#X obj 784 478 phasor~;
#X obj 784 432 samplerate~;
#X obj 784 454 / 2;
#X obj 784 407 loadbang;
#X obj 944 394 phasor~ 1;
#X text 930 371 Drive LEDs;
#X text 626 107 Analog 4: adc~/dac~ 6;
#X text 626 307 Trig in 3: adc~ 12;
#X text 626 317 Trig in 4: adc~ 14;
#X text 626 147 Trig out 2: dac~ 16;
#X text 626 327 Trig out 1: dac~ 23;
#X text 626 337 Trig out 2: dac~ 24;
#X text 626 137 Trig out 1: dac~ 11;
#X obj 934 573 dac~ 13 15 19 20;
#X obj 944 445 expr~ $v1*1.25-0.25;
#X msg 818 289 in 12 ~ \, in 14 ~ \, out 23 ~ \, out 24 ~ \, out 19
~ \, out 20 ~;
#X obj 784 500 expr~ $v1>0.25;
#X obj 944 490 expr~ $v1>0 \; $v1>0.25 \; $v1>0.5 \; $v1>0.75;
#X text 108 176 Loopback analogs;
#X text 309 184 Loopback digitals;
#X obj 313 209 adc~ 26 25 12 14;
#X obj 313 259 dac~ 11 16 23 24;
#X text 49 372 Send something to the scope;
#X obj 325 125 adc~ 17;
#X text 933 420 Connect these to sequence the LEDs;
#X obj 443 411 dac~ 13 15 19 20;
#X text 459 375 And send digital ins;
#X text 459 385 to LEDs;
#X text 321 70 This is switch 1 \, which;
#X text 321 90 All the other switches are;
#X text 321 80 is NOT connected to Trig in 1;
#X text 321 110 corresponding Trig in.;
#X text 321 100 connected "OR wired" to the;
#X text 320 432 The above just toggles between red and yellow.;
#X text 320 452 the corresponding pin an input \, e.g.:;
#X obj 383 499 s bela_setDigital @hv_param;
#X msg 383 475 in 19;
#X text 626 347 LED 3: dac~ 19;
#X text 626 357 LED 4: dac~ 20;
#X text 626 187 PWM_A: dac~ 18 (drives LED1 and LED3);
#X text 626 197 PWM_B: dac~ 21 (drives LED2 and LED4);
#X text 316 523 Alternatively \, you can turn off the PWM and simply
;
#X text 316 543 The constant value you send out of the PWM pin will
;
#X text 316 553 determine the color of the LED (and which of "high"
;
#X text 320 442 In order to turn off an LED you have to make;
#X text 316 533 set the pin high or low to turn it on or off.;
#X text 316 563 or "low" turns it on or off).;
#X connect 1 0 27 0;
#X connect 8 0 46 0;
#X connect 14 0 15 0;
#X connect 14 0 22 0;
#X connect 14 1 15 1;
#X connect 14 2 15 2;
#X connect 14 3 15 3;
#X connect 14 4 15 4;
#X connect 14 4 23 0;
#X connect 14 5 15 5;
#X connect 14 6 15 6;
#X connect 14 7 15 7;
#X connect 18 0 0 2;
#X connect 19 0 0 3;
#X connect 22 0 0 0;
#X connect 23 0 0 1;
#X connect 27 0 17 0;
#X connect 31 0 47 0;
#X connect 32 0 33 0;
#X connect 33 0 31 0;
#X connect 34 0 32 0;
#X connect 45 0 48 0;
#X connect 46 0 16 0;
#X connect 47 0 28 0;
#X connect 47 0 28 1;
#X connect 48 0 44 0;
#X connect 48 1 44 1;
#X connect 48 2 44 2;
#X connect 48 3 44 3;
#X connect 51 0 52 0;
#X connect 51 0 18 0;
#X connect 51 0 56 0;
#X connect 51 1 52 1;
#X connect 51 1 56 1;
#X connect 51 2 52 2;
#X connect 51 2 19 0;
#X connect 51 2 56 2;
#X connect 51 3 52 3;
#X connect 51 3 56 3;
#X connect 67 0 66 0;
