#N canvas 90 67 1154 620 10;
#X obj 344 357 dac~ 27 28 29 30;
#X obj 765 8 loadbang;
#X text 645 17 CORE;
#X text 608 41 Audio left: adc~/dac~ 1;
#X text 608 51 Audio right: adc~/dac~ 2;
#X text 608 61 Analog 1: adc~/dac~ 3;
#X text 608 71 Analog 2: adc~/dac~ 4;
#X text 608 81 Analog 3: adc~/dac~ 5;
#X text 608 91 Analog 4: adc~/dac~ 6;
#X text 608 111 Trig in 2: adc~ 12;
#X text 608 101 Trig in 1: adc~ 11;
#X text 608 121 Trig out 1: dac~ 13;
#X text 608 131 Trig out 2: dac~ 14;
#X text 608 141 LED 1: dac~ 15;
#X text 608 151 LED 2: dac~ 16;
#X obj 765 248 loadbang;
#X text 645 227 EXPANDER;
#X text 608 251 Analog 4: adc~/dac~ 7;
#X text 608 261 Analog 5: adc~/dac~ 8;
#X text 608 271 Analog 6: adc~/dac~ 9;
#X text 608 281 Analog 7: adc~/dac~ 10;
#X obj 52 105 adc~ 1 2;
#X obj 51 142 dac~ 1 2;
#X obj 139 148 adc~ 3 4 5 6 7 8 9 10;
#X obj 131 255 dac~ 3 4 5 6 7 8 9 10;
#X text 142 124 Loopback analogs;
#X text 45 71 Loopback audio;
#X text 308 182 Loopback digitals;
#X text 449 197 Send digital ins to LEDS;
#X text 289 383 Send something to the scope;
#X msg 765 31 in 11 ~ \, in 12 ~ \, out 13 ~ \, out 14 ~ \, out 15
~ \, out 16 ~;
#X text 608 291 Trig in 3: adc~ 23;
#X text 608 301 Trig in 4: adc~ 24;
#X text 608 311 Trig out 3: dac~ 25;
#X text 608 321 Trig out 4: dac~ 26;
#X text 608 331 LED 1: dac~ 19;
#X text 608 341 LED 2: dac~ 20;
#X msg 765 272 in 23 ~ \, in 24 ~ \, out 25 ~ \, out 26 ~ \, out 19
~ \, out 20 ~;
#X obj 437 218 dac~ 15 16 19 20;
#X obj 304 213 dac~ 13 14 25 26;
#X obj 385 99 adc~ 11 12 23 24;
#X obj 765 297 s bela_setDigital @hv_param;
#X obj 765 57 s bela_setDigital @hv_param;
#X connect 1 0 30 0;
#X connect 15 0 37 0;
#X connect 21 0 22 0;
#X connect 21 1 22 1;
#X connect 23 0 0 0;
#X connect 23 0 24 0;
#X connect 23 1 24 1;
#X connect 23 2 24 2;
#X connect 23 3 24 3;
#X connect 23 4 0 1;
#X connect 23 4 24 4;
#X connect 23 5 24 5;
#X connect 23 6 24 6;
#X connect 23 7 24 7;
#X connect 30 0 42 0;
#X connect 37 0 41 0;
#X connect 40 0 0 2;
#X connect 40 0 38 0;
#X connect 40 0 39 0;
#X connect 40 1 38 1;
#X connect 40 1 39 1;
#X connect 40 2 0 3;
#X connect 40 2 38 2;
#X connect 40 2 39 2;
#X connect 40 3 38 3;
#X connect 40 3 39 3;
