#N canvas 0 23 1280 751 10;
#X text 626 57 Audio left: adc~/dac~ 1;
#X text 626 67 Audio right: adc~/dac~ 2;
#X obj 95 209 adc~ 3 4 5 6 7 8 9 10;
#X obj 94 273 dac~ 3 4 5 6 7 8 9 10;
#X obj 181 406 *~ 0.99;
#X obj 253 413 *~ 0.99;
#X text 626 117 Trig in 1: adc~ 26;
#X text 626 127 Trig in 2: adc~ 25;
#X obj 42 416 *~ 0.99;
#X obj 116 413 *~ 0.99;
#X text 626 157 Switch 1: adc~ 17;
#X text 626 167 LED 1: dac~ 13;
#X text 626 177 LED 2: dac~ 15;
#X text 860 98 Trig in 3: adc~ 12;
#X text 859 108 Trig in 4: adc~ 14;
#X text 626 147 Trig out 2: dac~ 16;
#X text 626 137 Trig out 1: dac~ 11;
#X text 108 176 Loopback analogs;
#X text 49 372 Send something to the scope;
#X text 859 138 LED 3: dac~ 19;
#X text 859 148 LED 4: dac~ 20;
#X obj 461 308 metro 200;
#X obj 461 284 loadbang;
#X text 398 420 Toggle yellow LEDs;
#X obj 469 397 * 2;
#X obj 470 358 tgl 15 0 empty empty empty 17 7 0 10 -262144 -1 -1 1
1;
#X obj 990 403 *~;
#X text 553 527 This needs to be somewhere in the patch;
#X text 553 539 for the LEDs to work;
#X obj 990 646 phasor~ 600;
#X obj 957 349 osc~ 200;
#X text 1041 382 Use audio-rate trig input 4;
#X text 509 639 Control-rate trigOut;
#X text 790 622 Audio-rate trigOut (thresholded at 0.5);
#X text 859 118 Trig out 3: dac~ 23;
#X text 859 128 Trig out 4: dac~ 24;
#X obj 750 649 phasor~ 200;
#X obj 873 647 phasor~ 400;
#X obj 625 556 bela_enableLeds;
#X text 602 401 to red LEDs;
#X text 601 391 Send trigIns 1-3;
#X obj 1055 348 bela_trigIn~ 4;
#X obj 557 422 bela_trigIn 1;
#X obj 658 422 bela_trigIn 2;
#X obj 763 420 bela_trigIn 3;
#X obj 752 674 bela_trigOut~ 2;
#X obj 873 674 bela_trigOut~ 3;
#X obj 990 676 bela_trigOut~ 4;
#X obj 526 673 bela_trigOut 1;
#X obj 86 502 bela_scope~;
#X text 74 151 CVin/out 1-8 are adc~/dac~ 3-10;
#X obj 970 456 dac~ 1 2;
#X text 978 428 Audio out 1-2;
#X obj 1041 265 adc~ 1 2;
#X text 1038 242 Audio in 1-2;
#X obj 790 483 bela_led 4;
#X obj 626 483 bela_led 2;
#X obj 541 485 bela_led 1;
#X obj 707 484 bela_led 3;
#X text 859 58 CV in/out 5: adc~/dac~ 7;
#X text 859 68 CV in/out 6: adc~/dac~ 8;
#X text 859 78 CV in/out 7: adc~/dac~ 9;
#X text 859 88 CV in/out 8: adc~/dac~ 10;
#X text 626 77 CV in/out 1: adc~/dac~ 3;
#X text 626 87 CV in/out 2: adc~/dac~ 4;
#X text 627 97 CV in/out 3: adc~/dac~ 5;
#X text 626 107 CV in/out 4: adc~/dac~ 6;
#X text 663 33 Salt/Core;
#X text 896 34 Salt+/Expander;
#X text 604 10 BelaModular rev03;
#X text 626 187 PWM: dac~ 18 (for LEDs);
#X connect 2 0 3 0;
#X connect 2 0 8 0;
#X connect 2 1 3 1;
#X connect 2 1 9 0;
#X connect 2 2 3 2;
#X connect 2 3 3 3;
#X connect 2 4 3 4;
#X connect 2 4 4 0;
#X connect 2 5 3 5;
#X connect 2 5 5 0;
#X connect 2 6 3 6;
#X connect 2 7 3 7;
#X connect 4 0 49 2;
#X connect 5 0 49 3;
#X connect 8 0 49 0;
#X connect 9 0 49 1;
#X connect 21 0 25 0;
#X connect 22 0 21 0;
#X connect 24 0 48 0;
#X connect 24 0 56 0;
#X connect 24 0 57 0;
#X connect 24 0 58 0;
#X connect 24 0 55 0;
#X connect 25 0 24 0;
#X connect 26 0 51 0;
#X connect 26 0 51 1;
#X connect 29 0 47 0;
#X connect 30 0 26 0;
#X connect 36 0 45 0;
#X connect 37 0 46 0;
#X connect 41 0 26 1;
#X connect 42 0 57 0;
#X connect 43 0 56 0;
#X connect 44 0 58 0;
