#N canvas 0 23 1280 751 10;
#X text 663 33 CORE;
#X text 626 57 Audio left: adc~/dac~ 1;
#X text 626 67 Audio right: adc~/dac~ 2;
#X text 626 77 Analog 1: adc~/dac~ 3;
#X text 626 87 Analog 2: adc~/dac~ 4;
#X text 626 97 Analog 3: adc~/dac~ 5;
#X text 896 34 EXPANDER;
#X text 859 58 Analog 4: adc~/dac~ 7;
#X text 859 68 Analog 5: adc~/dac~ 8;
#X text 859 78 Analog 6: adc~/dac~ 9;
#X text 859 88 Analog 7: adc~/dac~ 10;
#X obj 95 209 adc~ 3 4 5 6 7 8 9 10;
#X obj 94 273 dac~ 3 4 5 6 7 8 9 10;
#X obj 181 406 *~ 0.99;
#X obj 253 413 *~ 0.99;
#X text 626 117 Trig in 1: adc~ 26;
#X text 626 127 Trig in 2: adc~ 25;
#X obj 42 416 *~ 0.99;
#X obj 116 413 *~ 0.99;
#X text 626 157 Switch 1: adc~ 17;
#X text 626 167 LED 1: dac~ 13;
#X text 626 177 LED 2: dac~ 15;
#X text 604 10 BelaModular rev02;
#X text 626 107 Analog 4: adc~/dac~ 6;
#X text 859 98 Trig in 3: adc~ 12;
#X text 859 108 Trig in 4: adc~ 14;
#X text 626 147 Trig out 2: dac~ 16;
#X text 626 137 Trig out 1: dac~ 11;
#X text 108 176 Loopback analogs;
#X text 49 372 Send something to the scope;
#X text 859 138 LED 3: dac~ 19;
#X text 859 148 LED 4: dac~ 20;
#X text 626 187 PWM_A: dac~ 18 (drives LED1 and LED3);
#X text 626 197 PWM_B: dac~ 21 (drives LED2 and LED4);
#X obj 461 308 metro 200;
#X obj 461 284 loadbang;
#X text 398 420 Toggle yellow LEDs;
#X obj 469 397 * 2;
#X obj 470 358 tgl 15 0 empty empty empty 17 7 0 10 -262144 -1 -1 0
1;
#X obj 990 403 *~;
#X text 553 527 This needs to be somewhere in the patch;
#X text 553 539 for the LEDs to work;
#X obj 990 646 phasor~ 600;
#X obj 957 349 osc~ 200;
#X text 1041 382 Use audio-rate trig input 4;
#X text 509 639 Control-rate trigOut;
#X text 790 622 Audio-rate trigOut (thresholded at 0.5);
#X text 859 118 Trig out 3: dac~ 23;
#X text 859 128 Trig out 4: dac~ 24;
#X obj 750 649 phasor~ 200;
#X obj 873 647 phasor~ 400;
#X obj 625 556 bela_enableLeds;
#X text 602 401 to red LEDs;
#X text 601 391 Send trigIns 1-3;
#X obj 1055 348 bela_trigIn~ 4;
#X obj 557 422 bela_trigIn 1;
#X obj 658 422 bela_trigIn 2;
#X obj 763 420 bela_trigIn 3;
#X obj 752 674 bela_trigOut~ 2;
#X obj 873 674 bela_trigOut~ 3;
#X obj 990 676 bela_trigOut~ 4;
#X obj 526 673 bela_trigOut 1;
#X obj 86 502 bela_scope~;
#X text 74 151 CVin/out 1-8 are adc~/dac~ 3-10;
#X obj 970 456 dac~ 1 2;
#X text 978 428 Audio out 1-2;
#X obj 1041 265 adc~ 1 2;
#X text 1038 242 Audio in 1-2;
#X obj 790 483 bela_led 4;
#X obj 626 483 bela_led 2;
#X obj 541 485 bela_led 1;
#X obj 707 484 bela_led 3;
#X connect 11 0 12 0;
#X connect 11 0 17 0;
#X connect 11 1 12 1;
#X connect 11 1 18 0;
#X connect 11 2 12 2;
#X connect 11 3 12 3;
#X connect 11 4 12 4;
#X connect 11 4 13 0;
#X connect 11 5 12 5;
#X connect 11 5 14 0;
#X connect 11 6 12 6;
#X connect 11 7 12 7;
#X connect 13 0 62 2;
#X connect 14 0 62 3;
#X connect 17 0 62 0;
#X connect 18 0 62 1;
#X connect 34 0 38 0;
#X connect 35 0 34 0;
#X connect 37 0 61 0;
#X connect 37 0 69 0;
#X connect 37 0 70 0;
#X connect 37 0 71 0;
#X connect 37 0 68 0;
#X connect 38 0 37 0;
#X connect 39 0 64 0;
#X connect 39 0 64 1;
#X connect 42 0 60 0;
#X connect 43 0 39 0;
#X connect 49 0 58 0;
#X connect 50 0 59 0;
#X connect 54 0 39 1;
#X connect 55 0 70 0;
#X connect 56 0 69 0;
#X connect 57 0 71 0;
