#N canvas 338 213 942 561 10;
#X obj 118 263 dac~ 18 21;
#X text 34 11 Drive PWM on pins 18 and 21;
#X obj 143 104 s bela_setDigital @hv_param;
#X obj 143 54 loadbang;
#X msg 143 79 out 18 ~ \, out 21 ~;
#X obj 143 204 phasor~;
#X obj 143 158 samplerate~;
#X obj 143 133 loadbang;
#X text 202 224 the offset determines the PW;
#X obj 143 226 +~ 0.25;
#X text 242 193 PWM frequency;
#X obj 143 180 / 32;
#X connect 3 0 4 0;
#X connect 4 0 2 0;
#X connect 5 0 9 0;
#X connect 6 0 11 0;
#X connect 7 0 6 0;
#X connect 9 0 0 0;
#X connect 9 0 0 1;
#X connect 11 0 5 0;
