#N canvas 338 213 942 561 10;
#X obj 143 104 s bela_setDigital @hv_param;
#X obj 143 54 loadbang;
#X obj 143 204 phasor~;
#X obj 143 158 samplerate~;
#X obj 143 133 loadbang;
#X text 203 226 the offset determines the PW;
#X obj 143 226 +~ 0.25;
#X text 188 181 PWM frequency;
#X obj 143 180 / 32;
#X msg 143 79 out 18 ~;
#X obj 143 257 dac~ 18;
#X text 34 11 Drive PWM on pin 18;
#X connect 1 0 9 0;
#X connect 2 0 6 0;
#X connect 3 0 8 0;
#X connect 4 0 3 0;
#X connect 6 0 10 0;
#X connect 8 0 2 0;
#X connect 9 0 0 0;
