#N canvas 0 22 724 553 10;
#X text 275 45 Trig out 1: 11;
#X text 275 55 Trig out 2: 16;
#X text 275 65 Trig out 3: 23;
#X text 275 75 Trig out 4: 24;
#X obj 66 202 s bela_setDigital @hv_param;
#X obj 55 45 loadbang;
#X obj 55 69 f \$1;
#X obj 55 94 select 1 2 3 4;
#X msg 50 129 11;
#X msg 92 132 16;
#X msg 141 133 23;
#X msg 179 130 24;
#X msg 66 177 out \$1 ~;
#X obj 140 263 inlet~;
#X obj 250 311 *~ 0;
#X obj 140 310 *~ 0;
#X obj 82 310 *~ 0;
#X obj 202 311 *~ 0;
#X obj 108 370 dac~ 11 16 23 24;
#X msg 105 286 1;
#X msg 165 286 1;
#X msg 225 286 1;
#X msg 275 286 1;
#X text 319 255 Only enable the corresponding output;
#X connect 5 0 6 0;
#X connect 6 0 7 0;
#X connect 7 0 8 0;
#X connect 7 0 19 0;
#X connect 7 1 9 0;
#X connect 7 1 20 0;
#X connect 7 2 10 0;
#X connect 7 2 21 0;
#X connect 7 3 11 0;
#X connect 7 3 22 0;
#X connect 8 0 12 0;
#X connect 9 0 12 0;
#X connect 10 0 12 0;
#X connect 11 0 12 0;
#X connect 12 0 4 0;
#X connect 13 0 16 0;
#X connect 13 0 15 0;
#X connect 13 0 17 0;
#X connect 13 0 14 0;
#X connect 14 0 18 3;
#X connect 15 0 18 1;
#X connect 16 0 18 0;
#X connect 17 0 18 2;
#X connect 19 0 16 1;
#X connect 20 0 15 1;
#X connect 21 0 17 1;
#X connect 22 0 14 1;
