#N canvas 0 22 1009 624 10;
#X obj 322 355 s bela_setDigital @hv_param;
#X obj 55 45 loadbang;
#X obj 55 69 f \$1;
#X obj 55 94 select 1 2 3 4;
#X obj 69 348 spigot;
#X obj 85 395 spigot;
#X obj 109 440 spigot;
#X obj 123 489 spigot;
#X text 580 83 LED 1: dac~ 13;
#X text 580 93 LED 2: dac~ 15;
#X text 580 104 LED 3: dac~ 19;
#X text 580 114 LED 4: dac~ 20;
#X msg 50 129 13;
#X msg 92 132 15;
#X msg 138 133 19;
#X msg 179 130 20;
#X obj 69 372 s bela_digitalOut13 @hv_param;
#X obj 84 418 s bela_digitalOut15 @hv_param;
#X obj 109 465 s bela_digitalOut19 @hv_param;
#X obj 122 511 s bela_digitalOut20 @hv_param;
#X obj 387 103 inlet;
#X obj 359 154 select 0 1 2;
#X obj 354 240 f;
#X msg 323 312 in \$1;
#X obj 436 302 f;
#X msg 436 324 out \$1;
#X obj 410 242 t f b;
#X msg 400 215 0;
#X msg 445 212 1;
#X text 235 22 inlet takes:;
#X msg 252 39 0;
#X msg 252 59 1;
#X msg 252 79 2;
#X text 282 41 ==;
#X text 282 61 ==;
#X text 282 81 ==;
#X text 302 39 off;
#X text 302 59 red;
#X text 302 79 yellow;
#X text 580 125 PWM: dac~ 18;
#X connect 1 0 2 0;
#X connect 2 0 3 0;
#X connect 3 0 12 0;
#X connect 3 1 13 0;
#X connect 3 2 14 0;
#X connect 3 3 15 0;
#X connect 4 0 16 0;
#X connect 5 0 17 0;
#X connect 6 0 18 0;
#X connect 7 0 19 0;
#X connect 12 0 4 1;
#X connect 12 0 22 1;
#X connect 12 0 24 1;
#X connect 13 0 5 1;
#X connect 13 0 22 1;
#X connect 13 0 24 1;
#X connect 14 0 6 1;
#X connect 14 0 22 1;
#X connect 14 0 24 1;
#X connect 15 0 7 1;
#X connect 15 0 22 1;
#X connect 15 0 24 1;
#X connect 20 0 21 0;
#X connect 21 0 22 0;
#X connect 21 1 27 0;
#X connect 21 2 28 0;
#X connect 22 0 23 0;
#X connect 23 0 0 0;
#X connect 24 0 25 0;
#X connect 25 0 0 0;
#X connect 26 0 4 0;
#X connect 26 0 5 0;
#X connect 26 0 6 0;
#X connect 26 0 7 0;
#X connect 26 1 24 0;
#X connect 27 0 26 0;
#X connect 28 0 26 0;
#X coords 0 0 1 1 85 60 0;
