#N canvas 407 244 1109 1033 10;
#X obj 287 400 noise~;
#X obj 347 418 line~;
#X msg 349 398 200 \, 10000 50;
#X obj 442 369 del 50;
#X obj 369 362 bng 15 250 50 0 empty empty empty 17 7 0 10 -262144
-1 -1;
#X obj 473 478 line~;
#X obj 568 429 del 50;
#X obj 495 422 bng 15 250 50 0 empty empty empty 17 7 0 10 -262144
-1 -1;
#X obj 396 885 *~;
#X obj 520 871 line~;
#X obj 520 892 *~;
#X msg 441 393 2000 2000;
#X msg 475 458 200 \, 4000 50;
#N canvas 328 399 416 582 flang0000000000 0;
#X obj 26 534 outlet~;
#X obj 26 16 inlet~;
#N canvas 0 22 206 338 feedback 0;
#X obj 51 71 t f f;
#X obj 51 101 abs;
#X obj 111 131 * 2;
#X obj 111 161 - 1;
#X obj 111 101 > 0;
#X obj 51 191 *;
#X obj 51 33 inlet;
#X obj 51 131 max 0.01;
#X msg 51 221 \$1 100;
#X obj 51 251 line~;
#X obj 51 281 outlet~;
#X connect 0 0 1 0;
#X connect 0 1 4 0;
#X connect 1 0 7 0;
#X connect 2 0 3 0;
#X connect 3 0 5 1;
#X connect 4 0 2 0;
#X connect 5 0 8 0;
#X connect 6 0 0 0;
#X connect 7 0 5 0;
#X connect 8 0 9 0;
#X connect 9 0 10 0;
#X restore 109 249 pd feedback;
#X obj 55 294 *~;
#X obj 41 414 clip 0 1;
#X obj 26 474 *~;
#X obj 107 474 *~;
#N canvas 0 23 201 386 mix 0;
#X obj 37 54 * 2;
#X obj 37 84 - 1;
#X obj 37 114 t f f;
#X obj 98 174 + 1;
#X msg 37 144 1 \$1;
#X obj 37 174 -;
#X obj 98 204 * 0.5;
#X obj 37 204 * 0.5;
#X obj 98 234 sqrt;
#X obj 37 234 sqrt;
#X obj 37 24 inlet;
#X msg 98 264 \$1 100;
#X obj 98 294 line~;
#X msg 37 264 \$1 100;
#X obj 37 294 line~;
#X obj 98 324 outlet~;
#X obj 37 324 outlet~;
#X connect 0 0 1 0;
#X connect 1 0 2 0;
#X connect 2 0 4 0;
#X connect 2 1 3 0;
#X connect 3 0 6 0;
#X connect 4 0 5 0;
#X connect 5 0 7 0;
#X connect 6 0 8 0;
#X connect 7 0 9 0;
#X connect 8 0 11 0;
#X connect 9 0 13 0;
#X connect 10 0 0 0;
#X connect 11 0 12 0;
#X connect 12 0 15 0;
#X connect 13 0 14 0;
#X connect 14 0 16 0;
#X restore 41 434 pd mix;
#X obj 88 111 clip 0 1;
#X obj 26 504 +~;
#X obj 40 324 +~;
#N canvas 130 607 329 376 lfo 0;
#X obj 45 101 abs~;
#X obj 201 151 *~ 0.5;
#X obj 186 265 +~;
#X obj 45 211 *~;
#X obj 133 181 *~;
#X obj 133 151 line~;
#X obj 186 295 lop~ 14;
#X msg 133 121 \$1 100;
#X obj 133 31 inlet intensity;
#X obj 186 325 outlet~;
#X obj 45 31 inlet~ speed;
#X obj 45 131 *~ 4;
#X obj 3 131 sig~ 4;
#X obj 30 151 -~;
#X obj 201 121 sig~ 2.5;
#X connect 0 0 11 0;
#X connect 1 0 2 1;
#X connect 1 0 4 1;
#X connect 2 0 6 0;
#X connect 3 0 2 0;
#X connect 4 0 3 1;
#X connect 5 0 4 0;
#X connect 6 0 9 0;
#X connect 7 0 5 0;
#X connect 8 0 7 0;
#X connect 10 0 0 0;
#X connect 11 0 13 1;
#X connect 12 0 13 0;
#X connect 13 0 3 0;
#X connect 14 0 1 0;
#X restore 55 136 pd lfo;
#X obj 55 175 vd~ \$0-flanger;
#X obj 109 229 clip -1 1;
#X obj 88 91 inlet intensity;
#X obj 109 209 inlet feedback;
#X obj 150 393 inlet mix;
#X obj 40 354 delwrite~ \$0-flanger 100;
#X obj 55 41 inlet~ env;
#X connect 1 0 5 0;
#X connect 1 0 10 0;
#X connect 2 0 3 1;
#X connect 3 0 10 1;
#X connect 4 0 7 0;
#X connect 5 0 9 0;
#X connect 6 0 9 1;
#X connect 7 0 5 1;
#X connect 7 1 6 0;
#X connect 8 0 11 1;
#X connect 9 0 0 0;
#X connect 10 0 17 0;
#X connect 11 0 12 0;
#X connect 12 0 3 0;
#X connect 12 0 6 1;
#X connect 13 0 2 0;
#X connect 14 0 8 0;
#X connect 15 0 13 0;
#X connect 16 0 4 0;
#X connect 18 0 11 0;
#X restore 346 761 pd flang0000000000;
#X obj 328 464 vcf~ 5;
#X obj 454 524 vcf~ 5;
#X obj 402 674 line~;
#X msg 404 654 1 \, 0 2000;
#X msg 445 725 0.97;
#X msg 482 727 0.82;
#X msg 517 726 0.6;
#X obj 473 687 loadbang;
#X msg 521 815 0 \, 1 40;
#X obj 572 814 del 40;
#X msg 572 838 0 1500;
#X obj 212 640 tgl 15 0 empty empty empty 17 7 0 10 -262144 -1 -1 1
1;
#X obj 168 789 s~ enable;
#X obj 192 749 line~;
#X msg 192 730 \$1 1000;
#X obj 358 626 sel 0 1;
#X msg 336 654 0 \, 1 2000;
#X obj 496 776 sel 0 1;
#X msg 401 816 0 \, 1 750;
#X obj 467 814 del 750;
#X msg 466 838 0 750;
#X msg 567 453 10000 2000;
#X obj 207 571 loadbang;
#X msg 212 604 1;
#X obj 174 499 bng 15 250 50 0 empty empty empty 17 7 0 10 -262144
-1 -1;
#X obj 593 584 line~;
#X obj 673 521 random 1000;
#X obj 673 541 / 1000;
#X obj 746 520 random 1000;
#X obj 746 540 / 1000;
#X obj 732 617 line~;
#X obj 721 779 vd~ sparks;
#X obj 708 902 delwrite~ sparks 100;
#X obj 676 562 pack f f f;
#X msg 732 594 \$1 \, \$2 \$3;
#X obj 638 520 f;
#X obj 838 631 noise~;
#X obj 809 707 *~;
#X obj 841 687 lop~ 500;
#X obj 253 811 *~ 1e+06;
#X obj 740 705 +~ 1;
#X obj 735 683 *~ 5;
#X obj 721 805 hip~ 2000;
#X obj 722 832 *~ 0.9999;
#X obj 839 655 *~ 0.1;
#X obj 906 861 *~;
#X obj 950 782 line~;
#X obj 824 472 f;
#X obj 824 449 * 1000;
#X obj 517 205 abs~;
#X obj 863 347 snapshot~;
#X obj 863 297 loadbang;
#X obj 517 224 lop~ 10;
#X obj 395 920 hip~ 800;
#X obj 517 153 adc~ 1;
#X obj 611 496 t f b;
#X obj 593 543 pack f f;
#X msg 593 564 \$1 \, 0 \$2;
#X obj 672 437 t f b b;
#X obj 834 399 t f f;
#X obj 863 324 metro 20;
#X obj 517 186 hip~ 1;
#X text 555 247 << tweak;
#X obj 517 246 *~ 6;
#X obj 863 370 moses 0.35;
#X obj 395 941 *~ 75;
#X obj 952 692 * 1.5;
#X obj 904 834 hip~ 2000;
#X msg 952 762 \$1 \, 0 \$2;
#X obj 914 733 pack f f;
#X obj 672 352 - 0.35;
#X obj 672 416 clip 0 2;
#X obj 246 935 *~ 0.04;
#X obj 836 874 *~ 75;
#X obj 783 373 r sheath;
#X text 485 52 *** DON'T ASK ***;
#X text 492 74 (use the force);
#X obj 242 842 tanh~;
#X obj 246 992 s~ sheath;
#X text 569 152 <<< piezo on left audio input;
#X obj 906 807 r~ drone;
#X obj 920 398 s led_hit;
#X text 985 398 <<< to LED;
#X connect 0 0 14 0;
#X connect 0 0 15 0;
#X connect 1 0 14 1;
#X connect 2 0 1 0;
#X connect 3 0 11 0;
#X connect 4 0 3 0;
#X connect 4 0 2 0;
#X connect 4 0 7 0;
#X connect 5 0 15 1;
#X connect 6 0 35 0;
#X connect 7 0 12 0;
#X connect 8 0 46 0;
#X connect 9 0 10 1;
#X connect 9 0 10 0;
#X connect 10 0 8 1;
#X connect 11 0 1 0;
#X connect 12 0 5 0;
#X connect 13 0 53 0;
#X connect 14 0 13 0;
#X connect 15 0 13 0;
#X connect 16 0 13 1;
#X connect 17 0 16 0;
#X connect 18 0 13 2;
#X connect 19 0 13 3;
#X connect 20 0 13 4;
#X connect 21 0 18 0;
#X connect 21 0 19 0;
#X connect 21 0 20 0;
#X connect 22 0 9 0;
#X connect 23 0 24 0;
#X connect 24 0 9 0;
#X connect 25 0 28 0;
#X connect 25 0 29 0;
#X connect 25 0 31 0;
#X connect 27 0 26 0;
#X connect 28 0 27 0;
#X connect 29 0 30 0;
#X connect 29 1 17 0;
#X connect 30 0 16 0;
#X connect 31 0 32 0;
#X connect 31 0 33 0;
#X connect 31 1 22 0;
#X connect 31 1 23 0;
#X connect 32 0 9 0;
#X connect 33 0 34 0;
#X connect 34 0 9 0;
#X connect 35 0 5 0;
#X connect 36 0 4 0;
#X connect 36 0 37 0;
#X connect 37 0 25 0;
#X connect 38 0 4 0;
#X connect 38 0 25 0;
#X connect 39 0 8 1;
#X connect 39 0 51 1;
#X connect 40 0 41 0;
#X connect 41 0 47 0;
#X connect 42 0 43 0;
#X connect 43 0 47 1;
#X connect 44 0 13 1;
#X connect 44 0 55 0;
#X connect 45 0 56 0;
#X connect 45 0 67 0;
#X connect 45 0 86 0;
#X connect 47 0 48 0;
#X connect 48 0 44 0;
#X connect 49 0 70 1;
#X connect 50 0 58 0;
#X connect 51 0 45 0;
#X connect 52 0 51 0;
#X connect 53 0 91 0;
#X connect 54 0 45 0;
#X connect 55 0 54 0;
#X connect 56 0 57 0;
#X connect 57 0 46 0;
#X connect 58 0 52 0;
#X connect 59 0 87 0;
#X connect 60 0 59 1;
#X connect 61 0 47 2;
#X connect 61 0 49 1;
#X connect 61 0 80 0;
#X connect 62 0 61 0;
#X connect 63 0 66 0;
#X connect 64 0 78 0;
#X connect 65 0 74 0;
#X connect 66 0 77 0;
#X connect 67 0 79 0;
#X connect 68 0 75 0;
#X connect 69 0 70 0;
#X connect 69 1 49 0;
#X connect 70 0 71 0;
#X connect 71 0 39 0;
#X connect 72 0 69 0;
#X connect 72 0 83 0;
#X connect 72 1 40 0;
#X connect 72 2 42 0;
#X connect 73 0 84 0;
#X connect 73 1 62 0;
#X connect 74 0 64 0;
#X connect 75 0 63 0;
#X connect 77 0 64 0;
#X connect 78 1 73 0;
#X connect 78 1 95 0;
#X connect 79 0 86 0;
#X connect 80 0 83 1;
#X connect 81 0 59 0;
#X connect 82 0 60 0;
#X connect 83 0 82 0;
#X connect 84 0 85 0;
#X connect 85 0 72 0;
#X connect 86 0 92 0;
#X connect 87 0 46 0;
#X connect 88 0 73 0;
#X connect 91 0 8 0;
#X connect 94 0 81 0;
