#N canvas 0 22 766 297 10;
#X obj 373 217 vangex;
#X obj 203 200 +~;
#X obj 276 136 lop~ 4;
#X obj 276 179 +~;
#X obj 319 136 *~ 4;
#X obj 389 101 *~ 5;
#X obj 276 157 *~ 2;
#X obj 319 158 -~ 2;
#X obj 406 195 sig~ -0.1;
#X obj 203 178 sig~ 39.48;
#X obj 276 76 r~ swingVelocity;
#X obj 319 114 r~ z-axis;
#X obj 373 239 s~ vangex-source;
#X text 40 21 Recycling vangex voice from vangelisiser synth;
#X text 443 101 <<< velocity modulates gain;
#X text 490 196 <<< displace harmonic centre slightly;
#X text 50 113 z-axis modulates pitch centre >>>;
#X text 80 156 velocity modulates pitch >>>;
#X text 79 176 160hz (midi) >>>;
#X text 40 31 ----------------------------------------------;
#X connect 0 0 12 0;
#X connect 1 0 0 0;
#X connect 2 0 6 0;
#X connect 3 0 1 1;
#X connect 4 0 7 0;
#X connect 5 0 0 1;
#X connect 6 0 3 0;
#X connect 7 0 3 1;
#X connect 8 0 0 2;
#X connect 9 0 1 0;
#X connect 10 0 2 0;
#X connect 10 0 5 0;
#X connect 11 0 4 0;
