#N canvas 60 22 1380 856 10;
#X obj 164 142 adc~ 4;
#X obj 323 141 adc~ 5;
#X text 33 22 Simple FM;
#X text 33 32 =========;
#X obj 36 461 +~;
#X obj 109 403 osc~;
#X obj 109 444 *~;
#X obj 109 363 *~;
#X obj 174 385 *~;
#X obj 36 487 osc~;
#X obj 36 603 dac~ 1 2;
#X obj 124 326 receive~ harmonicRatio;
#X obj 189 356 receive~ modulationIndex;
#X obj 164 204 send~ harmonicRatio;
#X obj 323 202 send~ modulationIndex;
#X text 33 55 Simple frequency modulation synthesis. Use the first
three;
#X text 33 69 analog inputs to change frequency \, harmonic ratio and
;
#X text 33 83 modulation index.;
#X text 445 15 ............................;
#X text 445 25 . ____ ._____ _ .......___ .;
#X text 445 35 .| __ )| ____| |....../ _ |.;
#X text 445 55 .| |_) | |___| |___ / ___ |.;
#X text 445 65 .|____/|_____|_____/_/..._|.io;
#X text 445 75 ............................;
#X text 445 45 .| __ || __|.| |...../ _| |.;
#X obj 36 259 sig~ 300;
#X obj 24 142 adc~ 3;
#X obj 24 204 send~ amplitude;
#X obj 84 487 receive~ amplitude;
#X obj 36 512 *~;
#X obj 24 173 lop~ 10;
#X text 633 192 you now have 3 analog sensors;
#X text 633 179 Hardware: connect a LDR to analog in 2;
#X obj 755 446 loadbang;
#X obj 756 509 simple-sequencer;
#X obj 755 467 metro 500;
#X text 634 250 Task 1: look at the LDR on the scope and decide;
#X text 634 331 threshold. Use [threshold~] and [vline~];
#X text 634 365 fade an LED in time by connecting to analog out 0 [dac~
3];
#X obj 164 173 *~ 16;
#X obj 323 171 *~ 2000;
#X text 634 262 how to map to 0-2000 range.;
#X text 634 353 Task 4: (extra) use simple-sequencer to arpeggiate
\,;
#X text 634 319 Task 3: use FSR to trigger an envelope once over a
;
#X text 634 283 Task 2: experiment with mapping different sensor to
control;
#X text 634 295 find your preferred combination and mapping.;
#X connect 0 0 39 0;
#X connect 1 0 40 0;
#X connect 4 0 9 0;
#X connect 5 0 6 0;
#X connect 6 0 4 1;
#X connect 7 0 8 0;
#X connect 7 0 5 0;
#X connect 9 0 29 0;
#X connect 11 0 7 1;
#X connect 12 0 8 1;
#X connect 12 0 6 1;
#X connect 25 0 4 0;
#X connect 25 0 7 0;
#X connect 26 0 30 0;
#X connect 28 0 29 1;
#X connect 29 0 10 1;
#X connect 29 0 10 0;
#X connect 30 0 27 0;
#X connect 33 0 35 0;
#X connect 35 0 34 0;
#X connect 39 0 13 0;
#X connect 40 0 14 0;
