#N canvas 6 23 663 543 10;
#X obj 82 155 adc~ 3 4;
#X text 198 154 << Use first two analog ins;
#X obj 127 260 *~ 0.5;
#X obj 127 282 +~ 0.5;
#X text 435 42 ............................;
#X text 435 52 . ____ ._____ _ .......___ .;
#X text 435 62 .| __ )| ____| |....../ _ |.;
#X text 435 82 .| |_) | |___| |___ / ___ |.;
#X text 435 92 .|____/|_____|_____/_/..._|.io;
#X text 435 102 ............................;
#X text 435 72 .| __ || __|.| |...../ _| |.;
#X obj 82 235 osc~ 440;
#X obj 127 210 osc~ 1;
#X text 198 265 << Rescale output to range 0-1;
#X text 197 231 << Analog In 1 controls oscillator frequency;
#X text 198 209 << Analog In 0 controls LFO frequency;
#X obj 82 347 *~;
#X obj 82 392 dac~ 1 2 3;
#X obj 127 189 *~ 20;
#X text 193 401 << Output to first analog out for LED;
#X text 193 381 << Output oscillator modulated by LFO to audio output
;
#X text 193 349 << Modulate oscillator with LFO;
#X text 44 51 Basic Tremolo;
#X text 44 61 =============;
#X connect 0 0 11 0;
#X connect 0 1 18 0;
#X connect 2 0 3 0;
#X connect 3 0 16 1;
#X connect 3 0 17 2;
#X connect 11 0 16 0;
#X connect 12 0 2 0;
#X connect 16 0 17 0;
#X connect 16 0 17 1;
#X connect 18 0 12 0;
