#N canvas 0 23 1280 699 10;
#X text 37 21 ===========;
#X text 565 5 ............................;
#X text 565 15 . ____ ._____ _ .......___ .;
#X text 565 25 .| __ )| ____| |....../ _ |.;
#X text 565 45 .| |_) | |___| |___ / ___ |.;
#X text 565 55 .|____/|_____|_____/_/..._|.io;
#X text 565 65 ............................;
#X text 565 35 .| __ || __|.| |...../ _| |.;
#X text 39 11 Midi-CV-Midi;
#X obj 802 281 s outputSmooth;
#X obj 802 229 loadbang;
#X msg 802 256 100;
#X text 876 242 <<< set the smoothing of the analog output;
#X text 876 252 this is the cutoff frequency of a low-pass filter \,
;
#X text 876 262 so 22050 means no smoothing!;
#X text 243 216 MIDI to analog outputs;
#X obj 801 338 loadbang;
#X obj 801 363 metro 50;
#X text 868 362 <<< how often to sample the analog inputs (ms);
#X obj 802 386 s analogInputTick;
#X obj 49 242 ctlinToDac~ 1 3;
#X obj 40 339 adcToCtlout~ 3 1;
#X text 243 313 analog inputs to MIDI;
#X obj 160 339 adcToCtlout~ 4 2;
#X obj 280 339 adcToCtlout~ 5 3;
#X obj 400 339 adcToCtlout~ 6 4;
#X obj 60 359 adcToCtlout~ 7 5;
#X obj 180 359 adcToCtlout~ 8 6;
#X obj 300 359 adcToCtlout~ 9 7;
#X obj 420 359 adcToCtlout~ 10 8;
#X text 243 504 digital inputs to MIDI;
#X obj 800 585 s bela_setDigital @hv_param;
#X msg 800 558 in 17 \, in 26 \, in 25 \, in 12 \, in 14;
#X obj 800 530 loadbang;
#X text 910 524 Set some digital channels;
#X text 910 535 as control-rate inputs;
#X obj 159 629 ctlout 9;
#X obj 310 573 ctlout 10;
#X obj 457 574 ctlout 11;
#X obj 599 576 ctlout 12;
#X obj 164 527 r bela_digitalIn26;
#X obj 159 588 change;
#X obj 159 567 |;
#X obj 164 547 t b f;
#X obj 30 526 r bela_digitalIn17;
#X obj 457 531 r bela_digitalIn12;
#X obj 310 527 r bela_digitalIn25;
#X obj 310 550 * 127;
#X obj 599 531 r bela_digitalIn14;
#X obj 457 552 * 127;
#X obj 599 552 * 127;
#X text 61 566 Digital >>>>;
#X text 61 576 "wired-OR";
#X obj 800 475 s bela_setDigital @hv_param;
#X obj 800 420 loadbang;
#X text 910 414 Set some digital channels;
#X text 910 425 as control-rate outputs;
#X obj 60 413 ctlin 9;
#X obj 60 436 / 127;
#X obj 60 459 s bela_digitalOut11;
#X obj 210 436 / 127;
#X obj 210 459 s bela_digitalOut16;
#X obj 350 436 / 127;
#X obj 350 459 s bela_digitalOut23;
#X obj 490 436 / 127;
#X obj 490 459 s bela_digitalOut24;
#X obj 210 413 ctlin 10;
#X obj 350 413 ctlin 11;
#X obj 490 413 ctlin 12;
#X text 243 394 MIDI to digital outputs;
#X text 39 50 A patch that turns MIDI data from a controller or the
host;
#X text 39 60 computer into output voltages and vice-versa.;
#X text 39 80 This can be used as a simple way of interfacing your
;
#X text 39 130 Whenever connecting Bela to external equipment \, you
should;
#X text 39 150 https://blog.bela.io/2016/11/15/analog-synth/;
#X text 39 190 Eurorack module: https://bela.io/salt;
#X text 39 180 jacks \, pots \, leds and buttons \, check out Salt \, the Bela;
#X obj 802 120 loadbang;
#X msg 802 146 hw 0 0 0;
#X obj 802 173 send bela_setMidi;
#X text 902 133 << enable MIDI communication with the host computer
;
#X text 902 143 over USB (requires Bela image v0.3 or above);
#X obj 159 609 * 127;
#X obj 166 242 ctlinToDac~ 2 4;
#X obj 281 242 ctlinToDac~ 3 5;
#X obj 398 242 ctlinToDac~ 4 6;
#X obj 69 263 ctlinToDac~ 5 7;
#X obj 186 263 ctlinToDac~ 6 8;
#X obj 301 263 ctlinToDac~ 7 9;
#X obj 418 263 ctlinToDac~ 8 10;
#X msg 800 448 out 11 \, out 16 \, out 23 \, out 24;
#X text 934 160 Open the host-send-receive patch on the host;
#X text 934 170 to receive the MIDI data;
#X text 39 90 computer to some CV-controlled analog synthesizers \,
or to;
#X text 39 100 interact via MIDI with a program running on Bela \,
or to;
#X text 39 110 control from Bela a program running on the host.;
#X text 39 140 at least add some minimal protections \, as explained
here:;
#X text 39 170 For more advanced uses \, full +-5V voltage swings \,
plenty of;
#X connect 10 0 11 0;
#X connect 11 0 9 0;
#X connect 16 0 17 0;
#X connect 17 0 19 0;
#X connect 32 0 31 0;
#X connect 33 0 32 0;
#X connect 40 0 43 0;
#X connect 41 0 82 0;
#X connect 42 0 41 0;
#X connect 43 0 42 0;
#X connect 43 1 42 1;
#X connect 44 0 42 0;
#X connect 45 0 49 0;
#X connect 46 0 47 0;
#X connect 47 0 37 0;
#X connect 48 0 50 0;
#X connect 49 0 38 0;
#X connect 50 0 39 0;
#X connect 54 0 90 0;
#X connect 57 0 58 0;
#X connect 58 0 59 0;
#X connect 60 0 61 0;
#X connect 62 0 63 0;
#X connect 64 0 65 0;
#X connect 66 0 60 0;
#X connect 67 0 62 0;
#X connect 68 0 64 0;
#X connect 77 0 78 0;
#X connect 78 0 79 0;
#X connect 82 0 36 0;
#X connect 90 0 53 0;
