#N canvas 12 22 1233 686 10;
#X obj 85 308 dac~ 27 28 29 30;
#X obj 78 570 *~;
#X obj 78 523 osc~ 200;
#X obj 78 611 dac~ 1 2;
#X obj 83 153 accelerometer-integration;
#X obj 93 546 r~ swingVelocity;
#X obj 81 227 r~ x-axis;
#X obj 151 227 r~ y-axis;
#X obj 221 227 r~ z-axis;
#X obj 294 227 r~ swingVelocity;
#X text 313 152 <<<<< signal treatment happening in here;
#X text 313 303 <<<<< visualise raw signal and velocity;
#X text 233 543 <<<<< use the overall velocity to control amplitude
of tone;
#X text 463 11 ............................;
#X text 463 21 . ____ ._____ _ .......___ .;
#X text 463 31 .| __ )| ____| |....../ _ |.;
#X text 463 51 .| |_) | |___| |___ / ___ |.;
#X text 463 61 .|____/|_____|_____/_/..._|.io;
#X text 463 71 ............................;
#X text 463 41 .| __ || __|.| |...../ _| |.;
#X text 64 30 Accelerometer;
#X text 235 576 For a more accomplished use of the swing velocity have
;
#X text 235 596 a look at the saber example in the Instruments folder.
;
#X text 64 40 =============;
#X obj 674 451 playAudioFile~;
#X obj 755 401 loadbang;
#X msg 755 425 one.wav;
#X obj 824 451 playAudioFile~;
#X obj 905 401 loadbang;
#X obj 974 451 playAudioFile~;
#X obj 1055 401 loadbang;
#X msg 905 425 two.wav;
#X msg 1055 425 three.wav;
#X msg 674 425 play;
#X msg 824 425 play;
#X msg 974 425 play;
#X obj 674 504 *~;
#X obj 690 481 r~ x-axis-mixing;
#X obj 824 504 *~;
#X obj 840 481 r~ y-axis-mixing;
#X obj 974 504 *~;
#X obj 990 481 r~ z-axis-mixing;
#X obj 674 525 throw~ output;
#X obj 824 525 throw~ output;
#X obj 812 572 catch~ output;
#X obj 812 623 dac~ 1 2;
#X obj 257 262 catch~ test;
#X obj 190 352 -~ 0.25;
#X obj 190 453 *~ 8;
#X obj 334 352 -~ 0.25;
#X obj 334 453 *~ 8;
#X obj 185 489 s~ x-axis-mixing;
#X obj 479 489 s~ z-axis-mixing;
#X obj 484 352 -~ 0.25;
#X obj 479 466 *~ 8;
#X obj 329 489 s~ y-axis-mixing;
#X obj 974 525 throw~ output;
#X obj 812 593 *~ 0.2;
#X obj 500 384 threshold~ 0.1 10;
#X obj 480 434 *~;
#X msg 519 408 1;
#X msg 557 408 0;
#X obj 350 384 threshold~ 0.1 10;
#X obj 335 428 *~;
#X msg 369 408 1;
#X msg 407 408 0;
#X obj 206 384 threshold~ 0.1 10;
#X obj 192 427 *~;
#X msg 225 408 1;
#X msg 263 408 0;
#X text 64 80 three audio stream depending on orientation.;
#X text 788 353 samples courtesy of EJTECH;
#X text 64 60 This example uses an acceleromoter to mix between;
#X text 64 110 https://learn.bela.io/tutorials/pure-data/sensors/accelerometer/
;
#X connect 1 0 3 0;
#X connect 1 0 3 1;
#X connect 5 0 1 1;
#X connect 6 0 47 0;
#X connect 6 0 0 0;
#X connect 7 0 49 0;
#X connect 7 0 0 1;
#X connect 8 0 53 0;
#X connect 8 0 0 2;
#X connect 24 0 36 0;
#X connect 25 0 26 0;
#X connect 25 0 33 0;
#X connect 26 0 24 3;
#X connect 27 0 38 0;
#X connect 28 0 31 0;
#X connect 28 0 34 0;
#X connect 29 0 40 0;
#X connect 30 0 32 0;
#X connect 30 0 35 0;
#X connect 31 0 27 3;
#X connect 32 0 29 3;
#X connect 33 0 24 0;
#X connect 34 0 27 0;
#X connect 35 0 29 0;
#X connect 36 0 42 0;
#X connect 37 0 36 1;
#X connect 38 0 43 0;
#X connect 39 0 38 1;
#X connect 40 0 56 0;
#X connect 41 0 40 1;
#X connect 44 0 57 0;
#X connect 46 0 0 3;
#X connect 47 0 66 0;
#X connect 47 0 67 0;
#X connect 48 0 51 0;
#X connect 49 0 62 0;
#X connect 49 0 63 0;
#X connect 50 0 55 0;
#X connect 53 0 58 0;
#X connect 53 0 59 0;
#X connect 54 0 52 0;
#X connect 57 0 45 0;
#X connect 57 0 45 1;
#X connect 58 0 60 0;
#X connect 58 1 61 0;
#X connect 59 0 54 0;
#X connect 60 0 59 1;
#X connect 61 0 59 1;
#X connect 62 0 64 0;
#X connect 62 1 65 0;
#X connect 63 0 50 0;
#X connect 64 0 63 1;
#X connect 65 0 63 1;
#X connect 66 0 68 0;
#X connect 66 1 69 0;
#X connect 67 0 48 0;
#X connect 68 0 67 1;
#X connect 69 0 67 1;
