#N canvas 0 70 1100 783 12;
#X obj 236 388 osc~;
#X obj 301 227 *~ 1.5;
#X obj 301 248 osc~;
#X floatatom 333 192 5 0 0 0 - - - 0;
#X obj 231 357 +~;
#X obj 292 281 *~ 20;
#X floatatom 353 248 5 0 0 0 - - - 0;
#X obj 335 134 / 500;
#X obj 334 75 loadbang;
#X obj 396 221 + 100;
#X obj 397 167 loadbang;
#X obj 319 562 *~;
#X obj 378 363 inlet;
#X msg 376 399 \$1 5;
#X obj 376 420 line~;
#X obj 321 617 outlet~;
#X obj 247 427 *~ 0.5;
#X obj 227 168 inlet~;
#X obj 493 57 r sampleStop;
#X obj 336 113 random 5000;
#X obj 397 200 random 5000;
#X text 489 88 After each playback the synth is slightly randomized
;
#X text 138 139 pitch from sigmund;
#X text 422 361 volume control;
#X connect 0 0 16 0;
#X connect 1 0 2 0;
#X connect 2 0 5 0;
#X connect 3 0 1 1;
#X connect 4 0 0 0;
#X connect 5 0 4 1;
#X connect 6 0 5 1;
#X connect 7 0 3 0;
#X connect 8 0 19 0;
#X connect 9 0 6 0;
#X connect 10 0 20 0;
#X connect 11 0 15 0;
#X connect 12 0 13 0;
#X connect 13 0 14 0;
#X connect 14 0 11 1;
#X connect 16 0 11 0;
#X connect 17 0 1 0;
#X connect 17 0 4 0;
#X connect 18 0 19 0;
#X connect 18 0 20 0;
#X connect 19 0 7 0;
#X connect 20 0 9 0;
