#N canvas 0 22 675 404 10;
#X obj 60 303 s bela_digitalOut15;
#X text 58 199 Digital out \, message rate;
#X obj 60 252 metro 500;
#X obj 60 277 tgl 15 0 empty empty empty 17 7 0 10 -262144 -1 -1 0
1;
#X obj 60 227 loadbang;
#X text 88 276 Blink that LED!;
#X obj 64 149 s bela_setDigital;
#X obj 64 102 loadbang;
#X msg 64 124 out 15;
#X text 134 122 initialise the pin to output;
#X text 463 11 ............................;
#X text 463 21 . ____ ._____ _ .......___ .;
#X text 463 31 .| __ )| ____| |....../ _ |.;
#X text 463 51 .| |_) | |___| |___ / ___ |.;
#X text 463 61 .|____/|_____|_____/_/..._|.io;
#X text 463 71 ............................;
#X text 463 41 .| __ || __|.| |...../ _| |.;
#X text 64 30 Digital Output;
#X text 64 40 ===============;
#X connect 2 0 3 0;
#X connect 3 0 0 0;
#X connect 4 0 2 0;
#X connect 7 0 8 0;
#X connect 8 0 6 0;
