#N canvas 419 54 828 689 10;
#N canvas 0 22 450 278 (subpatch) 0;
#X array bela_multiplexer 1 float 3;
#A 0 0;
#X coords 0 1 1 -1 200 140 1;
#X restore 54 125 graph;
#X obj 353 39 bng 15 250 50 0 empty empty empty 17 7 0 10 -262144 -1
-1;
#X obj 317 124 t b b b b b b;
#X obj 328 14 loadbang;
#X obj 284 59 tgl 15 0 empty empty empty 17 7 0 10 -262144 -1 -1 0
1;
#X obj 380 77 bng 15 250 50 0 empty empty empty 17 7 0 10 -262144 -1
-1;
#X obj 565 34 r bela_multiplexerChannels;
#X obj 547 87 * 8;
#X obj 580 124 print arraySize;
#X obj 294 363 tabread bela_multiplexer;
#X obj 294 331 + 0;
#X obj 324 383 tabread bela_multiplexer;
#X obj 354 403 tabread bela_multiplexer;
#X obj 384 423 tabread bela_multiplexer;
#X obj 414 443 tabread bela_multiplexer;
#X obj 444 463 tabread bela_multiplexer;
#X obj 474 483 tabread bela_multiplexer;
#X obj 504 503 tabread bela_multiplexer;
#X obj 324 331 + 1;
#X obj 354 331 + 2;
#X obj 384 331 + 3;
#X obj 414 331 + 4;
#X obj 444 331 + 5;
#X obj 474 331 + 6;
#X obj 504 331 + 7;
#X obj 281 176 f;
#X obj 334 649 print -n;
#X obj 277 205 + 8;
#X obj 333 529 pack f f f f f f f f f f;
#X obj 306 285 t f f f;
#X obj 265 331 / 8;
#X obj 301 77 metro 600;
#X msg 346 624 _;
#X msg 335 580 mux channel [x. \$1 ] : \$2 \$3 \$4 \$5 \$6 \$7 \$8
\$9;
#X obj 358 233 select 1;
#X obj 628 321 osc~ 100;
#X obj 627 366 dac~;
#X obj 376 264 bang;
#X obj 104 487 pack f f f f f f f f f;
#X msg 286 151 -8;
#X obj 459 157 - 8;
#X floatatom 510 25 5 0 0 0 - - -, f 5;
#X obj 358 204 == 56;
#X obj 323 172 delay 5;
#X connect 1 0 31 0;
#X connect 2 0 39 0;
#X connect 2 5 32 0;
#X connect 3 0 31 0;
#X connect 4 0 31 0;
#X connect 5 0 2 0;
#X connect 6 0 7 0;
#X connect 7 0 8 0;
#X connect 7 0 40 0;
#X connect 9 0 28 1;
#X connect 10 0 9 0;
#X connect 10 0 38 1;
#X connect 11 0 28 2;
#X connect 12 0 28 3;
#X connect 13 0 28 4;
#X connect 14 0 28 5;
#X connect 15 0 28 6;
#X connect 16 0 28 7;
#X connect 17 0 28 8;
#X connect 18 0 11 0;
#X connect 18 0 38 2;
#X connect 19 0 12 0;
#X connect 19 0 38 3;
#X connect 20 0 13 0;
#X connect 20 0 38 4;
#X connect 21 0 14 0;
#X connect 21 0 38 5;
#X connect 22 0 15 0;
#X connect 22 0 38 6;
#X connect 23 0 16 0;
#X connect 23 0 38 7;
#X connect 24 0 17 0;
#X connect 24 0 38 8;
#X connect 25 0 27 0;
#X connect 27 0 25 1;
#X connect 27 0 29 0;
#X connect 27 0 42 0;
#X connect 28 0 33 0;
#X connect 29 0 30 0;
#X connect 29 1 24 0;
#X connect 29 1 23 0;
#X connect 29 1 22 0;
#X connect 29 1 21 0;
#X connect 29 1 20 0;
#X connect 29 1 19 0;
#X connect 29 1 18 0;
#X connect 29 1 10 0;
#X connect 30 0 38 0;
#X connect 30 0 28 0;
#X connect 31 0 2 0;
#X connect 32 0 26 0;
#X connect 33 0 26 0;
#X connect 34 1 37 0;
#X connect 35 0 36 0;
#X connect 35 0 36 1;
#X connect 37 0 43 0;
#X connect 39 0 25 0;
#X connect 40 0 42 1;
#X connect 41 0 7 0;
#X connect 42 0 34 0;
#X connect 43 0 25 0;
