#N canvas 279 22 739 576 10;
#X obj 62 124 loadbang;
#X obj 62 146 metro 20;
#X obj 126 312 snapshot~;
#X msg 68 312 0;
#X obj 68 369 s bela_guiOut;
#X obj 62 167 s clock;
#X obj 68 279 r clock;
#X obj 68 339 pack f f, f 10;
#X obj 126 245 adc~ 3;
#X text 380 17 ............................;
#X text 380 27 . ____ ._____ _ .......___ .;
#X text 380 37 .| __ )| ____| |....../ _ |.;
#X text 380 57 .| |_) | |___| |___ / ___ |.;
#X text 380 67 .|____/|_____|_____/_/..._|.io;
#X text 380 77 ............................;
#X text 380 47 .| __ || __|.| |...../ _| |.;
#X text 30 28 GUIs in p5.js - visualising sensor input;
#X text 30 38 ========================================;
#X text 271 173 This example shows an abstract visualisation;
#X text 271 223 See sketch.js for details.;
#X text 271 193 of as variable amounts of noise in the drawing of lines.
;
#X connect 0 0 1 0;
#X connect 1 0 5 0;
#X connect 2 0 7 1;
#X connect 3 0 7 0;
#X connect 6 0 2 0;
#X connect 6 0 3 0;
#X connect 7 0 4 0;
#X connect 8 0 2 0;
