#N canvas 217 160 450 300 10;
#X obj 139 117 dac~ 27 28 29 30;
#X obj 149 65 inlet~;
#X obj 302 393 adc~ 3;
#X obj 381 397 adc~ 4;
#X obj 323 478 *~;
#X obj 312 454 osc~;
#X obj 301 428 *~ 700;
#X obj 79 56 inlet~;
#X obj 299 66 inlet~;
#X obj 223 56 inlet~;
#X connect 1 0 0 1;
#X connect 2 0 6 0;
#X connect 3 0 4 1;
#X connect 5 0 4 0;
#X connect 6 0 5 0;
#X connect 7 0 0 0;
#X connect 8 0 0 3;
#X connect 9 0 0 2;
