#N canvas 671 603 743 730 10;
#X obj 112 245 rpole~ 1;
#X obj 112 95 adc~ 3;
#X obj 112 266 hip~ 1;
#X obj 112 175 lop~ 100;
#X obj 262 245 rpole~ 1;
#X obj 262 266 hip~ 1;
#X obj 262 175 lop~ 100;
#X obj 412 245 rpole~ 1;
#X obj 412 266 hip~ 1;
#X obj 412 175 lop~ 100;
#X obj 262 95 adc~ 4;
#X obj 112 299 *~;
#X obj 262 299 *~;
#X obj 412 299 *~;
#X obj 69 340 sig~ 1;
#X obj 95 365 /~;
#X obj 112 339 q8_rsqrt~;
#X obj 122 617 samplerate~;
#X obj 95 576 loadbang;
#X obj 95 596 t b b;
#X obj 95 616 f 1;
#X obj 95 636 /;
#X obj 95 656 s _invsr;
#X obj 426 197 r _invsr;
#X obj 276 197 r _invsr;
#X obj 126 197 r _invsr;
#X obj 412 217 *~ 0;
#X obj 262 217 *~ 0;
#X obj 112 217 *~ 0;
#X text 69 31 Integrate accelerometer data to estimate velocity;
#X text 69 41 =================================================;
#X obj 412 95 adc~ 5;
#X obj 112 139 *~ 100;
#X obj 112 117 hip~ 2;
#X obj 262 139 *~ 100;
#X obj 262 117 hip~ 2;
#X obj 412 139 *~ 100;
#X obj 412 117 hip~ 2;
#X obj 95 402 abs~;
#X obj 95 464 clip~ 0 10;
#X obj 95 422 lop~ 30;
#X text 176 443 <<< thresholding (to avoid noise);
#X text 176 423 <<< smoothing;
#X text 146 366 d^2 = x^2 + y^2 + z^2;
#X text 206 340 <<< faster to calculate inverse sqrt;
#X text 506 245 <<< accumulate samples;
#X text 506 138 <<< pre-gain;
#X text 506 118 <<< centre around 0 (DC block);
#X text 506 265 <<< DC block;
#X text 496 95 POOR MAN'S INTEGRATION:;
#X obj 95 524 s~ swingVelocity;
#X obj 32 116 s~ x-axis;
#X obj 182 117 s~ y-axis;
#X obj 332 117 s~ z-axis;
#X obj 95 442 -~ 0.1;
#X connect 0 0 2 0;
#X connect 1 0 33 0;
#X connect 1 0 51 0;
#X connect 2 0 11 0;
#X connect 2 0 11 1;
#X connect 3 0 28 0;
#X connect 4 0 5 0;
#X connect 5 0 12 0;
#X connect 5 0 12 1;
#X connect 6 0 27 0;
#X connect 7 0 8 0;
#X connect 8 0 13 0;
#X connect 8 0 13 1;
#X connect 9 0 26 0;
#X connect 10 0 35 0;
#X connect 10 0 52 0;
#X connect 11 0 16 0;
#X connect 12 0 16 0;
#X connect 13 0 16 0;
#X connect 14 0 15 0;
#X connect 15 0 38 0;
#X connect 16 0 15 1;
#X connect 17 0 21 1;
#X connect 18 0 19 0;
#X connect 19 0 20 0;
#X connect 19 1 17 0;
#X connect 20 0 21 0;
#X connect 21 0 22 0;
#X connect 23 0 26 1;
#X connect 24 0 27 1;
#X connect 25 0 28 1;
#X connect 26 0 7 0;
#X connect 27 0 4 0;
#X connect 28 0 0 0;
#X connect 31 0 37 0;
#X connect 31 0 53 0;
#X connect 32 0 3 0;
#X connect 33 0 32 0;
#X connect 34 0 6 0;
#X connect 35 0 34 0;
#X connect 36 0 9 0;
#X connect 37 0 36 0;
#X connect 38 0 40 0;
#X connect 39 0 50 0;
#X connect 40 0 54 0;
#X connect 54 0 39 0;
