#N canvas 79 22 1104 612 10;
#X obj 27 112 adc~ 3 4 5 6 7 8 9 10, f 92;
#X obj 27 252 dac~ 3 4 5 6 7 8 9 10, f 92;
#X obj 756 113 adc~ 1 2, f 11;
#X obj 756 253 dac~ 1 2, f 11;
#X text 854 113 Audio inputs;
#X text 854 253 Audio outputs;
#X obj 27 467 led-bargraph, f 60;
#X obj 27 356 loadbang;
#X obj 27 398 f;
#X obj 56 398 + 1;
#X obj 27 442 flasher, f 60;
#X obj 475 373 buttons, f 58;
#X text 119 385 Flash LEDs in sequence;
#X obj 475 400 print Button 1:;
#X obj 588 400 print Button 2:;
#X text 921 169 test tone;
#X obj 27 377 metro 150;
#X obj 27 419 % 10;
#X obj 477 463 bela_scope~;
#X text 590 464 Bela scope;
#X obj 31 34 initialise_digitals;
#X text 192 34 Initialise LEDs \, buttons and trigger inputs;
#X obj 861 209 *~;
#X obj 861 168 osc~ 330;
#X obj 876 189 osc~ 0.25;
#X text 852 372 Read from all buttons;
#X text 595 112 Analog (CV) inputs;
#X text 595 252 Analog (CV) outputs;
#X obj 705 400 print Button 3:;
#X obj 821 399 print Button 4:;
#X connect 0 0 1 0;
#X connect 0 1 1 1;
#X connect 0 2 1 2;
#X connect 0 3 1 3;
#X connect 0 4 1 4;
#X connect 0 5 1 5;
#X connect 0 6 1 6;
#X connect 0 7 1 7;
#X connect 2 0 3 0;
#X connect 2 1 3 1;
#X connect 7 0 16 0;
#X connect 8 0 9 0;
#X connect 8 0 17 0;
#X connect 9 0 8 1;
#X connect 10 0 6 0;
#X connect 10 1 6 1;
#X connect 10 2 6 2;
#X connect 10 3 6 3;
#X connect 10 4 6 4;
#X connect 10 5 6 5;
#X connect 10 6 6 6;
#X connect 10 7 6 7;
#X connect 10 8 6 8;
#X connect 10 9 6 9;
#X connect 11 0 13 0;
#X connect 11 1 14 0;
#X connect 11 2 28 0;
#X connect 11 3 29 0;
#X connect 16 0 8 0;
#X connect 17 0 10 0;
#X connect 22 0 3 0;
#X connect 22 0 3 1;
#X connect 23 0 22 0;
#X connect 24 0 22 1;
