#N canvas 79 22 1134 537 10;
#X obj 450 93 adc~ 3 4 5 6 7 8 9 10, f 60;
#X obj 450 143 dac~ 3 4 5 6 7 8 9 10, f 60;
#X obj 504 312 adc~ 1 2, f 11;
#X obj 504 422 dac~ 1 2, f 11;
#X text 602 312 Audio inputs;
#X text 602 422 Audio outputs;
#X obj 54 423 led-bargraph, f 60;
#X obj 54 312 loadbang;
#X obj 54 354 f;
#X obj 83 354 + 1;
#X obj 54 398 flasher, f 60;
#X obj 450 215 buttons, f 58;
#X text 146 341 Flash LEDs in sequence;
#X obj 450 242 print Button 1:;
#X obj 563 242 print Button 2:;
#X text 659 348 test tone;
#X obj 54 333 metro 150;
#X obj 54 375 % 10;
#X obj 797 421 bela_scope~;
#X text 910 422 Bela scope;
#X obj 452 48 initialise_digitals;
#X text 613 48 Initialise LEDs \, buttons and trigger inputs;
#X obj 599 388 *~;
#X obj 599 347 osc~ 330;
#X obj 614 368 osc~ 0.25;
#X text 827 214 Read from all buttons;
#X text 868 93 Analog (CV) inputs;
#X text 868 143 Analog (CV) outputs;
#X obj 680 242 print Button 3:;
#X obj 796 241 print Button 4:;
#X text 28 24 Getting Started;
#X text 28 34 ===============;
#X text 28 54 This patch contains everything you need to get started
with;
#X text 28 144 We initialise the buttons and LEDs \, print when a button
is;
#X text 28 164 pushed \, flash leds in sequence \, pass CV in to CV
out \, pass;
#X text 28 184 audio in to audio out \, and generate a test tone.;
#X text 28 74 PEPPER and is a good starting point when building your
own;
#X text 28 94 patches.;
#X text 28 204 Also try sending a signal to bela_scope~ to visualise
it \,;
#X text 28 224 click the scope button in the Bela IDE to see the signals.
;
#X connect 0 0 1 0;
#X connect 0 1 1 1;
#X connect 0 2 1 2;
#X connect 0 3 1 3;
#X connect 0 4 1 4;
#X connect 0 5 1 5;
#X connect 0 6 1 6;
#X connect 0 7 1 7;
#X connect 2 0 3 0;
#X connect 2 1 3 1;
#X connect 7 0 16 0;
#X connect 8 0 9 0;
#X connect 8 0 17 0;
#X connect 9 0 8 1;
#X connect 10 0 6 0;
#X connect 10 1 6 1;
#X connect 10 2 6 2;
#X connect 10 3 6 3;
#X connect 10 4 6 4;
#X connect 10 5 6 5;
#X connect 10 6 6 6;
#X connect 10 7 6 7;
#X connect 10 8 6 8;
#X connect 10 9 6 9;
#X connect 11 0 13 0;
#X connect 11 1 14 0;
#X connect 11 2 28 0;
#X connect 11 3 29 0;
#X connect 16 0 8 0;
#X connect 17 0 10 0;
#X connect 22 0 3 0;
#X connect 22 0 3 1;
#X connect 23 0 22 0;
#X connect 24 0 22 1;
