#N canvas 0 22 664 176 10;
#X obj 25 135 outlet;
#X obj 25 26 inlet;
#X obj 25 55 select 0;
#X obj 85 135 outlet;
#X obj 145 135 outlet;
#X obj 205 135 outlet;
#X obj 85 55 select 1;
#X obj 145 55 select 2;
#X obj 205 55 select 3;
#X obj 265 135 outlet;
#X obj 325 135 outlet;
#X obj 385 135 outlet;
#X obj 445 135 outlet;
#X obj 505 135 outlet;
#X obj 565 135 outlet;
#X obj 265 55 select 4;
#X obj 325 55 select 5;
#X obj 385 55 select 6;
#X obj 445 55 select 7;
#X obj 505 55 select 8;
#X obj 565 55 select 9;
#X msg 25 84 1;
#X msg 55 84 0;
#X msg 85 104 1;
#X msg 115 104 0;
#X msg 145 84 1;
#X msg 175 84 0;
#X msg 205 104 1;
#X msg 235 104 0;
#X msg 265 84 1;
#X msg 295 84 0;
#X msg 325 104 1;
#X msg 355 104 0;
#X msg 385 84 1;
#X msg 415 84 0;
#X msg 445 104 1;
#X msg 475 104 0;
#X msg 505 84 1;
#X msg 535 84 0;
#X msg 565 104 1;
#X msg 595 104 0;
#X connect 1 0 2 0;
#X connect 1 0 6 0;
#X connect 1 0 8 0;
#X connect 1 0 7 0;
#X connect 1 0 15 0;
#X connect 1 0 16 0;
#X connect 1 0 17 0;
#X connect 1 0 18 0;
#X connect 1 0 19 0;
#X connect 1 0 20 0;
#X connect 2 0 21 0;
#X connect 2 1 22 0;
#X connect 6 0 23 0;
#X connect 6 1 24 0;
#X connect 7 0 25 0;
#X connect 7 1 26 0;
#X connect 8 0 27 0;
#X connect 8 1 28 0;
#X connect 15 0 29 0;
#X connect 15 1 30 0;
#X connect 16 0 31 0;
#X connect 16 1 32 0;
#X connect 17 0 33 0;
#X connect 17 1 34 0;
#X connect 18 0 35 0;
#X connect 18 1 36 0;
#X connect 19 0 37 0;
#X connect 19 1 38 0;
#X connect 20 0 39 0;
#X connect 20 1 40 0;
#X connect 21 0 0 0;
#X connect 22 0 0 0;
#X connect 23 0 3 0;
#X connect 24 0 3 0;
#X connect 25 0 4 0;
#X connect 26 0 4 0;
#X connect 27 0 5 0;
#X connect 28 0 5 0;
#X connect 29 0 9 0;
#X connect 30 0 9 0;
#X connect 31 0 10 0;
#X connect 32 0 10 0;
#X connect 33 0 11 0;
#X connect 34 0 11 0;
#X connect 35 0 12 0;
#X connect 36 0 12 0;
#X connect 37 0 13 0;
#X connect 38 0 13 0;
#X connect 39 0 14 0;
#X connect 40 0 14 0;
