#N canvas 0 22 208 239 10;
#X obj 11 49 cos~;
#X obj 11 153 *~;
#X obj 29 129 line~;
#X obj 61 68 t b b;
#X obj 11 17 phasor~ 700;
#X obj 61 44 inlet;
#X obj 11 178 outlet~;
#X msg 29 98 0.1;
#X msg 61 98 0 100;
#X obj 108 42 vsl 15 128 0 1000 0 0 empty empty empty 0 -9 0 10 -262144
-1 -1 8400 1;
#X obj 108 178 sig~;
#X obj 108 17 inlet;
#X connect 0 0 1 0;
#X connect 1 0 6 0;
#X connect 2 0 1 1;
#X connect 3 0 8 0;
#X connect 3 1 7 0;
#X connect 4 0 0 0;
#X connect 5 0 3 0;
#X connect 7 0 2 0;
#X connect 8 0 2 0;
#X connect 9 0 10 0;
#X connect 10 0 4 0;
#X connect 11 0 9 0;
