#N canvas 67 22 263 223 10;
#X obj 2 -1400 osc~ 230;
#X obj -65 -1332 line~;
#X obj -65 -1308 *~, f 10;
#X obj 65 -1400 noise~;
#X obj 65 -1355 hip~ 700;
#X obj -74 -1402 t b b;
#X msg -78 -1377 1;
#X obj 2 -1378 *~ 0.1;
#X obj 65 -1377 *~ 0.1;
#X obj -65 -1286 outlet~;
#X obj -73 -1423 inlet;
#X msg -43 -1376 0 40;
#X connect 0 0 7 0;
#X connect 1 0 2 0;
#X connect 2 0 9 0;
#X connect 3 0 8 0;
#X connect 4 0 2 1;
#X connect 5 0 11 0;
#X connect 5 1 6 0;
#X connect 6 0 1 0;
#X connect 7 0 2 1;
#X connect 8 0 4 0;
#X connect 10 0 5 0;
#X connect 11 0 1 0;
