#N canvas 424 218 975 749 10;
#X obj 35 201 list;
#X obj 35 161 metro 200;
#X obj 35 135 loadbang;
#X text 119 160 Throttle printing;
#X text 341 60 This receives reading from the cap sensor every block
;
#X obj 183 237 unpack f f f f f f f f f f f f f f f f f f f f f f f
f f f;
#X obj 197 499 playAudioFile~;
#X obj 193 422 change;
#X obj 193 457 route 1 0;
#X obj 488 652 dac~ 1 2;
#X obj 193 397 > 0.5;
#X obj 274 431 loadbang;
#X obj 397 499 playAudioFile~;
#X obj 393 422 change;
#X obj 393 457 route 1 0;
#X obj 393 397 > 0.5;
#X obj 474 431 loadbang;
#X msg 275 457 one.wav;
#X msg 475 457 two.wav;
#X obj 577 499 playAudioFile~;
#X obj 573 422 change;
#X obj 573 457 route 1 0;
#X obj 573 397 > 0.5;
#X obj 654 431 loadbang;
#X msg 655 457 three.wav;
#X obj 757 499 playAudioFile~;
#X obj 753 422 change;
#X obj 753 457 route 1 0;
#X obj 753 397 > 0.5;
#X obj 834 431 loadbang;
#X msg 835 457 four.wav;
#X obj 222 58 r bela_Trill;
#X obj 36 241 print touchSensor;
#X connect 0 0 32 0;
#X connect 1 0 0 0;
#X connect 2 0 1 0;
#X connect 5 0 10 0;
#X connect 5 1 15 0;
#X connect 5 2 22 0;
#X connect 5 3 28 0;
#X connect 6 0 9 0;
#X connect 6 0 9 1;
#X connect 7 0 8 0;
#X connect 8 0 6 0;
#X connect 8 1 6 1;
#X connect 10 0 7 0;
#X connect 11 0 17 0;
#X connect 12 0 9 0;
#X connect 12 0 9 1;
#X connect 13 0 14 0;
#X connect 14 0 12 0;
#X connect 14 1 12 1;
#X connect 15 0 13 0;
#X connect 16 0 18 0;
#X connect 17 0 6 3;
#X connect 18 0 12 3;
#X connect 19 0 9 0;
#X connect 19 0 9 1;
#X connect 20 0 21 0;
#X connect 21 0 19 0;
#X connect 21 1 19 1;
#X connect 22 0 20 0;
#X connect 23 0 24 0;
#X connect 24 0 19 3;
#X connect 25 0 9 0;
#X connect 25 0 9 1;
#X connect 26 0 27 0;
#X connect 27 0 25 0;
#X connect 27 1 25 1;
#X connect 28 0 26 0;
#X connect 29 0 30 0;
#X connect 30 0 25 3;
#X connect 31 0 0 1;
#X connect 31 0 5 0;
