#N canvas 67 22 1229 863 10;
#X obj 263 397 unpack f f f f f f f f f f f f f f f f f f f f f f f
f f f, f 133;
#X obj 267 569 playAudioFile~;
#X obj 263 492 change;
#X obj 263 527 route 1 0;
#X obj 558 722 dac~ 1 2;
#X obj 263 467 > 0.5;
#X obj 344 501 loadbang;
#X obj 467 569 playAudioFile~;
#X obj 463 492 change;
#X obj 463 527 route 1 0;
#X obj 463 467 > 0.5;
#X obj 544 501 loadbang;
#X msg 345 527 one.wav;
#X msg 545 527 two.wav;
#X obj 647 569 playAudioFile~;
#X obj 643 492 change;
#X obj 643 527 route 1 0;
#X obj 643 467 > 0.5;
#X obj 724 501 loadbang;
#X msg 725 527 three.wav;
#X obj 827 569 playAudioFile~;
#X obj 823 492 change;
#X obj 823 527 route 1 0;
#X obj 823 467 > 0.5;
#X obj 904 501 loadbang;
#X msg 905 527 four.wav;
#X obj 176 78 loadbang;
#X obj 264 239 r bela_trill;
#X obj 36 163 s bela_setTrill;
#X msg 36 135 new craft 1 24 diff;
#X obj 264 266 route craft;
#X text 372 266 We are working with Trill Craft;
#X text 372 240 This receives readings from the Trill sensor;
#X text 24 97 Initialise Trill sensor;
#X obj 267 600 throw~ output;
#X obj 467 600 throw~ output;
#X obj 647 600 throw~ output;
#X obj 827 600 throw~ output;
#X obj 571 680 catch~ output;
#X text 600 7 ............................;
#X text 600 17 . ____ ._____ _ .......___ .;
#X text 600 27 .| __ )| ____| |....../ _ |.;
#X text 600 47 .| |_) | |___| |___ / ___ |.;
#X text 600 57 .|____/|_____|_____/_/..._|.io;
#X text 600 67 ............................;
#X text 600 37 .| __ || __|.| |...../ _| |.;
#X text 30 28 Capacitive sensing with Trill Craft;
#X text 30 38 ====================================;
#X text 738 153 Task 1: connect conductive materials to first four
channels;
#X obj 185 163 s bela_setTrill;
#X text 314 156 [prescaler <sensor_id> <value>(;
#X text 318 177 value betwen 1 and 6;
#X text 314 134 Change sensitivity here;
#X text 738 283 triggering of the samples. Check console for readings.
;
#X text 738 233 and how this differs with the size of conductive material.
;
#X obj 36 312 loadbang;
#X obj 36 333 metro 50;
#X msg 36 354 0;
#X obj 36 396 s bela_guiOut;
#X obj 36 375 list;
#X obj 176 99 t b b;
#X text 738 183 Task 2: open the GUI in the IDE to view the readings
;
#X text 738 213 Task 3: investigate the effects of changing the sensitvity
;
#X text 738 263 Task 4: adjust the > threshold until you have reliable
;
#X text 29 688 Every the time the programme is restarted the baseline
;
#X text 29 708 reading of the sensor is reset.;
#X text 29 728 This means if you are touching anything connected to
the;
#X text 29 748 sensor on start up this will be incorporated into the
;
#X text 29 768 baseline.;
#X msg 185 135 prescaler craft 2;
#X connect 0 0 5 0;
#X connect 0 1 10 0;
#X connect 0 2 17 0;
#X connect 0 3 23 0;
#X connect 1 0 34 0;
#X connect 2 0 3 0;
#X connect 3 0 1 0;
#X connect 3 1 1 1;
#X connect 5 0 2 0;
#X connect 6 0 12 0;
#X connect 7 0 35 0;
#X connect 8 0 9 0;
#X connect 9 0 7 0;
#X connect 9 1 7 1;
#X connect 10 0 8 0;
#X connect 11 0 13 0;
#X connect 12 0 1 3;
#X connect 13 0 7 3;
#X connect 14 0 36 0;
#X connect 15 0 16 0;
#X connect 16 0 14 0;
#X connect 16 1 14 1;
#X connect 17 0 15 0;
#X connect 18 0 19 0;
#X connect 19 0 14 3;
#X connect 20 0 37 0;
#X connect 21 0 22 0;
#X connect 22 0 20 0;
#X connect 22 1 20 1;
#X connect 23 0 21 0;
#X connect 24 0 25 0;
#X connect 25 0 20 3;
#X connect 26 0 60 0;
#X connect 27 0 30 0;
#X connect 29 0 28 0;
#X connect 30 0 0 0;
#X connect 30 0 59 1;
#X connect 38 0 4 0;
#X connect 38 0 4 1;
#X connect 55 0 56 0;
#X connect 56 0 57 0;
#X connect 57 0 59 0;
#X connect 59 0 58 0;
#X connect 60 0 69 0;
#X connect 60 1 29 0;
#X connect 69 0 49 0;
