#N canvas 0 22 1280 708 10;
#N canvas 249 122 612 449 samplerate 0;
#X obj 38 17 loadbang;
#X obj 38 66 samplerate~;
#X obj 38 106 swap 100;
#X obj 38 141 /;
#X obj 39 199 outlet;
#X connect 0 0 1 0;
#X connect 1 0 2 0;
#X connect 2 0 3 0;
#X connect 2 1 3 1;
#X connect 3 0 4 0;
#X restore 781 398 pd samplerate;
#X text 402 42 frequency;
#X obj 404 221 cos~;
#X obj 404 242 +~ 1;
#X obj 402 341 *~;
#X obj 403 434 +~ 0;
#X obj 408 577 outlet~;
#X obj 404 127 phasor~;
#X obj 538 222 cos~;
#X obj 538 243 +~ 1;
#X obj 538 344 *~;
#X obj 536 435 +~ 0;
#X obj 652 245 cos~;
#X obj 652 266 +~ 1;
#X obj 653 344 *~;
#X obj 652 431 +~ 0;
#X obj 759 261 cos~;
#X obj 759 280 +~ 1;
#X obj 759 341 *~;
#X obj 760 428 +~ 0;
#X obj 764 581 outlet~;
#X obj 18 31 inlet~;
#X obj 18 69 *~ 0.5;
#X obj 538 186 +~ 0.25;
#X obj 652 209 +~ 0.25;
#X obj 759 225 +~ 0.25;
#X obj 404 97 lop~ 50;
#X text 480 125 phasor controls all movement of the delay reads;
#X text 592 183 sets a quarter out of phase;
#X text 704 205 sets a half out of phase;
#X text 793 259 turns the phasor into a sinewave;
#X text 792 281 makes the range from 0 to 2 instead -1 to 1;
#X text 847 322 each one of these is changing range of how much the
delay position moves;
#X text 802 428 makes sure the effect works properly at the samplerate
Pd is running at;
#X text 74 82 writing into the delay line;
#X text 465 95 smoothes changes in frequency to sound nice;
#X text 815 224 sets a three-quarters out of phase;
#X text 874 487 reading from the delay lines;
#X obj 143 43 inlet~;
#X obj 143 141 *~ 0.5;
#X text 191 153 writing into the delay line;
#X obj 17 102 delwrite~ \$0-CHSbela1 2000;
#X obj 897 19 inlet~;
#X obj 944 47 inlet~;
#X obj 999 76 inlet~;
#X obj 1028 109 inlet~;
#X obj 403 493 vd~ \$0-CHSbela1;
#X obj 536 490 vd~ \$0-CHSbela2;
#X obj 647 500 vd~ \$0-CHSbela1;
#X obj 759 490 vd~ \$0-CHSbela2;
#X text 18 8 Audio in 1;
#X text 142 26 Audio in 2;
#X obj 404 62 inlet~;
#X obj 142 174 delwrite~ \$0-CHSbela2 2000;
#X obj 892 583 outlet~;
#X obj 962 583 outlet~;
#X obj 1042 583 outlet~;
#X obj 1112 583 outlet~;
#X obj 892 557 *~ 0.5;
#X obj 962 557 *~ 0.5;
#X obj 1042 557 *~ 0.5;
#X obj 1112 557 *~ 0.5;
#X text 957 11 Modulation width for;
#X text 957 21 each stage;
#X connect 0 0 5 1;
#X connect 0 0 11 1;
#X connect 0 0 15 1;
#X connect 0 0 19 1;
#X connect 2 0 3 0;
#X connect 3 0 4 0;
#X connect 3 0 58 0;
#X connect 4 0 5 0;
#X connect 5 0 46 0;
#X connect 7 0 2 0;
#X connect 7 0 23 0;
#X connect 8 0 9 0;
#X connect 9 0 10 0;
#X connect 9 0 59 0;
#X connect 10 0 11 0;
#X connect 11 0 47 0;
#X connect 12 0 13 0;
#X connect 13 0 14 0;
#X connect 13 0 60 0;
#X connect 14 0 15 0;
#X connect 15 0 48 0;
#X connect 16 0 17 0;
#X connect 17 0 18 0;
#X connect 17 0 61 0;
#X connect 18 0 19 0;
#X connect 19 0 49 0;
#X connect 21 0 22 0;
#X connect 22 0 41 0;
#X connect 23 0 8 0;
#X connect 23 0 24 0;
#X connect 24 0 12 0;
#X connect 24 0 25 0;
#X connect 25 0 16 0;
#X connect 26 0 7 0;
#X connect 38 0 39 0;
#X connect 39 0 53 0;
#X connect 42 0 4 1;
#X connect 43 0 10 1;
#X connect 44 0 14 1;
#X connect 45 0 18 1;
#X connect 46 0 6 0;
#X connect 47 0 20 0;
#X connect 48 0 6 0;
#X connect 49 0 20 0;
#X connect 52 0 26 0;
#X connect 58 0 54 0;
#X connect 59 0 55 0;
#X connect 60 0 56 0;
#X connect 61 0 57 0;
