#N canvas 180 22 1211 809 10;
#X obj 99 199 loadbang;
#X msg 129 271 listen 0;
#X obj 99 333 oscparse;
#X obj 231 400 print parse-output;
#X msg 99 235 listen 7562;
#X obj 99 309 netreceive -u -b;
#X text 237 231 Listen to port 7562;
#X text 237 271 This can close the connection;
#X text 237 311 The arguments -u and -b must match those in netsend
on Bela;
#X text 237 331 oscparse converts OSC packets into PD messages;
#X text 237 351 print the resultant message;
#X floatatom 63 478 5 0 0 0 - - -;
#X floatatom 120 477 5 0 0 0 - - -;
#X obj 63 373 route list;
#X obj 62 449 route slider counter;
#N canvas 570 187 435 501 env 0;
#X obj 39 15 inlet;
#X obj 39 467 outlet~;
#X obj 39 433 vline~;
#X obj 39 35 bang;
#X msg 38 214 0.5 10;
#X msg 113 221 0 100 100;
#X connect 0 0 3 0;
#X connect 2 0 1 0;
#X connect 3 0 4 0;
#X connect 3 0 5 0;
#X connect 4 0 2 0;
#X connect 5 0 2 0;
#X restore 49 538 pd env;
#X msg 49 512 bang;
#X obj 117 571 osc~ 440;
#X obj 120 529 *~ 220;
#X obj 117 592 *~;
#X obj 117 613 dac~ 1 2;
#X text 590 7 ............................;
#X text 590 17 . ____ ._____ _ .......___ .;
#X text 590 27 .| __ )| ____| |....../ _ |.;
#X text 590 47 .| |_) | |___| |___ / ___ |.;
#X text 590 57 .|____/|_____|_____/_/..._|.io;
#X text 590 67 ............................;
#X text 590 37 .| __ || __|.| |...../ _| |.;
#X text 20 28 Receive OSC message on Bela;
#X text 20 38 ============================;
#X text 22 59 This example shows how to receive osc messages on Bela.
;
#X text 22 79 Run local.pd on your machine to see the patch in action.
;
#X text 23 107 https://learn.bela.io/tutorials/pure-data/communication/open-sound-control/
;
#X connect 0 0 4 0;
#X connect 1 0 5 0;
#X connect 2 0 3 0;
#X connect 2 0 13 0;
#X connect 4 0 5 0;
#X connect 5 0 2 0;
#X connect 13 0 14 0;
#X connect 14 0 11 0;
#X connect 14 0 16 0;
#X connect 14 1 12 0;
#X connect 14 1 18 0;
#X connect 15 0 19 1;
#X connect 16 0 15 0;
#X connect 17 0 19 0;
#X connect 18 0 17 0;
#X connect 19 0 20 0;
#X connect 19 0 20 1;
