#N canvas 229 24 862 575 10;
#X obj 81 124 inlet~;
#X text 293 426 __;
#X text 375 426 __;
#X text 327 426 __;
#X text 426 426 __;
#X text 293 443 1 +;
#X text 329 443 3 +;
#X text 377 443 5 +;
#X text 427 443 7 +;
#X text 243 369 As a continued fraction;
#X obj 96 211 *~;
#X obj 81 322 /~;
#X obj 81 412 /~;
#X obj 81 352 /~;
#X obj 81 382 /~;
#X text 227 415 tanh(z) = z z^2 4z^2 9z^2 ...;
#X obj 148 238 *~ 4;
#X obj 147 269 +~ 3;
#X obj 191 237 *~ 9;
#X obj 190 268 +~ 5;
#X obj 231 238 *~ 16;
#X obj 230 268 +~ 7;
#X obj 96 269 +~ 1;
#X obj 81 472 outlet~;
#X obj 81 442 *~ 576;
#X obj 81 154 *~ 0.308319;
#X text 159 155 1/pi;
#X text 285 476 via Andy Farnell 2009;
#X connect 0 0 25 0;
#X connect 10 0 16 0;
#X connect 10 0 18 0;
#X connect 10 0 20 0;
#X connect 10 0 22 0;
#X connect 11 0 13 0;
#X connect 12 0 24 0;
#X connect 13 0 14 0;
#X connect 14 0 12 0;
#X connect 16 0 17 0;
#X connect 17 0 13 1;
#X connect 18 0 19 0;
#X connect 19 0 14 1;
#X connect 20 0 21 0;
#X connect 21 0 12 1;
#X connect 22 0 11 1;
#X connect 24 0 23 0;
#X connect 25 0 10 1;
#X connect 25 0 10 0;
#X connect 25 0 11 0;
