#N canvas 1322 824 351 339 10;
#X obj 68 131 -;
#X obj 35 176 * 2;
#X obj 14 196 /~ 1;
#X obj 14 148 -~ 0;
#X obj 157 70 inlet radius;
#X obj 68 70 inlet centre;
#X obj 68 90 f \$1;
#X obj 157 90 f \$2;
#X obj 242 73 loadbang;
#X obj 14 279 outlet~;
#X obj 14 50 inlet~ signal;
#X obj 76 110 t b f;
#X obj 14 216 clip~ 0 1;
#X obj 14 237 *~ 512;
#N canvas 0 22 300 350 init 0;
#X obj 153 80 t f f;
#X obj 153 8 loadbang;
#X msg 24 252 0;
#X obj 24 101 sel 1 511;
#X obj 75 126 / 512;
#X obj 75 146 * 6.28319;
#X obj 75 166 cos;
#X obj 75 207 * 0.5;
#X obj 75 186 + 1;
#X msg 75 227 1 \$1;
#X obj 75 247 -;
#X obj 153 50 k.tommygun 513;
#X obj 75 272 tabwrite \$0-ramp;
#X obj 75 292 table \$0-ramp 513;
#X connect 0 0 3 0;
#X connect 0 1 12 1;
#X connect 1 0 11 0;
#X connect 2 0 12 0;
#X connect 3 0 2 0;
#X connect 3 1 2 0;
#X connect 3 2 4 0;
#X connect 4 0 5 0;
#X connect 5 0 6 0;
#X connect 6 0 8 0;
#X connect 7 0 9 0;
#X connect 8 0 7 0;
#X connect 9 0 10 0;
#X connect 10 0 12 0;
#X connect 11 0 0 0;
#X restore 254 283 pd init;
#X text 11 18 Ramps up/down towards value based on radius parameter
;
#X text 11 28 =====================================================
;
#X obj 14 259 tabread4~ \$0-ramp;
#X text 254 308 @krighxz 2014;
#X connect 0 0 3 1;
#X connect 1 0 2 1;
#X connect 2 0 12 0;
#X connect 3 0 2 0;
#X connect 4 0 7 0;
#X connect 5 0 6 0;
#X connect 6 0 0 0;
#X connect 7 0 1 0;
#X connect 7 0 11 0;
#X connect 8 0 6 0;
#X connect 8 0 7 0;
#X connect 10 0 3 0;
#X connect 11 0 0 0;
#X connect 11 1 0 1;
#X connect 12 0 13 0;
#X connect 13 0 17 0;
#X connect 17 0 9 0;
