#N canvas 938 613 156 229 10;
#X obj 28 93 f;
#X msg 111 137 0;
#X obj 54 137 sel 1 0;
#X obj 54 93 + 1;
#X msg 28 71 0;
#X obj 26 137 - 1;
#X obj 26 189 outlet;
#X obj 28 50 inlet;
#X obj 54 116 < \$1;
#X obj 54 159 del 0;
#X text 15 11 Simple counter;
#X text 15 21 ==============;
#X connect 0 0 3 0;
#X connect 1 0 0 1;
#X connect 2 0 9 0;
#X connect 2 1 1 0;
#X connect 3 0 0 1;
#X connect 3 0 5 0;
#X connect 3 0 8 0;
#X connect 4 0 0 0;
#X connect 5 0 6 0;
#X connect 7 0 4 0;
#X connect 8 0 2 0;
#X connect 9 0 0 0;
