#N canvas 1202 971 629 513 10;
#X obj 34 58 inlet~;
#X obj 43 246 delwrite~ \$0-l 100;
#X obj 173 246 delwrite~ \$0-r 100;
#X obj 68 290 vd~ \$0-l;
#X obj 177 283 vd~ \$0-r;
#X obj 325 97 inlet~ pan;
#X obj 325 119 *~ 5;
#X obj 365 141 *~ -1;
#X obj 325 171 +~ 6;
#X obj 365 171 +~ 6;
#X obj 48 330 outlet~;
#X obj 178 330 outlet~;
#X obj 460 99 inlet time;
#X text 43 27 ultra basic presedence delay;
#X text 43 37 ============================;
#X obj 401 24 loadbang;
#X obj 401 46 f \$1;
#X obj 401 68 route 0;
#X obj 460 121 + 5;
#X obj 205 88 *~ 0.5;
#X obj 205 109 +~ 0.5;
#X obj 149 115 sig~ 1;
#X obj 149 137 -~;
#X obj 20 217 *~;
#X obj 118 206 *~;
#X obj 149 160 *~ 0.5;
#X obj 199 159 *~ 0.5;
#X obj 149 182 +~ 0.5;
#X obj 199 182 +~ 0.5;
#X connect 0 0 23 0;
#X connect 0 0 24 0;
#X connect 3 0 10 0;
#X connect 4 0 11 0;
#X connect 5 0 6 0;
#X connect 5 0 19 0;
#X connect 6 0 7 0;
#X connect 6 0 8 0;
#X connect 7 0 9 0;
#X connect 8 0 3 0;
#X connect 9 0 4 0;
#X connect 12 0 6 1;
#X connect 12 0 18 0;
#X connect 15 0 16 0;
#X connect 16 0 17 0;
#X connect 17 1 6 1;
#X connect 17 1 18 0;
#X connect 18 0 9 1;
#X connect 18 0 8 1;
#X connect 19 0 20 0;
#X connect 20 0 22 1;
#X connect 20 0 26 0;
#X connect 21 0 22 0;
#X connect 22 0 25 0;
#X connect 23 0 1 0;
#X connect 23 0 10 0;
#X connect 24 0 2 0;
#X connect 24 0 11 0;
#X connect 25 0 27 0;
#X connect 26 0 28 0;
#X connect 27 0 23 1;
#X connect 28 0 24 1;
