#N canvas 258 64 450 300 10;
#X obj 7 99 dac~ 3;
#X text 4 120 Pitch out;
#X text 44 75 1V/oct;
#X text 7 241 Gate out;
#X obj 12 217 r gate;
#X obj 12 191 dac~ 4;
#X text 17 173 Mod out;
#X obj 11 261 dac~ 5;
#X text 87 241 ADSR out;
#X obj 81 261 dac~ 6;
#X obj 7 75 /~ 60;
#X obj 111 99 s~ loopback-pitch;
#X obj 7 25 r~ out-pitch;
#X obj 12 151 r~ out-CV-mod;
#X obj 82 217 r~ out-CV-adsr;
#X obj 90 181 s~ loopback-CV-mod;
#X obj 147 249 s~ loopback-CV-adsr;
#X obj 7 54 -~ 36;
#X text 42 54 Offset: 0V is MIDI 36;
#X connect 4 0 7 0;
#X connect 10 0 0 0;
#X connect 12 0 11 0;
#X connect 12 0 17 0;
#X connect 13 0 5 0;
#X connect 13 0 15 0;
#X connect 14 0 9 0;
#X connect 14 0 16 0;
#X connect 17 0 10 0;
