#N canvas -4 22 945 523 12;
#X obj 190 169 s bela_setGui;
#X obj 34 259 r bela_guiControl;
#N canvas 0 22 450 278 (subpatch) 0;
#X array xy 2 float 3;
#A 0 -0.414296 -0.214291;
#X coords 0 1 2 -1 200 140 1 0 0;
#X restore 693 254 graph;
#X obj 410 291 metro 400;
#X obj 178 77 bng 15 250 50 0 empty empty empty 17 7 0 10 -262144 -1
-1;
#X obj 179 59 loadbang;
#X msg 395 122 new array xy;
#X obj 410 324 array get xy;
#X obj 410 256 loadbang;
#X obj 410 367 print array xy;
#X text 420 350 Periodically print the array content;
#X text 22 22 Receive a message when mousex or mousey are received
;
#X text 390 88 Update array xy with the input values from buffer 0:
;
#X text 391 102 Bela.data.sendBuffer(0 \, 'float' \, [...]);
#X text 22 32 on the control websocket: Bela.control.send(...);
#X obj 34 293 route mouseX mouseY clickX clickY;
#X obj 34 331 print guiControl: mouseX;
#X obj 92 364 print guiControl: mouseY;
#X obj 148 399 print guiControl: clickX;
#X obj 208 434 print guiControl: clickY;
#X msg 37 105 new control mouseX;
#X msg 214 105 new control mouseY;
#X msg 39 137 new control clickX;
#X msg 184 137 new control clickY;
#X connect 1 0 15 0;
#X connect 3 0 7 0;
#X connect 4 0 20 0;
#X connect 4 0 21 0;
#X connect 4 0 22 0;
#X connect 4 0 23 0;
#X connect 4 0 6 0;
#X connect 5 0 4 0;
#X connect 6 0 0 0;
#X connect 7 0 9 0;
#X connect 8 0 3 0;
#X connect 15 0 16 0;
#X connect 15 1 17 0;
#X connect 15 2 18 0;
#X connect 15 3 19 0;
#X connect 20 0 0 0;
#X connect 21 0 0 0;
#X connect 22 0 0 0;
#X connect 23 0 0 0;
