#N canvas 0 0 1280 778 12;
#X obj 190 359 s bela_setGui;
#X obj 144 449 r bela_guiControl;
#N canvas 0 22 450 278 (subpatch) 0;
#X array xy 2 float 2;
#X coords 0 1 2 -1 200 140 1 0 0;
#X restore 803 444 graph;
#X obj 520 481 metro 400;
#X obj 178 267 bng 15 250 50 0 empty empty empty 17 7 0 10 #fcfcfc
#000000 #000000;
#X obj 179 249 loadbang;
#X msg 395 312 new array xy;
#X obj 520 514 array get xy;
#X obj 520 446 loadbang;
#X obj 520 557 print array xy;
#X text 530 540 Periodically print the array content;
#X text 22 212 Receive a message when mousex or mousey are received
;
#X text 390 278 Update array xy with the input values from buffer 0:
;
#X text 391 292 Bela.data.sendBuffer(0 \, 'float' \, [...]);
#X text 22 222 on the control websocket: Bela.control.send(...);
#X obj 144 483 route mouseX mouseY clickX clickY;
#X obj 144 521 print guiControl: mouseX;
#X obj 202 554 print guiControl: mouseY;
#X obj 258 589 print guiControl: clickX;
#X obj 318 624 print guiControl: clickY;
#X msg 37 295 new control mouseX;
#X msg 214 295 new control mouseY;
#X msg 39 327 new control clickX;
#X msg 184 327 new control clickY;
#X text 590 7 ............................;
#X text 590 17 . ____ ._____ _ .......___ .;
#X text 590 27 .| __ )| ____| |....../ _ |.;
#X text 590 47 .| |_) | |___| |___ / ___ |.;
#X text 590 57 .|____/|_____|_____/_/..._|.io;
#X text 590 67 ............................;
#X text 590 37 .| __ || __|.| |...../ _| |.;
#X text 20 28 Receive data from the GUI;
#X text 20 38 =========================;
#X text 22 59 This example show how to receive data from the GUI.;
#X text 22 79 Launch the GUI in the IDE to start sending mouse position.
;
#X text 22 109 https://learn.bela.io/tutorials/pure-data/communication/graphical-user-interfaces/
;
#X obj 890 275 osc~;
#X obj 72 523 s freq;
#X obj 132 553 s amp;
#X obj 890 155 r freq;
#X obj 890 309 *~;
#X obj 890 343 dac~ 1 2;
#X obj 961 155 r amp;
#X msg 961 205 \$1 20;
#X obj 961 231 line~;
#X obj 890 186 * 2000;
#X obj 890 246 line~;
#X msg 890 216 \$1 200;
#X obj 961 179 * 0.5;
#X text 977 279 Sonify the position;
#X text 977 299 x axis to frequency \, y axis to amplitude;
#X connect 1 0 15 0;
#X connect 3 0 7 0;
#X connect 4 0 20 0;
#X connect 4 0 21 0;
#X connect 4 0 22 0;
#X connect 4 0 23 0;
#X connect 4 0 6 0;
#X connect 5 0 4 0;
#X connect 6 0 0 0;
#X connect 7 0 9 0;
#X connect 8 0 3 0;
#X connect 15 0 16 0;
#X connect 15 0 37 0;
#X connect 15 1 17 0;
#X connect 15 1 38 0;
#X connect 15 2 18 0;
#X connect 15 3 19 0;
#X connect 20 0 0 0;
#X connect 21 0 0 0;
#X connect 22 0 0 0;
#X connect 23 0 0 0;
#X connect 36 0 40 0;
#X connect 39 0 45 0;
#X connect 40 0 41 0;
#X connect 40 0 41 1;
#X connect 42 0 48 0;
#X connect 43 0 44 0;
#X connect 44 0 40 1;
#X connect 45 0 47 0;
#X connect 46 0 36 0;
#X connect 47 0 46 0;
#X connect 48 0 43 0;
