#N canvas 0 22 536 512 10;
#X obj 32 402 *~ 0.2;
#X obj 32 423 dac~ 1 2;
#X obj 128 280 +~;
#X obj 128 311 delwrite~ \$0-sammap 1000;
#X obj 147 208 delread4~ \$0-sammap;
#X obj 147 156 lop~ 10;
#X obj 287 195 adc~ 3;
#X obj 287 216 lop~ 10;
#X obj 148 242 *~;
#X obj 147 186 *~ 200;
#X obj 49 62 adc~ 1;
#X text 11 39 to scope channel 1;
#X text 11 28 Monitor left audio input;
#X obj 67 93 dac~ 27;
#X obj 147 135 adc~ 4;
#X text 244 112 delay effect;
#X text 244 131 controls for delay time and feedback;
#X connect 0 0 1 0;
#X connect 0 0 1 1;
#X connect 2 0 3 0;
#X connect 2 0 0 0;
#X connect 4 0 8 0;
#X connect 5 0 9 0;
#X connect 6 0 7 0;
#X connect 7 0 8 1;
#X connect 8 0 2 1;
#X connect 9 0 4 0;
#X connect 10 0 13 0;
#X connect 10 0 2 0;
#X connect 14 0 5 0;
