#N canvas 160 22 1059 804 10;
#N canvas 0 22 450 278 (subpatch) 0;
#X array \$0-table1 201388 float 2;
#X coords 0 1 201388 -1 200 140 1 0 0;
#X restore 23 391 graph;
#X obj 164 360 dac~;
#X obj 20 199 lop~ 1;
#X text 20 38 ===================================================;
#X text 498 622 <<< loading a file:;
#X text 498 642 point soundfiler to the samples folder;
#X obj 20 260 *~;
#X obj 303 257 *~;
#N canvas 0 22 450 278 (subpatch) 0;
#X array \$0-table2 65238 float 2;
#X coords 0 1 65238 -1 200 140 1 0 0;
#X restore 240 391 graph;
#X obj 41 671 soundfiler;
#X obj 41 589 loadbang;
#X text 497 687 <<< If you include your own samples in the project
;
#X text 590 7 ............................;
#X text 590 17 . ____ ._____ _ .......___ .;
#X text 590 27 .| __ )| ____| |....../ _ |.;
#X text 590 47 .| |_) | |___| |___ / ___ |.;
#X text 590 57 .|____/|_____|_____/_/..._|.io;
#X text 590 67 ............................;
#X text 590 37 .| __ || __|.| |...../ _| |.;
#X text 498 662 name_of_file.wav;
#X obj 303 196 lop~ 2;
#X text 498 585 \$0-table1 contains a sample from file;
#X text 497 707 just change the path to the file name;
#X obj 41 614 \$0;
#X obj 20 311 tabread4~ \$0-table1;
#X obj 303 308 tabread4~ \$0-table2;
#X obj 318 231 r \$0-sampleLength2;
#X obj 35 234 r \$0-sampleLength1;
#X obj 41 695 s \$0-sampleLength1;
#X text 80 256 <<< multiply by sample length >>>;
#X text 78 269 to play the whole sample;
#X text 82 200 <<< avoid zipper noise >>>;
#X obj 301 671 soundfiler;
#X obj 301 589 loadbang;
#X obj 301 614 \$0;
#X obj 301 695 s \$0-sampleLength2;
#X msg 41 643 read -resize greek-rumba.wav \$1-table1;
#X msg 301 643 read -resize rt.wav \$1-table2;
#X obj 20 158 adc~ 4;
#X obj 303 155 adc~ 3;
#X text 70 157 <<< analog input 1+0 (range 0-1) >>>;
#X obj 876 354 *~;
#X obj 906 354 -~;
#X obj 936 354 clip~;
#X text 517 327 task1: look at the velostat signal on the scope;
#X text 517 353 task2: remap the velostat signal range to 0.0-1.0 using
;
#X text 20 28 Sonifying the velostat by scrubbing through a table;
#X text 517 378 task3: Use threshold~ to trigger the sound only when
above;
#X text 517 402 task4: Make the sample restart every time;
#X obj 875 327 dac~ 27 28 29 30;
#X text 523 161 For details on how to build the velostat pressure sensors
;
#X text 523 181 see: http://embelashed.org/paper/sensors/pressure.html
;
#X text 49 784;
#X connect 2 0 6 0;
#X connect 6 0 24 0;
#X connect 7 0 25 0;
#X connect 9 0 28 0;
#X connect 10 0 23 0;
#X connect 20 0 7 0;
#X connect 23 0 36 0;
#X connect 24 0 1 0;
#X connect 24 0 1 1;
#X connect 25 0 1 0;
#X connect 25 0 1 1;
#X connect 26 0 7 1;
#X connect 27 0 6 1;
#X connect 32 0 35 0;
#X connect 33 0 34 0;
#X connect 34 0 37 0;
#X connect 36 0 9 0;
#X connect 37 0 32 0;
#X connect 38 0 2 0;
#X connect 39 0 20 0;
