#N canvas 194 41 941 498 10;
#X obj 33 372 list;
#X obj 33 304 metro 200;
#X obj 33 278 loadbang;
#X text 84 366 Throttle printing;
#X obj 35 48 loadbang;
#X obj 126 265 r bela_trill;
#X obj 35 156 s bela_setTrill;
#X text 176 15 First initialise the Trill sensor;
#X text 218 262 This receives the reading from the Trill sensor.;
#X text 218 318 Which will be prepended with the sensor_id;
#X text 167 413 [<num_touches> <position> <size>];
#X text 618 37 You can also change settings on initialisation:;
#X text 619 57 [prescaler <sensor_id> <value> (between 1 and 8);
#X text 618 92 [threshold <sensor_id> <value>(between 0 and 1.0);
#X obj 126 317 route mybar;
#X text 171 80 <bus> is the i2c bus that yout sensor is connected to
;
#X text 192 140 AUTO(default) will use the default mode for the device
type.;
#X text 172 160 <address> is the address of the sensor. If unspecified
\, the;
#X text 195 172 default address for the device type will be used;
#X text 172 130 <mode> can be one of AUTO \, CENTROID. RAW BASELINE
DIFF.;
#X text 171 100 <device> the type of sensor you are connecting: BAR
SQUARE;
#X text 182 109 CRAFT RING HEX;
#X msg 35 93 new mybar 1 BAR;
#X text 600 290 device that was successfully initialised. The message
;
#X text 600 300 will contain: <sensor_id> <device> <mode> <address>
;
#X text 170 50 Message: [new <sensor_id> <bus> <device> <mode=AUTO>
<address=255>(;
#X text 599 279 bela_trillCreated will receive a message for each;
#X obj 604 332 r bela_trillCreated;
#X obj 604 361 print bela_trillCreated;
#X obj 33 412 print mybar;
#X connect 0 0 29 0;
#X connect 1 0 0 0;
#X connect 2 0 1 0;
#X connect 4 0 22 0;
#X connect 5 0 14 0;
#X connect 14 0 0 1;
#X connect 22 0 6 0;
#X connect 27 0 28 0;
