#N canvas 194 41 941 498 10;
#X obj 33 372 list;
#X obj 33 304 metro 200;
#X obj 33 278 loadbang;
#X text 84 366 Throttle printing;
#X obj 35 48 loadbang;
#X obj 126 265 r bela_trill;
#X obj 35 156 s bela_setTrill;
#X text 218 262 This receives the reading from the Trill sensor.;
#X text 167 413 [<num_touches> <position> <size>];
#X text 618 37 You can also change settings on initialisation:;
#X text 619 57 [prescaler <sensor_id> <value> (between 1 and 8);
#X text 618 92 [threshold <sensor_id> <value>(between 0 and 1.0);
#X obj 126 317 route mybar;
#X text 175 112 <bus> is the i2c bus that yout sensor is connected
to;
#X text 176 162 <address> is the address of the sensor. If unspecified
\, the;
#X text 199 174 default address for the device type will be used;
#X text 175 132 <device> the type of sensor you are connecting: BAR
SQUARE;
#X text 186 141 CRAFT RING HEX;
#X msg 35 93 new mybar 1 BAR;
#X text 600 290 device that was successfully initialised. The message
;
#X text 600 300 will contain: <sensor_id> <device> <mode> <address>
;
#X text 599 279 bela_trillCreated will receive a message for each;
#X obj 604 332 r bela_trillCreated;
#X obj 604 361 print bela_trillCreated;
#X obj 33 412 print mybar;
#X text 218 318 Which will be prepended with the <sensor_id>;
#X text 84 16 >>> See full documentation in examples/Trill/general-pd
<<<;
#X text 180 47 First initialise the Trill sensor;
#X text 174 82 Message: [new <sensor_id> <bus> <device> <address=255>(
;
#X connect 0 0 24 0;
#X connect 1 0 0 0;
#X connect 2 0 1 0;
#X connect 4 0 18 0;
#X connect 5 0 12 0;
#X connect 12 0 0 1;
#X connect 18 0 6 0;
#X connect 22 0 23 0;
