#N canvas 0 22 659 749 10;
#X obj 33 110 soundfiler;
#X obj 33 29 loadbang;
#N canvas 0 22 450 278 (subpatch) 0;
#X array sampletable 201388 float 2;
#X coords 0 1 201388 -1 200 140 1 0 0;
#X restore 34 539 graph;
#X obj 32 312 lop~ 1;
#X text 94 313 <<< avoid zipper noise;
#X obj 32 373 *~;
#X text 94 373 <<< multiply by sample length;
#X obj 32 283 sig~ 1;
#X obj 32 209 inlet;
#X obj 32 435 outlet~;
#X obj 32 394 tabread4~ sampletable;
#X msg 33 62 read -resize greek-rumba.wav sampletable;
#X obj 32 235 list split 1;
#X obj 32 259 list split 1;
#X obj 33 134 s sampleLength;
#X obj 47 347 r sampleLength;
#X connect 0 0 14 0;
#X connect 1 0 11 0;
#X connect 3 0 5 0;
#X connect 5 0 10 0;
#X connect 7 0 3 0;
#X connect 8 0 12 0;
#X connect 10 0 9 0;
#X connect 11 0 0 0;
#X connect 12 1 13 0;
#X connect 13 0 7 0;
#X connect 15 0 5 1;
