#N canvas 47 29 659 749 10;
#X obj 33 29 loadbang;
#N canvas 0 22 450 278 (subpatch) 0;
#X array sampletable 1 float 2;
#X coords 0 1 1 -1 200 140 1 0 0;
#X restore 34 559 graph;
#X obj 32 312 lop~ 1;
#X text 94 313 <<< avoid zipper noise;
#X obj 32 423 *~;
#X text 94 423 <<< multiply by sample length;
#X obj 32 283 sig~ 1;
#X obj 32 209 inlet;
#X obj 32 485 outlet~;
#X obj 32 444 tabread4~ sampletable;
#X msg 33 62 read -resize greek-rumba.wav sampletable;
#X obj 33 134 s sampleLength;
#X obj 48 347 r sampleLength;
#X text 108 234 [<num_touches> <position> <size>];
#X obj 32 235 unpack f f f;
#X msg 47 393 201388;
#X msg 47 370 set \$1 \, bang;
#X obj 150 349 loadbang;
#X obj 118 35 bng 15 250 50 0 empty empty empty 17 7 0 10 #fcfcfc #000000
#000000;
#X obj 33 109 soundfiler;
#X text 138 108 To run with hvcc:;
#X text 138 118 - set "sampletable" to "Save contents";
#X text 138 129 - delete [soundfiler] object;
#X text 138 139 - save and run with build_pd_hvcc.sh;
#X connect 0 0 10 0;
#X connect 2 0 4 0;
#X connect 4 0 9 0;
#X connect 6 0 2 0;
#X connect 7 0 14 0;
#X connect 9 0 8 0;
#X connect 10 0 19 0;
#X connect 12 0 16 0;
#X connect 14 1 6 0;
#X connect 15 0 4 1;
#X connect 16 0 15 0;
#X connect 17 0 15 0;
#X connect 18 0 10 0;
#X connect 19 0 11 0;
