#N canvas 277 230 941 498 10;
#X obj 55 331 list;
#X obj 55 291 metro 200;
#X obj 55 265 loadbang;
#X text 166 291 Throttle printing;
#X obj 35 48 loadbang;
#X obj 243 190 r bela_trill;
#X obj 35 156 s bela_setTrill;
#X text 189 49 First initialise the Trill sensor;
#X text 189 69 Args: [new <sensor_id> <bus> <address> <mode>];
#X text 360 191 This receives the reading from the Trill sensor.;
#X text 360 247 Which will be prepended with the sensor_id;
#X text 551 49 You can also change settings on initialisation:;
#X text 552 69 [prescaler <sensor_id> <value> (between 1 and 8);
#X text 552 103 [threshold <sensor_id> <value>(between 0 and 1.0);
#X text 191 370 [<num_touches> <x> <y> <size>];
#X obj 243 248 route square;
#X obj 56 371 print squareReadings;
#X msg 35 128 new square 1 40 centroid;
#X connect 0 0 16 0;
#X connect 1 0 0 0;
#X connect 2 0 1 0;
#X connect 4 0 17 0;
#X connect 5 0 15 0;
#X connect 15 0 0 1;
#X connect 17 0 6 0;
