#N canvas 282 73 952 465 10;
#X text 166 291 Throttle printing;
#X obj 35 48 loadbang;
#X obj 243 190 r bela_trill;
#X text 189 49 First initialise the Trill sensor;
#X text 360 191 This receives the reading from the Trill sensor.;
#X text 202 371 [<num_touches> <x> <y> <size>];
#X obj 56 371 print squareReadings;
#X obj 537 19 r bela_trillCreated;
#X obj 537 48 print bela_trillCreated;
#X text 84 16 >>> See full documentation in examples/Trill/general-pd
<<<;
#X obj 243 248 route mysquare;
#X text 360 247 Which will be prepended with the <sensor_id>;
#X text 141 84 Message: [new <sensor_id> <bus> <device> <address=255>(
;
#X obj 511 401 dac~ 1 2;
#X obj 533 347 square-synth;
#X text 640 347 Control a synth with the Trill Square sensor;
#N canvas 731 155 450 300 throttle_time 0;
#X obj 49 60 t a b;
#X obj 50 35 inlet;
#X obj 73 193 spigot;
#X obj 106 166 tgl 15 0 empty empty empty 17 7 0 10 #fcfcfc #000000
#000000 0 1;
#X obj 73 235 outlet;
#X obj 270 20 loadbang;
#X obj 156 109 timer;
#X text 96 48 Let one input through every;
#X text 304 50 ms (at least);
#X obj 227 22 bng 15 250 50 0 empty empty empty 17 7 0 10 #fcfcfc #000000
#000000;
#X obj 154 141 >;
#X obj 204 142 select 1;
#X obj 270 50 200;
#X connect 0 0 2 0;
#X connect 0 1 6 1;
#X connect 1 0 0 0;
#X connect 2 0 4 0;
#X connect 3 0 2 1;
#X connect 5 0 12 0;
#X connect 6 0 10 0;
#X connect 9 0 12 0;
#X connect 10 0 3 0;
#X connect 10 0 11 0;
#X connect 11 0 6 0;
#X connect 12 0 10 1;
#X restore 57 316 pd throttle_time;
#X obj 35 156 s bela_setTrill @hv_param;
#X msg 35 128 new mysquare 1 SQUARE;
#X connect 1 0 18 0;
#X connect 2 0 10 0;
#X connect 7 0 8 0;
#X connect 10 0 16 0;
#X connect 10 0 14 0;
#X connect 14 0 13 0;
#X connect 14 0 13 1;
#X connect 16 0 6 0;
#X connect 18 0 17 0;
