#N canvas 47 51 882 711 10;
#X obj 169 56 inlet;
#X text 220 56 [<num_touches> <x> <y> <size>];
#X obj 170 172 tgl 15 0 empty empty empty 17 7 0 10 #fcfcfc #000000
#000000 0 1;
#X obj 170 150 change;
#X text 250 163 <<< this is going to turn 1 when you start touching
the sensor and go back to 0 when you remove your fingers.;
#X obj 169 197 select 0 1;
#X obj 170 266 line~;
#X msg 213 231 1 300;
#X obj 321 407 mtof;
#X obj 321 351 * 12;
#X obj 321 377 + 48;
#X obj 321 438 phasor~;
#X obj 375 438 mtof;
#X obj 375 405 +;
#X text 413 201 [<x> <y> <size>];
#X text 326 332 <x>;
#X text 389 357 <y>;
#X obj 390 378 * 24;
#X obj 171 603 *~;
#X obj 351 491 vcf~ 2;
#X obj 322 289 spigot;
#X obj 355 268 tgl 15 0 empty empty empty 17 7 0 10 #fcfcfc #000000
#000000 0 1;
#X obj 321 312 unpack f f;
#X text 371 226 [<size>;
#X text 449 241 Only allow large-ish touches to influence the pitch
and cutoff;
#X text 449 264 This help preventing pitch changes on release.;
#X msg 169 231 0 500;
#X text 49 99 [<num_touches>];
#X text 410 311 [<x> <y>];
#X obj 171 624 outlet~;
#X obj 380 252 > 0.05;
#X obj 306 244 pack f f;
#X obj 321 203 unpack f f f;
#X obj 196 124 pack f f f;
#X obj 170 100 unpack f f f f;
#X obj 107 391 env~;
#X obj 108 412 print line;
#X obj 375 465 sig~;
#X text 408 465 << sig~ is needed by hvcc;
#X connect 0 0 34 0;
#X connect 2 0 5 0;
#X connect 3 0 2 0;
#X connect 5 0 26 0;
#X connect 5 1 7 0;
#X connect 6 0 35 0;
#X connect 6 0 18 0;
#X connect 7 0 6 0;
#X connect 8 0 11 0;
#X connect 9 0 10 0;
#X connect 10 0 8 0;
#X connect 10 0 13 0;
#X connect 11 0 19 0;
#X connect 12 0 37 0;
#X connect 13 0 12 0;
#X connect 17 0 13 1;
#X connect 18 0 29 0;
#X connect 19 0 18 1;
#X connect 20 0 22 0;
#X connect 21 0 20 1;
#X connect 22 0 9 0;
#X connect 22 1 17 0;
#X connect 26 0 6 0;
#X connect 30 0 21 0;
#X connect 31 0 20 0;
#X connect 32 0 31 0;
#X connect 32 1 31 1;
#X connect 32 2 30 0;
#X connect 33 0 32 0;
#X connect 34 0 3 0;
#X connect 34 1 33 0;
#X connect 34 2 33 1;
#X connect 34 3 33 2;
#X connect 35 0 36 0;
#X connect 37 0 19 1;
