#N canvas 746 22 934 647 10;
#X text 385 32 ............................;
#X text 385 42 . ____ ._____ _ .......___ .;
#X text 385 52 .| __ )| ____| |....../ _ |.;
#X text 385 72 .| |_) | |___| |___ / ___ |.;
#X text 385 82 .|____/|_____|_____/_/..._|.io;
#X text 385 92 ............................;
#X text 385 62 .| __ || __|.| |...../ _| |.;
#X obj 47 199 adc~ 3;
#X obj 47 220 *~ 300;
#X obj 47 241 +~ 100;
#X obj 47 292 osc~;
#X obj 47 323 *~;
#X obj 47 384 *~ 0.2;
#X obj 47 415 dac~ 1 2;
#X obj 187 199 adc~ 4;
#X obj 187 220 *~ 50;
#X obj 187 241 osc~;
#X obj 187 323 +~ 1;
#X obj 187 344 *~ 0.5;
#X obj 187 415 dac~ 3;
#X text 264 415 << Analog output;
#X text 260 200 << Analog input;
#X text 260 240 << Modulating oscillator;
#X text 44 41 AM Synthesis;
#X text 44 51 ============;
#X text 44 71 This example uses two analog inputs to control;
#X text 44 91 a simple amplitude modulation synthesis. The;
#X text 44 111 results range from tremolo to ring modulation.;
#X text 44 141 https://learn.bela.io/tutorials/pure-data/synthesis/am-synthesis/
;
#X connect 7 0 8 0;
#X connect 8 0 9 0;
#X connect 9 0 10 0;
#X connect 10 0 11 0;
#X connect 11 0 12 0;
#X connect 12 0 13 0;
#X connect 12 0 13 1;
#X connect 14 0 15 0;
#X connect 15 0 16 0;
#X connect 16 0 11 1;
#X connect 16 0 17 0;
#X connect 17 0 18 0;
#X connect 18 0 19 0;
