#N canvas 313 400 372 357 10;
#X obj 86 156 -;
#X obj 53 201 * 2;
#X obj 175 95 inlet radius;
#X obj 86 95 inlet centre;
#X obj 86 115 f \$1;
#X obj 175 115 f \$2;
#X obj 260 98 loadbang;
#X obj 94 135 t b f;
#X obj 32 75 inlet value;
#X obj 32 173 - 0;
#X obj 32 221 / 1;
#X obj 32 241 clip 0 1;
#X obj 32 304 outlet;
#X obj 32 262 * 511;
#N canvas 0 22 300 350 init 0;
#X obj 153 80 t f f;
#X obj 153 8 loadbang;
#X msg 24 252 0;
#X obj 24 101 sel 1 511;
#X obj 75 126 / 512;
#X obj 75 146 * 6.28319;
#X obj 75 166 cos;
#X obj 75 207 * 0.5;
#X obj 75 186 + 1;
#X msg 75 227 1 \$1;
#X obj 75 247 -;
#X obj 153 50 k.tommygun 513;
#X obj 75 272 tabwrite \$0-ramp;
#X obj 75 292 table \$0-ramp 513;
#X connect 0 0 3 0;
#X connect 0 1 12 1;
#X connect 1 0 11 0;
#X connect 2 0 12 0;
#X connect 3 0 2 0;
#X connect 3 1 2 0;
#X connect 3 2 4 0;
#X connect 4 0 5 0;
#X connect 5 0 6 0;
#X connect 6 0 8 0;
#X connect 7 0 9 0;
#X connect 8 0 7 0;
#X connect 9 0 10 0;
#X connect 10 0 12 0;
#X connect 11 0 0 0;
#X restore 241 305 pd init;
#X obj 32 284 tabread \$0-ramp;
#X text 31 18 Ramps up/down towards value based on radius parameter
;
#X text 31 28 =====================================================
;
#X connect 0 0 9 1;
#X connect 1 0 10 1;
#X connect 2 0 5 0;
#X connect 3 0 4 0;
#X connect 4 0 0 0;
#X connect 5 0 1 0;
#X connect 5 0 7 0;
#X connect 6 0 4 0;
#X connect 6 0 5 0;
#X connect 7 0 0 0;
#X connect 7 1 0 1;
#X connect 8 0 9 0;
#X connect 9 0 10 0;
#X connect 10 0 11 0;
#X connect 11 0 13 0;
#X connect 13 0 15 0;
#X connect 15 0 12 0;
