#N canvas 160 22 998 772 10;
#N canvas 0 22 450 278 (subpatch) 0;
#X array \$0-table1 201388 float 2;
#X coords 0 1 201388 -1 200 140 1 0 0;
#X restore 23 391 graph;
#X obj 164 360 dac~;
#X obj 20 199 lop~ 1;
#X text 20 28 Load sample into table and scrub using analog input;
#X text 20 38 ===================================================;
#X text 498 622 <<< loading a file:;
#X text 498 642 point soundfiler to the samples folder;
#X obj 20 260 *~;
#X obj 303 257 *~;
#N canvas 0 22 450 278 (subpatch) 0;
#X array \$0-table2 65238 float 2;
#X coords 0 1 65238 -1 200 140 1 0 0;
#X restore 240 391 graph;
#X obj 41 671 soundfiler;
#X obj 41 589 loadbang;
#X text 497 687 <<< If you include your own samples in the project
;
#X text 590 7 ............................;
#X text 590 17 . ____ ._____ _ .......___ .;
#X text 590 27 .| __ )| ____| |....../ _ |.;
#X text 590 47 .| |_) | |___| |___ / ___ |.;
#X text 590 57 .|____/|_____|_____/_/..._|.io;
#X text 590 67 ............................;
#X text 590 37 .| __ || __|.| |...../ _| |.;
#X text 498 662 name_of_file.wav;
#X obj 303 196 lop~ 2;
#X text 498 585 \$0-table1 contains a sample from file;
#X text 596 89 We can record into \$0-table2 from the audio input;
#X text 595 103 \$0-table2 can store up to 10 seconds of audio at 44100kHz.
;
#X obj 658 191 s bela_setDigital;
#X obj 658 148 loadbang;
#X text 596 121 Initialize Bela digital: use digital 0 as an input
;
#X text 497 707 just change the path to the file name;
#X obj 631 289 delay 3;
#X obj 630 311 f;
#X obj 630 332 tgl 15 0 empty empty empty 17 7 0 10 -262144 -1 -1 0
1;
#X obj 630 351 select 1 0;
#X msg 675 375 stop;
#X text 519 448 Record the input to the table;
#X obj 503 306 adc~ 1;
#X text 621 241 Receive the button value as it changes;
#X text 695 288 debounce for 3ms;
#X text 770 257 0: non-pressed;
#X text 770 273 1: pressed;
#X obj 557 428 tabwrite~ \$0-table2;
#X text 568 500 timer returns the duration of the recorded sample;
#X obj 41 614 \$0;
#X obj 20 311 tabread4~ \$0-table1;
#X obj 303 308 tabread4~ \$0-table2;
#X obj 712 450 timer 1 sample;
#X text 567 512 (interval between start and stop) in samples;
#X obj 712 476 s \$0-sampleLength2;
#X obj 318 231 r \$0-sampleLength2;
#X obj 35 234 r \$0-sampleLength1;
#X obj 41 695 s \$0-sampleLength1;
#X text 465 283 to scope channel 1;
#X text 465 272 Monitor left audio input;
#X text 80 256 <<< multiply by sample length >>>;
#X text 78 269 to play the whole sample;
#X text 82 200 <<< avoid zipper noise >>>;
#X obj 630 399 print recording;
#X obj 503 338 dac~ 27;
#X msg 630 375 start;
#X obj 631 262 r bela_digitalIn18;
#X msg 658 169 in 18 \, out 17;
#X obj 707 343 s bela_digitalOut17;
#X obj 301 671 soundfiler;
#X obj 301 589 loadbang;
#X obj 301 614 \$0;
#X obj 301 695 s \$0-sampleLength2;
#X msg 41 643 read -resize greek-rumba.wav \$1-table1;
#X msg 301 643 read -resize rt.wav \$1-table2;
#X obj 20 158 adc~ 4;
#X obj 303 155 adc~ 3;
#X text 70 157 <<< analog input 1+0 (range 0-1) >>>;
#X connect 2 0 7 0;
#X connect 7 0 43 0;
#X connect 8 0 44 0;
#X connect 10 0 50 0;
#X connect 11 0 42 0;
#X connect 21 0 8 0;
#X connect 26 0 60 0;
#X connect 29 0 30 0;
#X connect 30 0 31 0;
#X connect 30 0 61 0;
#X connect 31 0 32 0;
#X connect 32 0 40 0;
#X connect 32 0 45 0;
#X connect 32 0 58 0;
#X connect 32 1 33 0;
#X connect 32 1 45 1;
#X connect 33 0 40 0;
#X connect 33 0 56 0;
#X connect 35 0 40 0;
#X connect 35 0 57 0;
#X connect 42 0 66 0;
#X connect 43 0 1 0;
#X connect 43 0 1 1;
#X connect 44 0 1 0;
#X connect 44 0 1 1;
#X connect 45 0 47 0;
#X connect 48 0 8 1;
#X connect 49 0 7 1;
#X connect 58 0 56 0;
#X connect 59 0 30 1;
#X connect 59 0 29 0;
#X connect 60 0 25 0;
#X connect 62 0 65 0;
#X connect 63 0 64 0;
#X connect 64 0 67 0;
#X connect 66 0 10 0;
#X connect 67 0 62 0;
#X connect 68 0 2 0;
#X connect 69 0 21 0;
