#N canvas 243 332 975 258 10;
#X obj 531 117 s bela_setDigital;
#X obj 531 70 loadbang;
#X msg 531 92 out 17 ~;
#X text 601 90 initialise the pin to output at signal rate;
#X obj 57 166 dac~ 17;
#X text 129 166 <<< digital output 6 at signal rate (see digital example
for numbering explanation).;
#X obj 57 60 phasor~ 2000;
#X obj 57 101 expr~ $v1 < 0.5;
#X text 189 101 <<< PWM signal with 50% duty cycle;
#X connect 1 0 2 0;
#X connect 2 0 0 0;
#X connect 6 0 7 0;
#X connect 7 0 4 0;
