#N canvas 461 525 651 756 10;
#X obj 45 706 dac~ 1 2;
#X obj 45 663 *~ 0.1;
#X obj 45 262 mtof;
#X obj 45 300 phasor~ 440;
#X obj 201 303 * 20;
#X obj 201 326 + 200;
#X obj 201 446 * 10;
#X obj 45 530 hip~;
#X obj 45 552 hip~;
#X obj 45 574 hip~;
#X obj 45 595 hip~;
#X obj 201 373 lop~ 4;
#X obj 201 513 line;
#X obj 201 468 + 50;
#X msg 201 490 \$1 200;
#X obj 45 404 vcf~ 4;
#X obj 45 202 mono;
#X obj 45 158 notein 0;
#X obj 201 280 ctlin 5 0;
#X obj 201 424 ctlin 6 0;
#X obj 201 350 sig~ 1000;
#X obj 45 322 *~ 2;
#X obj 45 344 -~ 1;
#X obj 78 641 * 0.1;
#X text 274 423 <<< cc 6 controls high pass centre frequency;
#X text 274 280 <<< cc 5 controls resonant low pass centre frequency
;
#X text 39 11 Hello midi!;
#X text 37 21 ===========;
#X text 108 203 <<< abstraction for monophonic voice stealing;
#X obj 66 233 s gate;
#X obj 78 619 r gate;
#X text 43 53 Here's a simple monophonic synthesiser that is controllable
;
#X text 43 66 with a midi controller. Note and control messages can
be;
#X text 43 80 obtained using the;
#X obj 169 80 notein;
#X text 233 80 and;
#X obj 260 80 ctlin;
#X text 315 80 objects.;
#X text 43 104 Most midi devices should be compatible when plugged
into;
#X text 43 117 the BeagleBone's USB port.;
#X text 445 5 ............................;
#X text 445 15 . ____ ._____ _ .......___ .;
#X text 445 25 .| __ )| ____| |....../ _ |.;
#X text 445 45 .| |_) | |___| |___ / ___ |.;
#X text 445 55 .|____/|_____|_____/_/..._|.io;
#X text 445 65 ............................;
#X text 445 35 .| __ || __|.| |...../ _| |.;
#X connect 1 0 0 1;
#X connect 1 0 0 0;
#X connect 2 0 3 0;
#X connect 3 0 21 0;
#X connect 4 0 5 0;
#X connect 5 0 20 0;
#X connect 6 0 13 0;
#X connect 7 0 8 0;
#X connect 8 0 9 0;
#X connect 9 0 10 0;
#X connect 10 0 1 0;
#X connect 11 0 15 1;
#X connect 12 0 7 1;
#X connect 12 0 8 1;
#X connect 12 0 9 1;
#X connect 12 0 10 1;
#X connect 13 0 14 0;
#X connect 14 0 12 0;
#X connect 15 0 7 0;
#X connect 16 0 2 0;
#X connect 16 1 29 0;
#X connect 17 0 16 0;
#X connect 17 1 16 1;
#X connect 18 0 4 0;
#X connect 19 0 6 0;
#X connect 20 0 11 0;
#X connect 21 0 22 0;
#X connect 22 0 15 0;
#X connect 23 0 1 1;
#X connect 30 0 23 0;
