#N canvas 106 45 676 441 10;
#X obj 60 297 tgl 15 0 empty empty empty 17 7 0 10 -262144 -1 -1 0
1;
#X text 88 296 Blink that LED!;
#X obj 64 149 s bela_setDigital;
#X obj 64 102 loadbang;
#X text 463 11 ............................;
#X text 463 21 . ____ ._____ _ .......___ .;
#X text 463 31 .| __ )| ____| |....../ _ |.;
#X text 463 51 .| |_) | |___| |___ / ___ |.;
#X text 463 61 .|____/|_____|_____/_/..._|.io;
#X text 463 71 ............................;
#X text 463 41 .| __ || __|.| |...../ _| |.;
#X text 64 40 ===============;
#X text 165 123 initialise the pins to input and output;
#X text 64 30 Digital Input;
#X text 58 199 Digital input and out \, message rate;
#X obj 60 353 s bela_digitalOut17;
#X msg 64 124 in 18 \, out 17;
#X obj 60 245 r bela_digitalIn18;
#X obj 219 353 print;
#X msg 219 327 Button pressed value: \$1;
#X text 398 327 Print the value to the console;
#X text 415 228 Task: print the value of the button;
#X text 415 254 You will occasionally see it bounce.;
#X text 415 266 Add a debouncer using [delay].;
#X text 415 155 Hardware: connect a button to P9_14 \, see;
#X text 415 169 attached diagram and Bela pin diagram.;
#X text 415 242 to the console of the IDE (192.168.7.2).;
#X connect 0 0 15 0;
#X connect 0 0 19 0;
#X connect 3 0 16 0;
#X connect 16 0 2 0;
#X connect 17 0 0 0;
#X connect 19 0 18 0;
