#N canvas 77 22 975 749 10;
#X obj 222 58 r bela_capTouch;
#X obj 35 201 list;
#X obj 35 161 metro 200;
#X obj 35 135 loadbang;
#X obj 35 241 print capTouch;
#X text 119 160 Throttle printing;
#X text 341 60 This receives reading from the cap sensor every block
;
#X obj 183 237 unpack f f f f f f f f f f f f f f f f f f f f f f f
f f f, f 100;
#X obj 197 499 playAudioFile~;
#X obj 193 422 change;
#X obj 193 457 route 1 0;
#X obj 488 652 dac~ 1 2;
#X obj 193 397 > 0.5;
#X obj 274 431 loadbang;
#X obj 397 499 playAudioFile~;
#X obj 393 422 change;
#X obj 393 457 route 1 0;
#X obj 393 397 > 0.5;
#X obj 474 431 loadbang;
#X msg 275 457 one.wav;
#X msg 475 457 two.wav;
#X obj 577 499 playAudioFile~;
#X obj 573 422 change;
#X obj 573 457 route 1 0;
#X obj 573 397 > 0.5;
#X obj 654 431 loadbang;
#X msg 655 457 three.wav;
#X obj 757 499 playAudioFile~;
#X obj 753 422 change;
#X obj 753 457 route 1 0;
#X obj 753 397 > 0.5;
#X obj 834 431 loadbang;
#X msg 835 457 four.wav;
#X connect 0 0 1 1;
#X connect 0 0 7 0;
#X connect 1 0 4 0;
#X connect 2 0 1 0;
#X connect 3 0 2 0;
#X connect 7 0 12 0;
#X connect 7 1 17 0;
#X connect 7 2 24 0;
#X connect 7 3 30 0;
#X connect 8 0 11 0;
#X connect 8 0 11 1;
#X connect 9 0 10 0;
#X connect 10 0 8 0;
#X connect 10 1 8 1;
#X connect 12 0 9 0;
#X connect 13 0 19 0;
#X connect 14 0 11 0;
#X connect 14 0 11 1;
#X connect 15 0 16 0;
#X connect 16 0 14 0;
#X connect 16 1 14 1;
#X connect 17 0 15 0;
#X connect 18 0 20 0;
#X connect 19 0 8 3;
#X connect 20 0 14 3;
#X connect 21 0 11 0;
#X connect 21 0 11 1;
#X connect 22 0 23 0;
#X connect 23 0 21 0;
#X connect 23 1 21 1;
#X connect 24 0 22 0;
#X connect 25 0 26 0;
#X connect 26 0 21 3;
#X connect 27 0 11 0;
#X connect 27 0 11 1;
#X connect 28 0 29 0;
#X connect 29 0 27 0;
#X connect 29 1 27 1;
#X connect 30 0 28 0;
#X connect 31 0 32 0;
#X connect 32 0 27 3;
