#N canvas 225 22 842 578 10;
#X obj 55 403 line~;
#X msg 55 376 1 \, 0 100;
#X text 61 355 trigger envelope;
#X obj 55 424 *~ 100;
#X obj 55 336 r trigger;
#X obj 364 291 tgl 15 0 empty empty empty 17 7 0 10 -262144 -1 -1 0
1;
#X obj 364 215 snapshot~;
#X obj 364 187 adc~ 9;
#X obj 302 165 loadbang;
#X obj 302 186 metro 100;
#X obj 364 266 change;
#X obj 364 239 > 0.4;
#X obj 78 210 midi-to-~;
#X obj 78 252 synth;
#X obj 263 317 == 0;
#X obj 263 339 tgl 15 0 empty empty empty 17 7 0 10 -262144 -1 -1 0
1;
#X obj 368 442 print;
#X msg 301 407 using local control;
#X msg 437 407 using remote control;
#X obj 364 378 select 0 1;
#X obj 388 338 remote-control;
#X obj 263 362 local-control;
#X obj 78 231 output-patch;
#X text 49 311 Unused :(;
#X text 30 132 adc~ 10: portamento;
#X text 30 62 adc~/dac~ 3: pitch;
#X text 30 73 adc~/dac~ 4: mod;
#X text 30 106 adc~/dac~ 6: adsr;
#X text 30 122 adc~ 9: local/remote CV (waveshaping always remote)
;
#X text 30 83 dac~ 5: gate out;
#X text 30 94 adc~ 5: waveshaping in;
#X text 590 6 ............................;
#X text 590 16 . ____ ._____ _ .......___ .;
#X text 590 26 .| __ )| ____| |....../ _ |.;
#X text 590 46 .| |_) | |___| |___ / ___ |.;
#X text 590 56 .|____/|_____|_____/_/..._|.io;
#X text 590 66 ............................;
#X text 590 36 .| __ || __|.| |...../ _| |.;
#X text 20 27 Monophonic synth;
#X text 20 35 ================;
#X connect 0 0 3 0;
#X connect 1 0 0 0;
#X connect 4 0 1 0;
#X connect 5 0 14 0;
#X connect 5 0 19 0;
#X connect 5 0 20 0;
#X connect 6 0 11 0;
#X connect 7 0 6 0;
#X connect 8 0 9 0;
#X connect 9 0 6 0;
#X connect 10 0 5 0;
#X connect 11 0 10 0;
#X connect 14 0 15 0;
#X connect 15 0 21 0;
#X connect 17 0 16 0;
#X connect 18 0 16 0;
#X connect 19 0 17 0;
#X connect 19 1 18 0;
