#N canvas 732 161 541 451 10;
#X obj 202 308 *~;
#X obj 194 390 dac~;
#X obj 203 80 phasor~;
#X obj 203 168 clip~ -1 1;
#X obj 203 103 -~ 0.5;
#X obj 203 125 *~ 2;
#X obj 249 101 select 0 1;
#X obj 275 81 tgl 15 0 empty empty empty 17 7 0 10 -262144 -1 -1 0
1;
#X msg 247 124 1;
#X msg 277 124 1e+08;
#X text 270 62 Saw/square;
#X obj 202 283 vcf~ 3;
#X obj 203 57 mtof~;
#X obj 277 16 loadbang;
#X msg 276 44 1;
#X obj 218 260 *~;
#X obj 233 217 *~ 10;
#X obj 233 239 +~ 1;
#X obj 202 342 *~ 0.2;
#X obj 203 32 catch~ pitch;
#X obj 251 283 catch~ CV-adsr;
#X obj 233 196 catch~ CV-mod;
#X obj 342 37 r gate;
#X obj 344 141 +~ 1;
#X obj 203 147 *~;
#X obj 344 118 *~ 50;
#X obj 344 91 catch~ waveshaping;
#X connect 0 0 18 0;
#X connect 2 0 4 0;
#X connect 3 0 11 0;
#X connect 4 0 5 0;
#X connect 5 0 24 0;
#X connect 6 0 8 0;
#X connect 6 1 9 0;
#X connect 7 0 6 0;
#X connect 8 0 24 1;
#X connect 9 0 24 1;
#X connect 11 0 0 0;
#X connect 12 0 2 0;
#X connect 12 0 15 0;
#X connect 13 0 14 0;
#X connect 14 0 7 0;
#X connect 15 0 11 1;
#X connect 16 0 17 0;
#X connect 17 0 15 1;
#X connect 18 0 1 0;
#X connect 18 0 1 1;
#X connect 19 0 12 0;
#X connect 20 0 0 1;
#X connect 21 0 16 0;
#X connect 22 0 7 0;
#X connect 23 0 24 1;
#X connect 24 0 3 0;
#X connect 25 0 23 0;
#X connect 26 0 25 0;
