#N canvas 615 23 825 662 10;
#X obj 40 552 outlet~ envelope;
#X obj 40 510 vline~;
#X obj 41 97 snapshot~;
#X obj 64 52 loadbang;
#X obj 64 75 metro 10;
#X obj 194 253 float;
#X obj 236 253 + 1;
#X obj 260 408 sig~ 1;
#X obj 236 275 % 8;
#X obj 236 317 select 0 1 2 3 4 5 6 7;
#X msg 266 345 1.2;
#X msg 296 345 1.5;
#X msg 326 345 2;
#X msg 236 345 1;
#X msg 356 345 1.5;
#X msg 386 345 1.2;
#X msg 458 345 1.2;
#X obj 512 197 metro 250;
#X obj 512 219 s clock;
#X obj 19 387 r clock;
#X obj 194 226 r clock;
#X obj 361 28 inlet clock;
#X obj 40 172 s tempo;
#X obj 361 74 s clock;
#X obj 544 406 r clock;
#X obj 544 552 outlet~ toggle-led;
#X obj 260 552 outlet~ frequency-multiplier;
#X obj 361 50 bang;
#X obj 279 274 random 8;
#X msg 416 345 1.333;
#X obj 41 28 inlet~ tempo;
#X obj 41 119 + 0.005;
#X obj 544 512 vline~;
#X obj 559 430 r tempo;
#X obj 544 457 f;
#X text 621 158 << generate master clock;
#X text 501 348 << multipliers for base freqeuncy;
#X text 641 428 << envelope LED;
#X text 115 434 << amplitude envelope;
#X text 441 28 << control rate input to trigger note;
#X text 131 28 << signal rate input tempo;
#X obj 563 165 r tempo;
#X obj 495 149 loadbang;
#X obj 496 175 tgl 15 0 empty empty empty 17 7 0 10 -262144 -1 -1 1
1;
#X msg 544 484 1 10 \, 0 \$1 10;
#X obj 40 142 * 1500;
#X obj 83 322 r \$0-sampleLength1;
#X msg 40 482 1 \$1 \, 0 0 \$1;
#X obj 40 457 *;
#X connect 1 0 0 0;
#X connect 2 0 31 0;
#X connect 3 0 4 0;
#X connect 4 0 2 0;
#X connect 5 0 6 0;
#X connect 6 0 5 1;
#X connect 6 0 8 0;
#X connect 7 0 26 0;
#X connect 8 0 9 0;
#X connect 9 0 13 0;
#X connect 9 1 10 0;
#X connect 9 2 11 0;
#X connect 9 3 12 0;
#X connect 9 4 14 0;
#X connect 9 5 15 0;
#X connect 9 6 29 0;
#X connect 9 7 16 0;
#X connect 10 0 7 0;
#X connect 10 0 48 1;
#X connect 11 0 7 0;
#X connect 11 0 48 1;
#X connect 12 0 7 0;
#X connect 12 0 48 1;
#X connect 13 0 7 0;
#X connect 13 0 48 1;
#X connect 14 0 7 0;
#X connect 14 0 48 1;
#X connect 15 0 7 0;
#X connect 15 0 48 1;
#X connect 16 0 7 0;
#X connect 16 0 48 1;
#X connect 17 0 18 0;
#X connect 19 0 48 0;
#X connect 20 0 5 0;
#X connect 21 0 27 0;
#X connect 24 0 34 0;
#X connect 27 0 23 0;
#X connect 29 0 7 0;
#X connect 29 0 48 1;
#X connect 30 0 2 0;
#X connect 31 0 45 0;
#X connect 32 0 25 0;
#X connect 33 0 34 1;
#X connect 34 0 44 0;
#X connect 41 0 17 1;
#X connect 42 0 43 0;
#X connect 43 0 17 0;
#X connect 44 0 32 0;
#X connect 45 0 22 0;
#X connect 46 0 48 0;
#X connect 47 0 1 0;
#X connect 48 0 47 0;
