#N canvas 0 22 450 300 10;
#X obj 109 33 inlet;
#X obj 109 80 switch~;
#X obj 109 57 tgl 15 0 empty empty empty 17 7 0 10 -262144 -1 -1 1
1;
#X obj 36 161 r~ loopback-pitch;
#X obj 36 184 throw~ pitch;
#X obj 146 161 r~ loopback-CV-mod;
#X obj 146 184 throw~ CV-mod;
#X obj 266 161 r~ loopback-CV-adsr;
#X obj 266 184 throw~ CV-adsr;
#X connect 0 0 2 0;
#X connect 2 0 1 0;
#X connect 3 0 4 0;
#X connect 5 0 6 0;
#X connect 7 0 8 0;
