#N canvas 0 22 658 301 10;
#X obj 203 14 notein;
#X obj 319 10 bendin;
#X obj 203 151 +;
#X obj 199 118 t b f;
#X floatatom 319 77 5 0 0 0 - - -, f 5;
#X obj 319 32 expr ($f1 - 8192) / 8192;
#X obj 319 54 * 2;
#X obj 203 40 mono 1 1;
#X obj 353 173 select 0 1;
#X floatatom 203 66 5 0 0 0 - - -, f 5;
#X obj 353 153 tgl 15 0 empty empty empty 17 7 0 10 -262144 -1 -1 0
1;
#X text 402 233 gate envelope;
#X msg 407 205 0 300;
#X text 471 31 Rescale to -1:1;
#X obj 54 157 snapshot~;
#X obj 53 112 bng 15 250 50 0 empty empty empty 17 7 0 10 -262144 -1
-1;
#X obj 53 92 loadbang;
#X text 34 42 Portamento;
#X obj 30 59 adc~ 10;
#X obj 54 208 * 100;
#X obj 53 134 metro 50;
#X obj 54 184 pow 2;
#X obj 54 232 + 0.1;
#X obj 533 178 lop~ 300;
#X obj 54 257 s portamento;
#X obj 233 148 r portamento;
#X obj 248 66 s trigger;
#X obj 225 86 s gate;
#X obj 353 127 r gate;
#X obj 203 175 lop~;
#X obj 533 154 /;
#X obj 533 107 ctlin 1;
#X msg 533 131 \$1 127;
#X msg 353 205 1 100;
#X obj 353 230 vline~;
#X obj 203 199 s~ out-pitch;
#X obj 353 255 s~ out-CV-adsr;
#X obj 533 201 s~ out-CV-mod;
#X connect 0 0 7 0;
#X connect 0 1 7 1;
#X connect 1 0 5 0;
#X connect 2 0 29 0;
#X connect 3 0 2 0;
#X connect 3 1 2 1;
#X connect 4 0 3 0;
#X connect 5 0 6 0;
#X connect 6 0 4 0;
#X connect 7 0 9 0;
#X connect 7 1 27 0;
#X connect 7 2 26 0;
#X connect 8 0 12 0;
#X connect 8 1 33 0;
#X connect 9 0 2 0;
#X connect 10 0 8 0;
#X connect 12 0 34 0;
#X connect 14 0 21 0;
#X connect 15 0 20 0;
#X connect 16 0 15 0;
#X connect 18 0 14 0;
#X connect 19 0 22 0;
#X connect 20 0 14 0;
#X connect 21 0 19 0;
#X connect 22 0 24 0;
#X connect 23 0 37 0;
#X connect 25 0 29 1;
#X connect 28 0 10 0;
#X connect 29 0 35 0;
#X connect 30 0 23 0;
#X connect 31 0 32 0;
#X connect 32 0 30 0;
#X connect 33 0 34 0;
#X connect 34 0 36 0;
