#N canvas 69 22 885 722 10;
#N canvas 0 23 450 278 (subpatch) 0;
#X array \$0-activeNotes 127 float 2;
#X coords 0 100 127 -1 200 140 1 0 0;
#X restore 568 210 graph;
#N canvas 89 91 329 192 resetArray 0;
#X obj 121 145 tabwrite \$0-activeNotes;
#X msg 123 115 -0.5;
#X obj 154 90 t b f;
#X msg 129 45 128;
#X obj 103 14 inlet;
#X text 212 71 countto;
#X obj 153 69 countTo;
#X connect 1 0 0 0;
#X connect 2 0 1 0;
#X connect 2 1 0 1;
#X connect 3 0 6 0;
#X connect 4 0 3 0;
#X connect 6 0 2 0;
#X restore 776 236 pd resetArray;
#X obj 776 210 loadbang;
#X obj 169 469 maxArray \$0-activeNotes 128;
#X obj 313 580 f;
#X obj 169 498 >= 0;
#X floatatom 313 602 5 0 0 0 - - -, f 5;
#X obj 169 523 select 1;
#X obj 202 188 f;
#X text 199 111 note;
#X text 259 117 velocity;
#X obj 235 188 > 0;
#X obj 196 402 tabwrite \$0-activeNotes;
#X obj 169 358 f;
#X obj 107 293 f;
#X obj 134 293 + 1;
#X msg 122 271 -1;
#X msg 210 358 -0.5;
#X obj 202 218 spigot;
#X obj 304 218 spigot;
#X obj 337 186 == 0;
#X obj 304 243 t b f;
#X obj 202 132 inlet;
#X obj 261 133 inlet;
#X obj 313 631 outlet;
#X obj 169 444 bng 15 250 50 0 empty empty empty 17 7 0 10 -262144
-1 -1;
#X obj 202 243 t b f;
#X obj 169 381 t b f;
#X text 89 99 outlet 2 gate;
#X obj 477 684 outlet;
#X text 89 77 outlet 1 most recent note active (-1 otherwise);
#X text 156 602 most recent note active;
#X msg 465 640 0;
#X msg 495 641 1;
#X obj 261 155 t b f f;
#X obj 122 248 loadbang;
#X text 110 38 pass in velocity/note pairs (velocity should come in
first) and obtain as an output the most recent note still active.;
#X obj 477 663 tgl 15 0 empty empty empty 17 7 0 10 -262144 -1 -1 0
1;
#X obj 650 601 change;
#X obj 650 624 bng 15 250 50 0 empty empty empty 17 7 0 10 -262144
-1 -1;
#X obj 650 645 outlet;
#X text 711 621 trigger out;
#X text 89 119 outlet 3 trigger;
#X obj 605 572 select 0;
#X text 520 677 Gate out;
#X connect 2 0 1 0;
#X connect 3 0 5 0;
#X connect 3 1 4 1;
#X connect 3 1 43 0;
#X connect 4 0 6 0;
#X connect 4 0 33 0;
#X connect 5 0 7 0;
#X connect 6 0 24 0;
#X connect 7 0 4 0;
#X connect 7 1 32 0;
#X connect 8 0 18 0;
#X connect 8 0 19 0;
#X connect 11 0 18 1;
#X connect 13 0 27 0;
#X connect 14 0 15 0;
#X connect 15 0 14 1;
#X connect 15 0 13 1;
#X connect 16 0 14 1;
#X connect 17 0 27 0;
#X connect 18 0 26 0;
#X connect 19 0 21 0;
#X connect 20 0 19 1;
#X connect 21 0 17 0;
#X connect 21 1 12 1;
#X connect 22 0 8 0;
#X connect 23 0 34 0;
#X connect 25 0 3 0;
#X connect 26 0 13 0;
#X connect 26 1 12 1;
#X connect 27 0 25 0;
#X connect 27 1 12 0;
#X connect 32 0 37 0;
#X connect 33 0 37 0;
#X connect 34 0 14 0;
#X connect 34 1 11 0;
#X connect 34 2 20 0;
#X connect 35 0 16 0;
#X connect 37 0 29 0;
#X connect 38 0 39 0;
#X connect 39 0 40 0;
#X connect 43 1 38 0;
