#N canvas 566 22 702 530 10;
#X obj 49 229 *~ 60;
#X obj 16 31 loadbang;
#X obj 49 205 *~;
#X obj 16 122 s \$0-rescale;
#X obj 49 181 adc~ 3;
#X obj 141 205 *~;
#X obj 141 181 adc~ 4;
#X obj 321 205 *~;
#X obj 321 181 adc~ 6;
#X obj 387 61 switch~;
#X obj 387 38 tgl 15 0 empty empty empty 17 7 0 10 -262144 -1 -1 0
1;
#X obj 387 12 inlet;
#X obj 49 282 throw~ pitch;
#X obj 141 230 throw~ CV-mod;
#X obj 321 231 throw~ CV-adsr;
#X msg 16 97 1.8278;
#X text 5 66 and the different range between ADC and DAC;
#X text 5 56 This value accounts for the passive voltage divider;
#X obj 64 161 r \$0-rescale;
#X obj 156 161 r \$0-rescale;
#X obj 336 161 r \$0-rescale;
#X obj 231 231 adc~ 5;
#X obj 231 262 throw~ waveshaping;
#X obj 49 251 +~ 36;
#X connect 0 0 23 0;
#X connect 1 0 15 0;
#X connect 2 0 0 0;
#X connect 4 0 2 0;
#X connect 5 0 13 0;
#X connect 6 0 5 0;
#X connect 7 0 14 0;
#X connect 8 0 7 0;
#X connect 10 0 9 0;
#X connect 11 0 10 0;
#X connect 15 0 3 0;
#X connect 18 0 2 1;
#X connect 19 0 5 1;
#X connect 20 0 7 1;
#X connect 21 0 22 0;
#X connect 23 0 12 0;
