#N canvas 0 23 1280 722 10;
#X obj 791 207 *~ 100;
#X obj 791 230 *~;
#X obj 791 250 /~ 100;
#X obj 884 237 *~ 100;
#X obj 884 260 *~;
#X obj 884 280 /~ 180;
#X obj 978 234 *~ 100;
#X obj 978 260 *~;
#X obj 978 281 /~ 180;
#X text 1046 265 scales the controls;
#X text 1046 275 to be more sensitive;
#X text 1046 285 around the lower levels;
#X obj 624 195 adc~ 1 2;
#X obj 667 628 dac~ 1;
#X obj 837 627 dac~ 2;
#X obj 736 324 chorus2x2, f 22;
#X obj 719 552 *~;
#X obj 615 550 *~;
#X obj 666 598 +~;
#X obj 889 552 *~;
#X obj 785 560 *~;
#X obj 836 598 +~;
#X obj 637 496 sig~ 1;
#X obj 638 525 -~;
#X obj 637 496 sig~ 1;
#X obj 638 525 -~;
#X obj 807 496 sig~ 1;
#X obj 817 532 -~;
#X text 33 51 ===============================;
#X text 464 32 ............................;
#X text 464 42 . ____ ._____ _ .......___ .;
#X text 464 52 .| __ )| ____| |....../ _ |.;
#X text 464 72 .| |_) | |___| |___ / ___ |.;
#X text 464 92 ............................;
#X text 464 62 .| __ || __|.| |...../ _| |.;
#X text 57 213 This patch is designed to run on Salt \,;
#X text 57 223 a Eurorack module based on Bela.;
#X text 58 249 I/O:;
#X text 464 82 .|____/|_____|_____/_/..._|.io;
#X text 58 279 CV in 1: chorus rate;
#X text 58 259 Audio in 1: channel 1 audio input;
#X text 58 269 Audio in 2: channel 2 audio input;
#X text 58 329 Audio out 1: channel 1 audio output;
#X text 59 339 Audio out 2: channel 2 audio output;
#X obj 907 448 lop~ 500;
#X text 986 449 Low-pass to reduce noise;
#X obj 792 158 adc~ 3;
#X text 794 139 rate;
#X text 934 150 width;
#X text 620 173 Audio in;
#X text 974 410 wet/dry;
#X text 37 87 and separate width controls. The internal modulation
source;
#X text 36 99 is a sinusoidal quadrature LFO;
#X text 37 124 two stages of the chorus. Channel 1 uses outputs 1 (0deg)
;
#X text 36 136 and 2(180deg) of the LFO \, while channel 2 uses outputs
2;
#X text 36 148 (90deg) and 4 (270deg).;
#X text 35 111 Each of the two channels is processed through;
#X text 36 159 When the same audio signal is fed to both audio inputs
\, this;
#X text 58 359 CV out 2: LFO out 2 (90 deg);
#X text 58 369 CV out 3: LFO out 3 (180deg);
#X text 58 379 CV out 4: LFO out 4 (270deg);
#X text 58 349 CV out 1: LFO out 1 (0 deg);
#X text 746 655 Audio out;
#X text 36 169 effectively behaves as a 4-stage chorus with split output.
;
#X obj 804 346 dac~ 3 4 5 6;
#X text 895 350 quadrature LFO out;
#X text 58 289 CV in 2: wet/dry;
#X text 58 299 CV in 3: chorus width for channel 1;
#X text 58 309 CV in 4: chorus wdith for channel 2;
#X obj 921 412 adc~ 4;
#X obj 918 170 adc~ 5 6;
#X obj 887 205 lop~ 100;
#X obj 977 205 lop~ 100;
#X obj 792 183 lop~ 100;
#X text 33 42 Mad Chorus - by Robert Thomas - robertthomassound.com
;
#X text 37 75 Mad Chorus is a 2-channel chorus with a single LFO;
#X text 58 406 Credits:;
#X text 58 416 Pd patching: Robert Thomas;
#X text 58 426 Additional Pd patching: Franky Redente;
#X text 36 179 The quadrature LFO signals are made available as CV
outputs \,;
#X text 36 189 so the patch doubles up as a quadrature LFO.;
#X text 58 436 Featuring components from the following libraries: RjLib
;
#X connect 0 0 1 0;
#X connect 0 0 1 1;
#X connect 1 0 2 0;
#X connect 2 0 15 2;
#X connect 3 0 4 0;
#X connect 3 0 4 1;
#X connect 4 0 5 0;
#X connect 5 0 15 5;
#X connect 5 0 15 3;
#X connect 6 0 7 0;
#X connect 6 0 7 1;
#X connect 7 0 8 0;
#X connect 8 0 15 4;
#X connect 8 0 15 6;
#X connect 12 0 15 0;
#X connect 12 0 17 0;
#X connect 12 1 15 1;
#X connect 12 1 20 0;
#X connect 15 0 16 0;
#X connect 15 1 19 0;
#X connect 15 2 64 0;
#X connect 15 3 64 1;
#X connect 15 4 64 2;
#X connect 15 5 64 3;
#X connect 16 0 18 1;
#X connect 17 0 18 0;
#X connect 18 0 13 0;
#X connect 19 0 21 1;
#X connect 20 0 21 0;
#X connect 21 0 14 0;
#X connect 22 0 23 0;
#X connect 23 0 17 1;
#X connect 24 0 25 0;
#X connect 26 0 27 0;
#X connect 27 0 20 1;
#X connect 44 0 23 1;
#X connect 44 0 16 1;
#X connect 44 0 19 1;
#X connect 44 0 27 1;
#X connect 46 0 73 0;
#X connect 69 0 44 0;
#X connect 70 0 71 0;
#X connect 70 1 72 0;
#X connect 71 0 3 0;
#X connect 72 0 6 0;
#X connect 73 0 0 0;
