#N canvas 180 22 635 547 10;
#X obj 99 59 loadbang;
#X msg 129 131 listen 0;
#X obj 99 193 oscparse;
#X obj 231 260 print parse-output;
#X msg 99 95 listen 7562;
#X obj 99 169 netreceive -u -b;
#X text 236 28 Make sure this patch is open before running the patch
on Bela;
#X text 237 91 Listen to port 7562;
#X text 237 131 This can close the connection;
#X text 237 171 The arguments -u and -b must match those in netsend
on Bela;
#X text 237 191 oscparse converts OSC packets into PD messages;
#X text 237 211 print the resultant message;
#X floatatom 63 338 5 0 0 0 - - -;
#X floatatom 120 337 5 0 0 0 - - -;
#X obj 63 233 route list;
#X obj 62 309 route slider counter;
#N canvas 570 187 435 501 env 0;
#X obj 39 15 inlet;
#X obj 39 467 outlet~;
#X obj 39 433 vline~;
#X obj 39 35 bang;
#X msg 38 214 0.5 10;
#X msg 113 221 0 100 100;
#X connect 0 0 3 0;
#X connect 2 0 1 0;
#X connect 3 0 4 0;
#X connect 3 0 5 0;
#X connect 4 0 2 0;
#X connect 5 0 2 0;
#X restore 49 398 pd env;
#X msg 49 372 bang;
#X obj 117 431 osc~ 440;
#X obj 120 389 *~ 220;
#X obj 117 452 *~;
#X obj 117 473 dac~ 1 2;
#X connect 0 0 4 0;
#X connect 1 0 5 0;
#X connect 2 0 3 0;
#X connect 2 0 14 0;
#X connect 4 0 5 0;
#X connect 5 0 2 0;
#X connect 14 0 15 0;
#X connect 15 0 12 0;
#X connect 15 0 17 0;
#X connect 15 1 13 0;
#X connect 15 1 19 0;
#X connect 16 0 20 1;
#X connect 17 0 16 0;
#X connect 18 0 20 0;
#X connect 19 0 18 0;
#X connect 20 0 21 0;
#X connect 20 0 21 1;
