#N canvas 305 29 975 749 10;
#X obj 35 201 list;
#X obj 35 161 metro 200;
#X obj 35 135 loadbang;
#X text 119 160 Throttle printing;
#X obj 183 237 unpack f f f f f f f f f f f f f f f f f f f f f f f
f f f;
#X obj 197 499 playAudioFile~;
#X obj 193 422 change;
#X obj 193 457 route 1 0;
#X obj 488 652 dac~ 1 2;
#X obj 193 397 > 0.5;
#X obj 274 431 loadbang;
#X obj 397 499 playAudioFile~;
#X obj 393 422 change;
#X obj 393 457 route 1 0;
#X obj 393 397 > 0.5;
#X obj 474 431 loadbang;
#X msg 275 457 one.wav;
#X msg 475 457 two.wav;
#X obj 577 499 playAudioFile~;
#X obj 573 422 change;
#X obj 573 457 route 1 0;
#X obj 573 397 > 0.5;
#X obj 654 431 loadbang;
#X msg 655 457 three.wav;
#X obj 757 499 playAudioFile~;
#X obj 753 422 change;
#X obj 753 457 route 1 0;
#X obj 753 397 > 0.5;
#X obj 834 431 loadbang;
#X msg 835 457 four.wav;
#X obj 36 241 print touchSensor;
#X obj 77 51 loadbang;
#X obj 222 58 r bela_trill;
#X obj 63 106 s bela_setTrill;
#X msg 87 78 new craft 1 24 diff;
#X obj 238 116 route craft;
#X text 339 100 This receives reading from the cap sensor every new
reading;
#X connect 0 0 30 0;
#X connect 1 0 0 0;
#X connect 2 0 1 0;
#X connect 4 0 9 0;
#X connect 4 1 14 0;
#X connect 4 2 21 0;
#X connect 4 3 27 0;
#X connect 5 0 8 0;
#X connect 5 0 8 1;
#X connect 6 0 7 0;
#X connect 7 0 5 0;
#X connect 7 1 5 1;
#X connect 9 0 6 0;
#X connect 10 0 16 0;
#X connect 11 0 8 0;
#X connect 11 0 8 1;
#X connect 12 0 13 0;
#X connect 13 0 11 0;
#X connect 13 1 11 1;
#X connect 14 0 12 0;
#X connect 15 0 17 0;
#X connect 16 0 5 3;
#X connect 17 0 11 3;
#X connect 18 0 8 0;
#X connect 18 0 8 1;
#X connect 19 0 20 0;
#X connect 20 0 18 0;
#X connect 20 1 18 1;
#X connect 21 0 19 0;
#X connect 22 0 23 0;
#X connect 23 0 18 3;
#X connect 24 0 8 0;
#X connect 24 0 8 1;
#X connect 25 0 26 0;
#X connect 26 0 24 0;
#X connect 26 1 24 1;
#X connect 27 0 25 0;
#X connect 28 0 29 0;
#X connect 29 0 24 3;
#X connect 31 0 34 0;
#X connect 32 0 0 1;
#X connect 32 0 35 0;
#X connect 34 0 33 0;
#X connect 35 0 4 0;
