#N canvas 0 22 1177 752 10;
#X obj 306 765 *~ 600;
#X obj 302 840 +~;
#X obj 310 970 *~;
#X obj 308 714 phasor~ 400;
#X obj 486 727 * 600;
#X obj 478 805 line~;
#X msg 476 784 \$1 200;
#X obj 303 81 r snapupdate;
#X obj 564 298 *~;
#X obj 310 436 timer;
#X obj 549 508 +~;
#X obj 812 201 vsl 15 100 0 1 0 0 empty empty empty 0 -9 0 10 -262144
-1 -1 0 1;
#X obj 638 572 vsl 15 100 0 1 0 0 empty empty empty 0 -9 0 10 -262144
-1 -1 0 1;
#X text 832 359 FM;
#X text 731 124 decay;
#X text 583 363 pitch;
#X text 387 748 wave select;
#X obj 713 148 *~ 2;
#X obj 480 757 int;
#X obj 366 154 snapshot~;
#X obj 368 188 change;
#X obj 309 248 sel 1;
#X obj 389 281 f;
#X obj 362 222 t f f;
#X obj 433 303 + 1;
#X obj 387 251 sel 1;
#X obj 381 346 mod 2;
#X obj 380 370 sel 0;
#X obj 299 370 spigot;
#X obj 588 787 *~ 600;
#X obj 584 862 +~;
#X obj 768 749 * 600;
#X obj 760 827 line~;
#X msg 758 806 \$1 200;
#X obj 762 779 int;
#X obj 590 736 phasor~ 1;
#X text 820 775 Modulation source;
#X obj 309 477 t f f;
#X msg 310 512 1000;
#X obj 328 540 /;
#X obj 328 583 line~;
#X msg 326 562 \$1 200;
#X text 75 286 trigger duration for LFO speed;
#X obj 621 392 *~ 3000;
#X obj 312 1061 outlet~;
#X obj 601 988 outlet~;
#X obj 548 412 *~;
#X obj 806 160 r voice4fm;
#X obj 642 346 *~;
#X obj 482 703 * 50;
#X obj 567 230 SAEnv;
#X obj 764 724 * 50;
#X obj 418 9 inlet~;
#X obj 609 32 inlet~;
#X obj 689 32 inlet~;
#X obj 705 192 +~ 0.05;
#X obj 308 891 tabread4~ VOICE\$1;
#X obj 589 913 tabread4~ VOICE\$1;
#X obj 662 522 r voice\$1tab;
#X obj 549 452 +~ 0;
#X obj 773 359 * 3000;
#X obj 727 432 *~ 1;
#X obj 722 387 osc~ 3;
#X connect 0 0 1 0;
#X connect 1 0 56 0;
#X connect 2 0 44 0;
#X connect 3 0 0 0;
#X connect 4 0 18 0;
#X connect 5 0 1 1;
#X connect 6 0 5 0;
#X connect 7 0 19 0;
#X connect 8 0 2 1;
#X connect 8 0 46 0;
#X connect 9 0 37 0;
#X connect 10 0 3 0;
#X connect 11 0 60 0;
#X connect 12 0 49 0;
#X connect 12 0 51 0;
#X connect 17 0 55 0;
#X connect 18 0 6 0;
#X connect 19 0 20 0;
#X connect 20 0 23 0;
#X connect 21 0 28 0;
#X connect 22 0 24 0;
#X connect 22 0 26 0;
#X connect 23 0 21 0;
#X connect 23 1 25 0;
#X connect 24 0 22 1;
#X connect 25 0 22 0;
#X connect 26 0 27 0;
#X connect 26 0 28 1;
#X connect 27 0 9 0;
#X connect 28 0 9 1;
#X connect 29 0 30 0;
#X connect 30 0 57 0;
#X connect 31 0 34 0;
#X connect 32 0 30 1;
#X connect 33 0 32 0;
#X connect 34 0 33 0;
#X connect 35 0 29 0;
#X connect 37 0 38 0;
#X connect 37 1 39 1;
#X connect 38 0 39 0;
#X connect 39 0 41 0;
#X connect 40 0 35 0;
#X connect 41 0 40 0;
#X connect 43 0 46 1;
#X connect 46 0 59 0;
#X connect 47 0 11 0;
#X connect 48 0 43 0;
#X connect 49 0 4 0;
#X connect 50 0 8 0;
#X connect 50 0 8 1;
#X connect 51 0 31 0;
#X connect 52 0 19 0;
#X connect 52 0 50 1;
#X connect 53 0 48 0;
#X connect 53 0 48 1;
#X connect 54 0 17 0;
#X connect 55 0 50 0;
#X connect 56 0 2 0;
#X connect 57 0 45 0;
#X connect 58 0 12 0;
#X connect 59 0 10 0;
#X connect 60 0 61 1;
#X connect 60 0 62 0;
#X connect 61 0 10 1;
#X connect 62 0 61 0;
