#N canvas 158 22 1181 856 10;
#N canvas 0 22 450 300 (subpatch) 0;
#X array sample-1 201388 float 2;
#X coords 0 1 201388 -1 200 140 1 0 0;
#X restore 15 433 graph;
#X text 266 57 <<< loading a file:;
#X text 266 77 point soundfiler to the samples folder;
#X obj 19 86 soundfiler;
#X obj 19 24 loadbang;
#X text 265 122 <<< If you include your own samples in the project
;
#X text 266 97 name_of_file.wav;
#X text 265 142 just change the path to the file name;
#X text 266 20 sample-1 contains a sample from file;
#X obj 32 301 tabread4~ sample-1;
#X obj 32 362 *~ 0.2;
#X obj 32 383 dac~ 1 2;
#X obj 32 272 *~;
#X obj 191 187 r sampleLength1;
#X obj 19 110 s sampleLength1;
#X obj 34 149 adc~ 4;
#X obj 411 391 +~;
#X obj 411 422 delwrite~ \$0-sammap 1000;
#X obj 391 319 delread4~ \$0-sammap;
#X obj 391 246 adc~ 5;
#X obj 391 267 lop~ 10;
#X obj 530 266 adc~ 3;
#X obj 530 287 lop~ 10;
#X obj 451 353 *~;
#X obj 391 297 *~ 200;
#X obj 34 170 map~ -2 2;
#X obj 891 132 s bela_setDigital;
#X obj 891 89 loadbang;
#X obj 863 252 f;
#X obj 863 273 tgl 15 0 empty empty empty 17 7 0 10 -262144 -1 -1 0
1;
#X obj 863 292 select 1 0;
#X msg 908 316 stop;
#X text 752 389 Record the input to the table;
#X obj 736 247 adc~ 1;
#X text 854 182 Receive the button value as it changes;
#X text 928 229 debounce for 3ms;
#X text 1003 198 0: non-pressed;
#X text 1003 214 1: pressed;
#X text 801 441 timer returns the duration of the recorded sample;
#X obj 945 391 timer 1 sample;
#X text 800 453 (interval between start and stop) in samples;
#X text 698 224 to scope channel 1;
#X text 698 213 Monitor left audio input;
#X obj 863 340 print recording;
#X obj 736 279 dac~ 27;
#X msg 863 316 start;
#X obj 864 203 r bela_digitalIn18;
#X msg 891 110 in 18 \, out 17;
#X obj 940 284 s bela_digitalOut17;
#X obj 790 369 tabwrite~ sample-1;
#X obj 945 417 s sampleLength1;
#X obj 32 248 phasor~ 1;
#X obj 864 230 delay 200;
#X obj 180 217 expr 44100/$f1;
#X obj 32 225 *~;
#X msg 19 58 read -resize greek-rumba.wav sample-1;
#X text 575 15 ............................;
#X text 575 25 . ____ ._____ _ .......___ .;
#X text 575 35 .| __ )| ____| |....../ _ |.;
#X text 575 55 .| |_) | |___| |___ / ___ |.;
#X text 575 65 .|____/|_____|_____/_/..._|.io;
#X text 575 75 ............................;
#X text 575 45 .| __ || __|.| |...../ _| |.;
#X text 40 770;
#X connect 3 0 14 0;
#X connect 4 0 55 0;
#X connect 9 0 16 0;
#X connect 10 0 11 0;
#X connect 10 0 11 1;
#X connect 12 0 9 0;
#X connect 13 0 12 1;
#X connect 13 0 53 0;
#X connect 15 0 25 0;
#X connect 16 0 17 0;
#X connect 16 0 10 0;
#X connect 18 0 23 0;
#X connect 19 0 20 0;
#X connect 20 0 24 0;
#X connect 21 0 22 0;
#X connect 22 0 23 1;
#X connect 23 0 16 1;
#X connect 24 0 18 0;
#X connect 25 0 54 0;
#X connect 27 0 47 0;
#X connect 28 0 29 0;
#X connect 28 0 48 0;
#X connect 29 0 30 0;
#X connect 30 0 39 0;
#X connect 30 0 45 0;
#X connect 30 0 49 0;
#X connect 30 1 31 0;
#X connect 30 1 39 1;
#X connect 31 0 43 0;
#X connect 31 0 49 0;
#X connect 33 0 44 0;
#X connect 33 0 49 0;
#X connect 39 0 50 0;
#X connect 45 0 43 0;
#X connect 46 0 28 1;
#X connect 46 0 52 0;
#X connect 47 0 26 0;
#X connect 51 0 12 0;
#X connect 52 0 28 0;
#X connect 53 0 54 1;
#X connect 54 0 51 0;
#X connect 55 0 3 0;
