#N canvas 0 23 1440 855 10;
#X obj 64 400 playAudioFile~;
#X obj 123 353 loadbang;
#X obj 216 400 playAudioFile~;
#X obj 275 352 loadbang;
#X text 30 28 Multichannel sample player;
#X text 30 38 ==========================;
#X obj 61 566 dac~ 1 2 3 4 5 6 7 8;
#X text 600 7 ............................;
#X text 600 17 . ____ ._____ _ .......___ .;
#X text 600 27 .| __ )| ____| |....../ _ |.;
#X text 600 47 .| |_) | |___| |___ / ___ |.;
#X text 600 57 .|____/|_____|_____/_/..._|.io;
#X text 600 67 ............................;
#X text 600 37 .| __ || __|.| |...../ _| |.;
#X msg 123 375 number0.wav;
#X msg 275 374 number1.wav;
#X obj 71 169 loadbang;
#X obj 40 168 tgl 15 0 empty empty empty 17 7 0 10 -262144 -1 -1 1
1;
#X obj 71 229 f;
#X obj 100 229 + 1;
#X obj 71 256 % 8;
#X obj 64 375 select 0;
#X obj 64 353 r clock;
#X obj 71 282 s clock;
#X obj 216 352 r clock;
#X obj 216 374 select 1;
#X obj 364 400 playAudioFile~;
#X obj 423 353 loadbang;
#X obj 516 400 playAudioFile~;
#X obj 575 352 loadbang;
#X obj 364 353 r clock;
#X obj 516 352 r clock;
#X obj 364 375 select 2;
#X msg 423 375 number2.wav;
#X obj 516 374 select 3;
#X msg 575 374 number3.wav;
#X obj 664 400 playAudioFile~;
#X obj 723 353 loadbang;
#X obj 816 400 playAudioFile~;
#X obj 875 352 loadbang;
#X obj 664 353 r clock;
#X obj 816 352 r clock;
#X obj 964 400 playAudioFile~;
#X obj 1023 353 loadbang;
#X obj 1116 400 playAudioFile~;
#X obj 1175 352 loadbang;
#X obj 964 353 r clock;
#X obj 1116 352 r clock;
#X obj 664 375 select 4;
#X msg 723 375 number4.wav;
#X obj 816 374 select 5;
#X msg 875 374 number5.wav;
#X obj 964 375 select 6;
#X msg 1023 375 number6.wav;
#X obj 1115 374 select 7;
#X msg 1175 374 number7.wav;
#X text 34 71 This example plays back a sample in sequence from each
;
#X text 34 91 output of a multichannel board.;
#X text 34 111 It uses a clock to cycle through each output in time.
;
#X obj 71 197 metro 700;
#X connect 0 0 6 0;
#X connect 1 0 14 0;
#X connect 2 0 6 1;
#X connect 3 0 15 0;
#X connect 14 0 0 3;
#X connect 15 0 2 3;
#X connect 16 0 59 0;
#X connect 17 0 59 0;
#X connect 18 0 19 0;
#X connect 18 0 20 0;
#X connect 19 0 18 1;
#X connect 20 0 23 0;
#X connect 21 0 0 0;
#X connect 21 1 0 1;
#X connect 22 0 21 0;
#X connect 24 0 25 0;
#X connect 25 0 2 0;
#X connect 25 1 2 1;
#X connect 26 0 6 2;
#X connect 27 0 33 0;
#X connect 28 0 6 3;
#X connect 29 0 35 0;
#X connect 30 0 32 0;
#X connect 31 0 34 0;
#X connect 32 0 26 0;
#X connect 32 1 26 1;
#X connect 33 0 26 3;
#X connect 34 0 28 0;
#X connect 34 1 28 1;
#X connect 35 0 28 3;
#X connect 36 0 6 4;
#X connect 37 0 49 0;
#X connect 38 0 6 5;
#X connect 39 0 51 0;
#X connect 40 0 48 0;
#X connect 41 0 50 0;
#X connect 42 0 6 6;
#X connect 43 0 53 0;
#X connect 44 0 6 7;
#X connect 45 0 55 0;
#X connect 46 0 52 0;
#X connect 47 0 54 0;
#X connect 48 0 36 0;
#X connect 48 1 36 1;
#X connect 49 0 36 3;
#X connect 50 0 38 0;
#X connect 50 1 38 1;
#X connect 51 0 38 3;
#X connect 52 0 42 0;
#X connect 52 1 42 1;
#X connect 53 0 42 3;
#X connect 54 0 44 0;
#X connect 54 1 44 1;
#X connect 55 0 44 3;
#X connect 59 0 18 0;
