#N canvas 184 22 1013 730 10;
#X obj 45 746 dac~ 1 2;
#X obj 45 703 *~ 0.1;
#X obj 45 302 mtof;
#X obj 45 340 phasor~ 440;
#X obj 201 343 * 20;
#X obj 201 366 + 200;
#X obj 201 486 * 10;
#X obj 45 570 hip~;
#X obj 45 592 hip~;
#X obj 45 614 hip~;
#X obj 45 635 hip~;
#X obj 201 413 lop~ 4;
#X obj 201 553 line;
#X obj 201 508 + 50;
#X msg 201 530 \$1 200;
#X obj 45 444 vcf~ 4;
#X obj 45 242 mono;
#X obj 45 198 notein 0;
#X obj 201 320 ctlin 5 0;
#X obj 201 464 ctlin 6 0;
#X obj 201 390 sig~ 1000;
#X obj 45 362 *~ 2;
#X obj 45 384 -~ 1;
#X obj 78 681 * 0.1;
#X text 274 463 <<< cc 6 controls high pass centre frequency;
#X text 274 320 <<< cc 5 controls resonant low pass centre frequency
;
#X text 39 11 Hello midi!;
#X text 37 21 ===========;
#X text 108 243 <<< abstraction for monophonic voice stealing;
#X obj 66 273 s gate;
#X obj 78 659 r gate;
#X text 43 53 Here's a simple monophonic synthesiser that is controllable
;
#X text 43 66 with a midi controller. Note and control messages can
be;
#X text 43 80 obtained using the;
#X obj 179 79 notein;
#X text 233 80 and;
#X obj 270 80 ctlin;
#X text 315 80 objects.;
#X text 43 104 Most midi devices should be compatible when plugged
into;
#X text 43 117 the BeagleBone's USB port.;
#X text 445 5 ............................;
#X text 445 15 . ____ ._____ _ .......___ .;
#X text 445 25 .| __ )| ____| |....../ _ |.;
#X text 445 45 .| |_) | |___| |___ / ___ |.;
#X text 445 55 .|____/|_____|_____/_/..._|.io;
#X text 445 65 ............................;
#X text 445 35 .| __ || __|.| |...../ _| |.;
#X obj 518 178 loadbang;
#X msg 518 204 hw 0 0 0;
#X text 507 102 By default \, port hw:1 \, 0 \, 0 is open;
#X obj 518 231 send bela_setMidi;
#X text 507 112 (if it exists). This normally is;
#X text 507 122 the first USB MIDI device plugged in.;
#X text 507 132 You can open moreports by sending a;
#X text 507 142 message to bela_setMidi. For instance \,;
#X text 639 175 On v0.3 (or above) images \,;
#X text 639 185 hw:0 \, 0 \, 0 is the virtual port;
#X text 639 195 that shows up on the host computer.;
#X text 507 152 in order to open hw:0 \, 0 \, 0 \, do:;
#X text 43 147 https://learn.bela.io/tutorials/pure-data/communication/midi-send-and-receive/
;
#X connect 1 0 0 1;
#X connect 1 0 0 0;
#X connect 2 0 3 0;
#X connect 3 0 21 0;
#X connect 4 0 5 0;
#X connect 5 0 20 0;
#X connect 6 0 13 0;
#X connect 7 0 8 0;
#X connect 8 0 9 0;
#X connect 9 0 10 0;
#X connect 10 0 1 0;
#X connect 11 0 15 1;
#X connect 12 0 7 1;
#X connect 12 0 8 1;
#X connect 12 0 9 1;
#X connect 12 0 10 1;
#X connect 13 0 14 0;
#X connect 14 0 12 0;
#X connect 15 0 7 0;
#X connect 16 0 2 0;
#X connect 16 1 29 0;
#X connect 17 0 16 0;
#X connect 17 1 16 1;
#X connect 18 0 4 0;
#X connect 19 0 6 0;
#X connect 20 0 11 0;
#X connect 21 0 22 0;
#X connect 22 0 15 0;
#X connect 23 0 1 1;
#X connect 30 0 23 0;
#X connect 47 0 48 0;
#X connect 48 0 50 0;
