#N canvas 216 161 958 554 10;
#X obj 170 420 print backward;
#X obj 188 176 loadbang;
#X obj 238 232 metro 500;
#X obj 238 253 f;
#X obj 268 254 + 1;
#X obj 238 274 % 6;
#X msg 103 275 disconnect;
#X msg 45 236 connect 192.168.7.1 7562;
#X obj 238 337 list prepend send;
#X obj 238 358 list trim;
#X obj 97 387 netsend -u -b;
#X obj 364 253 adc~ 3;
#X obj 364 274 snapshot~;
#X obj 365 301 oscformat slider;
#X obj 238 303 oscformat counter;
#X text 590 7 ............................;
#X text 590 17 . ____ ._____ _ .......___ .;
#X text 590 27 .| __ )| ____| |....../ _ |.;
#X text 590 47 .| |_) | |___| |___ / ___ |.;
#X text 590 57 .|____/|_____|_____/_/..._|.io;
#X text 590 67 ............................;
#X text 590 37 .| __ || __|.| |...../ _| |.;
#X text 22 79 Run local.pd on your machine to see the patch in action.
;
#X text 20 28 Send OSC messages from Bela;
#X text 20 38 ===========================;
#X text 22 59 This example shows how to send osc messages from Bela.
;
#X text 23 107 https://learn.bela.io/tutorials/pure-data/communication/open-sound-control/
;
#X connect 1 0 2 0;
#X connect 1 0 7 0;
#X connect 2 0 3 0;
#X connect 2 0 12 0;
#X connect 3 0 4 0;
#X connect 3 0 5 0;
#X connect 4 0 3 1;
#X connect 5 0 14 0;
#X connect 6 0 10 0;
#X connect 7 0 10 0;
#X connect 8 0 9 0;
#X connect 9 0 10 0;
#X connect 10 1 0 0;
#X connect 11 0 12 0;
#X connect 12 0 13 0;
#X connect 13 0 8 0;
#X connect 14 0 8 0;
