#N canvas 0 22 318 471 10;
#N canvas 475 183 676 682 hhnoise 0;
#X obj 178 566 outlet~;
#X obj 194 311 *~;
#X obj 178 479 +~;
#X obj 179 540 osc~;
#X obj 195 426 *~;
#X obj 195 203 unpack f f f f f;
#X obj 177 450 sig~;
#X obj 195 250 osc~;
#X obj 209 274 osc~;
#N canvas 730 22 450 300 programmer 0;
#X msg 99 193 2834.65 2165.35 0.811024 1771.65 6708.66;
#X obj 244 63 hsl 128 15 0 5000 0 0 empty empty modf1 32 7 1 8 -262144
-1 -1 0 1;
#X obj 136 147 pack f f f f f;
#X obj 136 124 t b;
#X msg 136 169 set \$1 \$2 \$3 \$4 \$5;
#X obj 244 78 hsl 128 15 0 5000 0 0 empty empty modf2 32 7 1 8 -262144
-1 -1 0 1;
#X obj 244 93 hsl 128 15 0 1 0 0 empty empty env 32 7 1 8 -262144 -1
-1 0 1;
#X obj 244 108 hsl 128 15 0 5000 0 0 empty empty fm_amount 32 7 1 8
-262144 -1 -1 0 1;
#X obj 244 123 hsl 128 15 0 12000 0 0 empty empty base_freq 32 7 1
8 -262144 -1 -1 0 1;
#X obj 95 150 del 2;
#X obj 96 224 outlet;
#X msg 122 259 1141.73 472.441 0.645669 2874.02 10299.2;
#X msg 149 230 748.031 1023.62 0.173228 1968.5 9259.84;
#X msg 183 277 2834.65 2165.35 0.511811 4370.08 8125.98;
#X obj 304 162 loadbang;
#X connect 0 0 10 0;
#X connect 1 0 2 0;
#X connect 1 0 3 0;
#X connect 2 0 4 0;
#X connect 3 0 2 0;
#X connect 3 0 9 0;
#X connect 4 0 0 0;
#X connect 5 0 2 1;
#X connect 5 0 3 0;
#X connect 6 0 2 2;
#X connect 6 0 3 0;
#X connect 7 0 2 3;
#X connect 7 0 3 0;
#X connect 8 0 2 4;
#X connect 8 0 3 0;
#X connect 9 0 0 0;
#X connect 11 0 10 0;
#X connect 12 0 10 0;
#X connect 13 0 10 0;
#X connect 14 0 12 0;
#X restore 195 177 pd programmer;
#X obj 153 311 +~;
#N canvas 0 22 450 300 xf 0;
#X obj 107 37 inlet~;
#X obj 158 37 inlet~;
#X obj 123 135 *~;
#X obj 152 134 *~;
#X obj 134 178 outlet~;
#X obj 171 87 sig~ 1;
#X obj 169 108 -~;
#X obj 227 37 inlet~ xfade;
#X connect 0 0 2 0;
#X connect 1 0 3 0;
#X connect 2 0 4 0;
#X connect 3 0 4 0;
#X connect 5 0 6 0;
#X connect 6 0 3 1;
#X connect 7 0 6 1;
#X connect 7 0 2 1;
#X restore 154 351 pd xf;
#X text 263 302 2 ringmod;
#X obj 223 311 *~;
#X obj 222 133 inlet~ spectrum env;
#X obj 124 591 s~ \$0-fb;
#X obj 208 482 r~ \$0-fb;
#X obj 179 516 +~;
#X text 219 540 fbfm;
#X obj 125 567 *~ 600;
#X connect 1 0 11 1;
#X connect 2 0 17 0;
#X connect 3 0 0 0;
#X connect 3 0 19 0;
#X connect 4 0 2 1;
#X connect 5 0 7 0;
#X connect 5 1 8 0;
#X connect 5 2 13 1;
#X connect 5 3 4 1;
#X connect 5 4 6 0;
#X connect 6 0 2 0;
#X connect 7 0 1 0;
#X connect 7 0 10 0;
#X connect 8 0 1 1;
#X connect 8 0 10 1;
#X connect 9 0 5 0;
#X connect 10 0 11 0;
#X connect 11 0 4 0;
#X connect 13 0 11 2;
#X connect 14 0 13 0;
#X connect 16 0 17 1;
#X connect 17 0 3 0;
#X connect 19 0 15 0;
#X restore 9 291 pd hhnoise;
#X obj 70 329 *~;
#X obj 86 244 vline~;
#X obj 87 290 *~;
#X obj 70 408 switch~;
#X obj 70 356 env~;
#X msg 111 381 1;
#X obj 86 59 t b b;
#X obj 70 381 > 0.1;
#X obj 11 380 outlet~;
#X msg 86 188 \$1 0 0 \, 0 \$2 1;
#X obj 86 165 pack f f;
#X obj 86 114 t f f, f 8;
#X msg 86 88 0.6;
#X obj 139 142 *;
#X obj 86 13 inlet hihat;
#X obj 158 110 * 7000;
#X msg 86 36 1;
#X obj 158 35 inlet~ decay;
#X obj 158 86 snapshot~;
#X obj 184 61 r snapshot-timer;
#X connect 0 0 1 0;
#X connect 1 0 5 0;
#X connect 1 0 9 0;
#X connect 2 0 3 0;
#X connect 2 0 3 1;
#X connect 2 0 0 0;
#X connect 3 0 1 1;
#X connect 5 0 8 0;
#X connect 6 0 4 0;
#X connect 7 0 13 0;
#X connect 7 1 6 0;
#X connect 8 0 4 0;
#X connect 10 0 2 0;
#X connect 11 0 10 0;
#X connect 12 0 11 0;
#X connect 12 1 14 0;
#X connect 13 0 12 0;
#X connect 14 0 11 1;
#X connect 15 0 17 0;
#X connect 16 0 14 1;
#X connect 17 0 7 0;
#X connect 18 0 19 0;
#X connect 19 0 16 0;
#X connect 20 0 19 0;
