#N canvas 48 22 291 390 10;
#X obj 27 132 noise~;
#X obj 27 262 *~, f 5;
#X obj 29 53 inlet;
#X obj 27 306 outlet~;
#X obj 61 238 line~;
#X msg 61 199 1;
#X obj 29 74 t b b;
#X obj 27 174 hip~ 8000;
#X obj 27 153 hip~ 8000;
#X obj 27 283 *~ 0.4;
#X msg 99 199 0 \$1;
#X obj 99 84 snapshot~;
#X obj 129 59 r snapshot-timer;
#X obj 99 37 inlet~;
#X obj 99 125 f;
#X obj 99 105 * 127;
#X connect 0 0 8 0;
#X connect 1 0 9 0;
#X connect 2 0 6 0;
#X connect 4 0 1 1;
#X connect 5 0 4 0;
#X connect 6 0 14 0;
#X connect 6 1 5 0;
#X connect 7 0 1 0;
#X connect 8 0 7 0;
#X connect 9 0 3 0;
#X connect 10 0 4 0;
#X connect 11 0 15 0;
#X connect 12 0 11 0;
#X connect 13 0 11 0;
#X connect 14 0 10 0;
#X connect 15 0 14 1;
