#N canvas 433 130 261 485 10;
#X obj 17 206 vline~;
#X obj 55 322 *~;
#X obj 55 301 cos~;
#X obj 55 280 *~;
#X obj 55 258 *~;
#X obj 55 236 *~;
#X msg 17 184 1 0 0 \, 0 \$1 0;
#X msg 17 163 70;
#X obj 55 344 outlet~;
#X obj 111 391 switch~;
#X obj 111 343 env~;
#X obj 111 367 > 0.1;
#X msg 17 141 1;
#X obj 17 119 inlet;
#X obj 73 112 *~ 0.5;
#X obj 73 20 inlet~;
#X text 134 123 mapping;
#X obj 73 133 +~ 2.3;
#X connect 0 0 1 1;
#X connect 0 0 5 0;
#X connect 0 0 3 1;
#X connect 1 0 8 0;
#X connect 1 0 10 0;
#X connect 2 0 1 0;
#X connect 3 0 2 0;
#X connect 4 0 3 0;
#X connect 5 0 4 1;
#X connect 5 0 4 0;
#X connect 6 0 0 0;
#X connect 7 0 6 0;
#X connect 10 0 11 0;
#X connect 11 0 9 0;
#X connect 12 0 9 0;
#X connect 12 0 7 0;
#X connect 13 0 12 0;
#X connect 14 0 17 0;
#X connect 15 0 14 0;
#X connect 17 0 5 1;
