#N canvas 44 193 386 445 10;
#X obj 23 234 osc~;
#X obj 75 91 + 20;
#X obj 23 146 f;
#X obj 23 212 line~;
#X obj 23 103 inlet;
#X obj 23 344 outlet~;
#X msg 100 167 0.5;
#X obj 23 300 *~;
#X obj 41 278 line~;
#X msg 87 256 1;
#X msg 23 191 \$1 0;
#X obj 23 124 t b b b b;
#X obj 23 169 + 40;
#X msg 41 256 0 200;
#X obj 23 322 *~ 0.4;
#X obj 75 45 snapshot~;
#X obj 139 27 r snapshot-timer;
#X obj 75 20 inlet~;
#X obj 75 70 * 120;
#X connect 0 0 7 0;
#X connect 1 0 2 1;
#X connect 2 0 12 0;
#X connect 3 0 0 0;
#X connect 4 0 11 0;
#X connect 6 0 0 1;
#X connect 7 0 14 0;
#X connect 8 0 7 1;
#X connect 9 0 8 0;
#X connect 10 0 3 0;
#X connect 11 0 2 0;
#X connect 11 1 6 0;
#X connect 11 2 13 0;
#X connect 11 3 9 0;
#X connect 12 0 10 0;
#X connect 13 0 8 0;
#X connect 14 0 5 0;
#X connect 15 0 18 0;
#X connect 16 0 15 0;
#X connect 17 0 15 0;
#X connect 18 0 1 0;
