#N canvas 177 52 212 604 10;
#X obj 58 228 vline~;
#X obj 40 454 *~;
#X obj 76 290 cos~;
#X obj 26 163 t f f;
#X obj 76 270 *~;
#X obj 40 476 outlet~;
#X obj 107 536 switch~;
#X obj 96 475 env~;
#X obj 96 499 > 0.1;
#X msg 152 382 1;
#X obj 48 81 t b b b;
#X obj 48 35 inlet;
#X obj 58 386 *~;
#X obj 40 433 cos~;
#X obj 58 339 +~;
#X obj 40 359 *~;
#X obj 58 408 *~;
#X obj 94 186 /;
#X obj 48 109 del 5;
#X obj 11 498 s~ snfb;
#X obj 40 248 r~ snfb;
#X msg 48 57 1;
#X msg 48 134 90;
#X msg 94 134 70;
#X msg 150 134 6;
#X msg 58 206 1 0 0 \, 0 \$1 3;
#X obj 107 310 sig~ 5;
#X connect 0 0 4 0;
#X connect 0 0 12 0;
#X connect 0 0 12 1;
#X connect 1 0 5 0;
#X connect 1 0 7 0;
#X connect 1 0 19 0;
#X connect 2 0 14 1;
#X connect 3 0 17 0;
#X connect 3 1 25 0;
#X connect 4 0 2 0;
#X connect 7 0 8 0;
#X connect 8 0 6 0;
#X connect 9 0 6 0;
#X connect 10 0 18 0;
#X connect 10 1 24 0;
#X connect 10 2 9 0;
#X connect 11 0 21 0;
#X connect 12 0 16 0;
#X connect 12 0 16 1;
#X connect 13 0 1 0;
#X connect 14 0 15 1;
#X connect 15 0 13 0;
#X connect 16 0 1 1;
#X connect 17 0 4 1;
#X connect 18 0 22 0;
#X connect 18 0 23 0;
#X connect 20 0 15 0;
#X connect 21 0 10 0;
#X connect 22 0 3 0;
#X connect 23 0 3 0;
#X connect 24 0 17 1;
#X connect 25 0 0 0;
#X connect 26 0 14 0;
