#N canvas 67 22 329 372 10;
#X obj 122 120 osc~ 230;
#X obj 55 188 line~;
#X obj 55 212 *~, f 10;
#X obj 185 120 noise~;
#X obj 185 165 hip~ 700;
#X obj 46 118 t b b;
#X msg 42 143 1;
#X obj 122 142 *~ 0.1;
#X obj 185 143 *~ 0.1;
#X obj 55 284 outlet~;
#X obj 47 97 inlet;
#X obj 121 20 inlet~;
#X obj 121 51 snapshot~;
#X obj 197 20 r snapshot-timer;
#X obj 106 97 f;
#X msg 77 144 0 \$1;
#X obj 121 72 * 500;
#X obj 55 233 *~ 2;
#X connect 0 0 7 0;
#X connect 1 0 2 0;
#X connect 2 0 17 0;
#X connect 3 0 8 0;
#X connect 4 0 2 1;
#X connect 5 0 14 0;
#X connect 5 1 6 0;
#X connect 6 0 1 0;
#X connect 7 0 2 1;
#X connect 8 0 4 0;
#X connect 10 0 5 0;
#X connect 11 0 12 0;
#X connect 12 0 16 0;
#X connect 13 0 12 0;
#X connect 14 0 15 0;
#X connect 15 0 1 0;
#X connect 16 0 14 1;
#X connect 17 0 9 0;
