#N canvas 0 22 354 507 10;
#X obj 19 222 osc~;
#X obj 19 84 f, f 12;
#X obj 19 185 line~;
#X obj 19 323 *~ 0.5;
#X obj 19 20 inlet;
#X obj 19 346 outlet~;
#X obj 19 300 *~;
#X obj 37 279 line~;
#X msg 37 246 1;
#X msg 19 164 \$1 0;
#X obj 19 42 t b b b b;
#X obj 64 121 * 0.98;
#X msg 64 163 \$1 \$2;
#X msg 116 121 0.5;
#X obj 64 142 pack 1 2;
#X obj 70 205 t b b;
#X msg 70 246 0 200;
#X obj 100 20 inlet~;
#X obj 100 41 snapshot~;
#X obj 163 22 r snapshot-timer;
#X obj 100 62 * 1500;
#X connect 0 0 6 0;
#X connect 1 0 9 0;
#X connect 1 0 11 0;
#X connect 2 0 0 0;
#X connect 3 0 5 0;
#X connect 4 0 10 0;
#X connect 6 0 3 0;
#X connect 7 0 6 1;
#X connect 8 0 7 0;
#X connect 9 0 2 0;
#X connect 10 0 1 0;
#X connect 10 2 13 0;
#X connect 10 3 15 0;
#X connect 11 0 14 0;
#X connect 12 0 2 0;
#X connect 13 0 0 1;
#X connect 14 0 12 0;
#X connect 15 0 16 0;
#X connect 15 1 8 0;
#X connect 16 0 7 0;
#X connect 17 0 18 0;
#X connect 18 0 20 0;
#X connect 19 0 18 0;
#X connect 20 0 1 1;
