#N canvas 40 22 370 376 10;
#X obj 108 176 osc~, f 6;
#X obj 108 151 line~;
#X msg 108 126 200 \, 0 100;
#X obj 108 93 inlet;
#X obj 108 251 outlet~;
#X text 194 125 Kick drum 101;
#X obj 108 203 hip~ 1;
#X obj 108 224 *~ 0.2;
#X text 193 99 Send a bang to trigger;
#X connect 0 0 6 0;
#X connect 1 0 0 0;
#X connect 2 0 1 0;
#X connect 3 0 2 0;
#X connect 6 0 7 0;
#X connect 7 0 4 0;
