#N canvas 259 23 714 695 10;
#N canvas 0 22 450 278 (subpatch) 0;
#X array exampleTable1 65238 float 2;
#X coords 0 1 65238 -1 200 140 1 0 0;
#X restore 36 740 graph;
#X obj 166 673 dac~;
#X obj 42 512 lop~ 1;
#X obj 36 171 soundfiler;
#X text 20 28 Load sample into table and scrub using analog input;
#X text 20 38 ===================================================;
#X text 104 513 <<< avoid zipper noise;
#X text 86 470 <<< analog input 0 (range 0-1);
#X text 395 123 <<< loading a file:;
#X text 395 143 point soundfiler to the samples folder;
#X text 293 305 just change the address to the file name;
#X obj 42 573 *~;
#X obj 36 90 loadbang;
#X text 104 573 <<< multiply by sample length;
#X obj 305 471 adc~ 4;
#X text 349 470 <<< analog input 1 (range 0-1);
#X obj 306 511 lop~ 1;
#X obj 306 572 *~;
#X text 375 513 <<< avoid zipper noise;
#X text 375 573 <<< multiply by sample length;
#X obj 57 547 r sampleLength1;
#X obj 321 546 r sampleLength2;
#X obj 42 594 tabread4~ exampleTable1;
#X obj 306 593 tabread4~ exampleTable2;
#N canvas 0 22 450 278 (subpatch) 0;
#X array exampleTable2 65238 float 2;
#X coords 0 1 65238 -1 200 140 1 0 0;
#X restore 243 740 graph;
#X obj 36 195 s sampleLength1;
#X obj 36 331 soundfiler;
#X obj 36 250 loadbang;
#X obj 36 355 s sampleLength2;
#X msg 36 283 read -resize rt.wav exampleTable2;
#X text 293 285 <<< If you include your own samples in the project
;
#X obj 42 471 adc~ 3;
#X text 101 426 Connect two potentiometers to analog in 0 and 1;
#X text 474 16 ............................;
#X text 474 26 . ____ ._____ _ .......___ .;
#X text 474 36 .| __ )| ____| |....../ _ |.;
#X text 474 56 .| |_) | |___| |___ / ___ |.;
#X text 474 66 .|____/|_____|_____/_/..._|.io;
#X text 474 76 ............................;
#X text 474 46 .| __ || __|.| |...../ _| |.;
#X msg 36 123 read -resize waves.wav exampleTable1;
#X text 395 163 name_of_file.wav;
#X connect 2 0 11 0;
#X connect 3 0 25 0;
#X connect 11 0 22 0;
#X connect 12 0 40 0;
#X connect 14 0 16 0;
#X connect 16 0 17 0;
#X connect 17 0 23 0;
#X connect 20 0 11 1;
#X connect 21 0 17 1;
#X connect 22 0 1 0;
#X connect 22 0 1 1;
#X connect 23 0 1 0;
#X connect 23 0 1 1;
#X connect 26 0 28 0;
#X connect 27 0 29 0;
#X connect 29 0 26 0;
#X connect 31 0 2 0;
#X connect 40 0 3 0;
