#N canvas 36 23 1039 583 10;
#X obj 82 155 adc~ 3 4;
#X text 218 154 << Use first two analog ins;
#X obj 147 260 *~ 0.5;
#X obj 147 282 +~ 0.5;
#X text 435 42 ............................;
#X text 435 52 . ____ ._____ _ .......___ .;
#X text 435 62 .| __ )| ____| |....../ _ |.;
#X text 435 82 .| |_) | |___| |___ / ___ |.;
#X text 435 92 .|____/|_____|_____/_/..._|.io;
#X text 435 102 ............................;
#X text 435 72 .| __ || __|.| |...../ _| |.;
#X obj 147 210 osc~ 1;
#X text 218 265 << Rescale output to range 0-1;
#X obj 82 347 *~;
#X obj 70 520 dac~ 1 2 3;
#X text 213 401 << Output to first analog out for LED;
#X text 213 381 << Output oscillator modulated by LFO to audio output
;
#X text 213 349 << Modulate oscillator with LFO;
#X text 44 51 Basic Tremolo;
#X text 44 61 =============;
#X obj 82 235 osc~;
#X text 218 209 << Analog In 1 controls LFO frequency;
#X text 217 231 << Analog In 0 controls oscillator frequency;
#X text 213 426 << Use the scope to visualise;
#X obj 144 426 dac~ 27 28;
#X text 641 313 the effect of AM in the frequency domain.;
#X text 641 287 and send the LFO to it.;
#X text 641 261 adjust the trigger settings to stabilize the signal.
;
#X text 641 249 Task1: use Bela scope to visualize the signals \,;
#X text 641 275 Task2: connect the LED to analog output 0 [dac~ 3]
;
#X text 641 301 Task3: use the scope's FFT setting to visualize;
#X obj 82 194 *~ 1000;
#X obj 147 189 *~ 100;
#X obj 75 409 *~ 0.5;
#X connect 0 0 31 0;
#X connect 0 1 32 0;
#X connect 2 0 3 0;
#X connect 3 0 13 1;
#X connect 3 0 24 0;
#X connect 3 0 14 2;
#X connect 11 0 2 0;
#X connect 13 0 24 1;
#X connect 13 0 33 0;
#X connect 20 0 13 0;
#X connect 31 0 20 0;
#X connect 32 0 11 0;
#X connect 33 0 14 0;
#X connect 33 0 14 1;
