#N canvas 71 0 1208 774 10;
#X obj 254 194 inlet~;
#X obj 87 419 *~;
#X obj 181 421 *~;
#X obj 273 421 *~;
#X obj 366 420 *~;
#X obj 454 419 *~;
#X obj 551 417 *~;
#X obj 648 420 *~;
#X obj 749 418 *~;
#X obj 857 417 *~;
#X obj 220 470 sig~;
#X obj 316 471 sig~;
#X obj 403 467 sig~;
#X obj 495 465 sig~;
#X obj 586 458 sig~;
#X obj 687 454 sig~;
#X obj 789 454 sig~;
#X obj 893 453 sig~;
#X obj 51 742 *~;
#X obj 403 668 sig~ 1;
#X obj 425 726 /~;
#X obj 478 682 +~ 1;
#X obj 58 811 outlet~;
#X obj 104 311 osc~;
#X obj 254 333 osc~;
#X obj 324 333 osc~;
#X obj 374 333 osc~;
#X obj 434 333 osc~;
#X obj 484 333 osc~;
#X obj 544 333 osc~;
#X obj 604 333 osc~;
#X obj 664 333 osc~;
#X obj 105 374 r P1Vol-\$1;
#X obj 199 376 r P2Vol-\$1;
#X obj 291 376 r P3Vol-\$1;
#X obj 384 375 r P4Vol-\$1;
#X obj 472 374 r P5Vol-\$1;
#X obj 569 372 r P6Vol-\$1;
#X obj 666 375 r P7Vol-\$1;
#X obj 767 373 r P8Vol-\$1;
#X obj 875 372 r P9Vol-\$1;
#X floatatom 130 413 5 0 0 0 - - -, f 5;
#X obj 599 154 inlet;
#X obj 298 280 *~ 2;
#X obj 339 279 *~ 3;
#X obj 381 278 *~ 4;
#X obj 425 279 *~ 5;
#X obj 464 277 *~ 6;
#X obj 507 278 *~ 7;
#X obj 544 277 *~ 8;
#X obj 583 277 *~ 9;
#X obj 584 178 unpack f f f f f f f f;
#X connect 0 0 23 0;
#X connect 0 0 43 0;
#X connect 0 0 44 0;
#X connect 0 0 45 0;
#X connect 0 0 46 0;
#X connect 0 0 47 0;
#X connect 0 0 48 0;
#X connect 0 0 49 0;
#X connect 0 0 50 0;
#X connect 1 0 18 0;
#X connect 2 0 18 0;
#X connect 3 0 18 0;
#X connect 4 0 18 0;
#X connect 5 0 18 0;
#X connect 6 0 18 0;
#X connect 7 0 18 0;
#X connect 8 0 18 0;
#X connect 9 0 18 0;
#X connect 10 0 21 0;
#X connect 11 0 21 0;
#X connect 12 0 21 0;
#X connect 13 0 21 0;
#X connect 14 0 21 0;
#X connect 15 0 21 0;
#X connect 16 0 21 0;
#X connect 17 0 21 0;
#X connect 18 0 22 0;
#X connect 19 0 20 0;
#X connect 20 0 18 1;
#X connect 21 0 20 1;
#X connect 23 0 1 0;
#X connect 24 0 2 0;
#X connect 25 0 3 0;
#X connect 26 0 4 0;
#X connect 27 0 5 0;
#X connect 28 0 6 0;
#X connect 29 0 7 0;
#X connect 30 0 8 0;
#X connect 31 0 9 0;
#X connect 32 0 1 1;
#X connect 32 0 41 0;
#X connect 33 0 2 1;
#X connect 33 0 10 0;
#X connect 34 0 3 1;
#X connect 34 0 11 0;
#X connect 35 0 4 1;
#X connect 35 0 12 0;
#X connect 36 0 5 1;
#X connect 36 0 13 0;
#X connect 37 0 6 1;
#X connect 37 0 14 0;
#X connect 38 0 7 1;
#X connect 38 0 15 0;
#X connect 39 0 8 1;
#X connect 39 0 16 0;
#X connect 40 0 9 1;
#X connect 40 0 17 0;
#X connect 42 0 51 0;
#X connect 43 0 24 0;
#X connect 44 0 25 0;
#X connect 45 0 26 0;
#X connect 46 0 27 0;
#X connect 47 0 28 0;
#X connect 48 0 29 0;
#X connect 49 0 30 0;
#X connect 50 0 31 0;
#X connect 51 0 43 1;
#X connect 51 1 44 1;
#X connect 51 2 45 1;
#X connect 51 3 46 1;
#X connect 51 4 47 1;
#X connect 51 5 48 1;
#X connect 51 6 49 1;
#X connect 51 7 50 1;
