#N canvas 0 22 705 689 10;
#X obj 60 552 *~ 0.2;
#X obj 60 573 dac~ 1 2;
#X obj 58 430 +~;
#X obj 107 316 lop~ 10;
#X obj 247 355 adc~ 3;
#X obj 247 376 lop~ 10;
#X obj 108 402 *~;
#X obj 107 346 *~ 200;
#X obj 55 182 adc~ 1;
#X text 41 159 to scope channel 1;
#X text 41 148 Monitor left audio input;
#X obj 73 213 dac~ 27;
#X obj 107 295 adc~ 4;
#X text 194 272 delay effect;
#X text 194 291 controls for delay time and feedback;
#X text 445 15 ............................;
#X text 445 25 . ____ ._____ _ .......___ .;
#X text 445 35 .| __ )| ____| |....../ _ |.;
#X text 445 55 .| |_) | |___| |___ / ___ |.;
#X text 445 65 .|____/|_____|_____/_/..._|.io;
#X text 445 75 ............................;
#X text 445 45 .| __ || __|.| |...../ _| |.;
#X text 33 55 This patch tests if you have audio coming into Bela;
#X text 33 69 and applied a delay effect that is control with the;
#X text 33 83 first two analog inputs.;
#X obj 107 368 delread4~ mydelay;
#X obj 88 471 delwrite~ mydelay 1000;
#X text 33 22 Delay Effect;
#X text 33 32 ============;
#X connect 0 0 1 0;
#X connect 0 0 1 1;
#X connect 2 0 0 0;
#X connect 2 0 26 0;
#X connect 3 0 7 0;
#X connect 4 0 5 0;
#X connect 5 0 6 1;
#X connect 6 0 2 1;
#X connect 7 0 25 0;
#X connect 8 0 11 0;
#X connect 8 0 2 0;
#X connect 12 0 3 0;
#X connect 25 0 6 0;
