#N canvas 791 417 553 394 10;
#X text 17 358 @krighxz / @rjack0101 / 11|2015;
#X obj 14 157 tv-source;
#X obj 14 87 accelerometer-integration;
#X obj 88 157 vangex-source;
#X obj 186 157 drone;
#X obj 14 228 output;
#X text 10 17 BELA LIGHTSABER (v0.2);
#X text 10 27 ======================;
#X text 11 59 input;
#X text 11 69 -----;
#X text 11 129 sources;
#X text 11 139 -------;
#X text 11 199 resonator and output;
#X text 11 209 --------------------;
#X text 11 269 led;
#X text 11 279 ---;
#X obj 236 157 sheath;
#X obj 14 298 led;
#X text 359 113 ::::::::::.--.::::::::::::;
#X text 359 123 ::|`--._ \, '.::.`._.--'/::::;
#X text 359 133 ::::.__` __::__ '__.::::::;
#X text 359 143 ::::::-:.`'..`'.:-::::::::;
#X text 359 153 ::::::::| `--' /::::::::::;
#X text 359 163 ::::::::::::::::::::::::::;
#X text 359 103 ::::::::::::::::::::::::::;
#X text 355 32 ............................;
#X text 355 42 . ____ ._____ _ .......___ .;
#X text 355 52 .| __ )| ____| |....../ _ |.;
#X text 355 72 .| |_) | |___| |___ / ___ |.;
#X text 355 82 .|____/|_____|_____/_/..._|.io;
#X text 355 92 ............................;
#X text 355 62 .| __ || __|.| |...../ _| |.;
