#N canvas 791 417 306 330 10;
#X text 17 268 @krighxz / @rjack0101 / 11|2015;
#X obj 14 157 tv-source;
#X obj 14 87 accelerometer-integration;
#X obj 88 157 vangex-source;
#X obj 236 157 sheath;
#X obj 186 157 drone;
#X obj 14 215 output;
#X text 10 17 BELA LIGHTSABER (v0.2);
#X text 10 27 ======================;
#X text 11 59 input;
#X text 11 69 -----;
#X text 11 129 sources;
#X text 11 139 -------;
#X text 11 189 resonator and output;
#X text 11 199 --------------------;
