#N canvas 0 22 611 436 10;
#X obj 133 166 hv_gte~;
#X obj 133 298 hip~ 5;
#X obj 133 254 hip~ 1;
#X obj 133 188 *~ 2;
#X obj 133 210 -~ 1;
#X obj 133 232 rzero~ 1;
#X obj 133 144 phasor~ 40;
#X obj 200 144 +~ 0.1;
#X obj 200 100 osc~ 0.25;
#X obj 279 122 *~ 0.1;
#X obj 200 122 *~ 0.01;
#X text 211 169 <<< width-adjustable square wave;
#X text 251 144 <<< oscillator and orientation modulate pulse width
;
#X text 213 232 <<< pulse train (variable distance between +/-);
#X text 317 245 = phasing effect;
#X obj 133 276 lop~ 1250;
#X obj 133 342 *~;
#X obj 192 320 osc~ 80;
#X text 244 321 <<< modulate by 80hz sine wave for more shape;
#X obj 47 255 *~ 2;
#X obj 47 277 -~ 1;
#X obj 46 298 lop~ 50;
#X obj 47 233 phasor~ 80;
#X obj 133 320 *~ 0.04;
#X obj 279 100 r~ z-axis;
#X text 53 37 drone / idle sound;
#X text 53 47 ------------------;
#X obj 133 364 s~ drone;
#X connect 0 0 3 0;
#X connect 1 0 23 0;
#X connect 2 0 15 0;
#X connect 3 0 4 0;
#X connect 4 0 5 0;
#X connect 5 0 2 0;
#X connect 6 0 0 0;
#X connect 7 0 0 1;
#X connect 8 0 10 0;
#X connect 9 0 7 0;
#X connect 10 0 7 0;
#X connect 15 0 1 0;
#X connect 16 0 27 0;
#X connect 17 0 16 1;
#X connect 19 0 20 0;
#X connect 20 0 21 0;
#X connect 21 0 23 0;
#X connect 22 0 19 0;
#X connect 23 0 16 0;
#X connect 24 0 9 0;
