#N canvas 652 777 450 300 10;
#X obj 41 117 r led_hit;
#X obj 153 117 r~ swingVelocity;
#X obj 41 139 t b;
#X obj 41 183 line~;
#X obj 153 161 tanh~;
#X obj 41 236 dac~ 3;
#X text 48 87 strike;
#X text 287 87 idle;
#X text 185 87 swing;
#X text 40 42 LED output;
#X text 40 52 ----------;
#X obj 282 183 sig~ 0.5;
#X obj 153 183 *~ 0.25;
#X msg 41 161 0.25 \, 0 500;
#X connect 0 0 2 0;
#X connect 1 0 4 0;
#X connect 2 0 13 0;
#X connect 3 0 5 0;
#X connect 4 0 12 0;
#X connect 11 0 5 0;
#X connect 12 0 5 0;
#X connect 13 0 3 0;
