#N canvas 1470 994 323 377 10;
#X obj 45 165 tanh~;
#X obj 160 81 lop~ 1000;
#X obj 160 103 *~ 0.2;
#X obj 45 143 *~ 0.4;
#X obj 45 225 tube;
#X obj 160 59 r~ tv-source;
#X obj 45 59 r~ vangex-source;
#X obj 89 225 r~ drone;
#X obj 156 225 r~ sheath;
#X obj 156 247 *~ 0.1;
#X obj 45 310 dac~;
#X obj 45 288 *~ 10;
#X connect 0 0 4 0;
#X connect 1 0 2 0;
#X connect 2 0 3 0;
#X connect 3 0 0 0;
#X connect 4 0 11 0;
#X connect 5 0 1 0;
#X connect 6 0 3 0;
#X connect 7 0 11 0;
#X connect 8 0 9 0;
#X connect 9 0 11 0;
#X connect 11 0 10 0;
#X connect 11 0 10 1;
