#N canvas 0 22 524 399 10;
#X obj 100 200 vd~ \$0-d1;
#X obj 100 301 delwrite~ \$0-d1 100;
#X obj 173 200 +~ 0.6;
#X obj 173 155 tanh~;
#X obj 100 223 *~;
#X obj 100 177 *~;
#X obj 115 111 tanh~;
#X obj 115 133 *~ 0.01;
#X obj 115 155 +~ 0.99;
#X obj 173 178 *~ 0.2;
#X obj 100 65 *~ 4;
#X obj 100 245 lop~ 1000;
#X obj 100 44 sig~ 6.25;
#X text 204 46 160Hz -- tube resonant frequency;
#X text 314 132 velocity modulates feedback;
#X obj 49 266 inlet~;
#X obj 49 245 outlet~;
#X obj 115 89 r~ swingVelocity;
#X obj 173 133 r~ swingVelocity;
#X text 264 88 velocity modulates delay line (doppler);
#X connect 0 0 4 0;
#X connect 2 0 4 1;
#X connect 3 0 9 0;
#X connect 4 0 11 0;
#X connect 4 0 16 0;
#X connect 5 0 0 0;
#X connect 6 0 7 0;
#X connect 7 0 8 0;
#X connect 8 0 5 1;
#X connect 9 0 2 0;
#X connect 10 0 5 0;
#X connect 11 0 1 0;
#X connect 12 0 10 0;
#X connect 15 0 1 0;
#X connect 17 0 6 0;
#X connect 18 0 3 0;
