#N canvas 1749 470 456 633 10;
#X obj 95 271 phasor~ 5;
#X obj 95 347 rpole~ 1;
#X obj 179 304 sig~ 0.1;
#X obj 95 552 delwrite~ \$0-vang 1000;
#X obj 252 356 vd~ \$0-vang;
#X obj 252 552 outlet~;
#X obj 252 400 hip~ 1;
#X obj 322 275 *~ 0.01;
#X obj 322 297 +~ 1;
#X obj 322 251 inlet~ harmonicMod;
#X obj 95 186 mtof~;
#X obj 252 216 sig~ 1000;
#X obj 252 238 /~;
#X obj 95 503 *~;
#X obj 110 481 inlet~ gain;
#X obj 95 369 *~ 0.0001;
#X obj 252 296 *~ 2;
#X obj 159 528 lop~ 4000;
#X obj 252 444 lop~ 4000;
#X obj 95 391 lop~ 1000;
#X text 33 23 Single voice for vangelis-inspired synthesiser;
#X text 33 37 Combines a pulse-width modulated squarewave;
#X text 33 51 with a delay line tuned to the same frequency;
#X text 33 64 feeding back into itself. Changing the tuning of;
#X text 33 77 the delay line results in nice trumpet-like effects;
#X text 353 590 @krighxz 2016;
#X obj 140 325 hv_gte~;
#X obj 252 422 tanh~;
#X obj 95 119 inlet~ midinote;
#X obj 252 274 lop~ 10;
#X obj 252 378 *~ 0.85;
#X obj 252 327 *~;
#X connect 0 0 1 0;
#X connect 0 0 26 0;
#X connect 1 0 15 0;
#X connect 2 0 26 1;
#X connect 4 0 30 0;
#X connect 6 0 27 0;
#X connect 7 0 8 0;
#X connect 8 0 31 1;
#X connect 9 0 7 0;
#X connect 10 0 0 0;
#X connect 10 0 12 1;
#X connect 11 0 12 0;
#X connect 12 0 29 0;
#X connect 13 0 3 0;
#X connect 14 0 13 1;
#X connect 15 0 19 0;
#X connect 16 0 31 0;
#X connect 17 0 3 0;
#X connect 18 0 5 0;
#X connect 19 0 13 0;
#X connect 26 0 1 1;
#X connect 27 0 18 0;
#X connect 28 0 10 0;
#X connect 29 0 16 0;
#X connect 30 0 6 0;
#X connect 30 0 17 0;
#X connect 31 0 4 0;
