#N canvas 270 0 1003 778 10;
#X obj 35 351 list;
#X obj 35 311 metro 200;
#X obj 35 285 loadbang;
#X text 105 311 Throttle printing;
#X obj 243 287 unpack f f f f f f f f f f f f f f f f f f f f f f f
f f f;
#X obj 257 549 playAudioFile~;
#X obj 253 472 change;
#X obj 253 507 route 1 0;
#X obj 548 702 dac~ 1 2;
#X obj 253 447 > 0.5;
#X obj 334 481 loadbang;
#X obj 457 549 playAudioFile~;
#X obj 453 472 change;
#X obj 453 507 route 1 0;
#X obj 453 447 > 0.5;
#X obj 534 481 loadbang;
#X msg 335 507 one.wav;
#X msg 535 507 two.wav;
#X obj 637 549 playAudioFile~;
#X obj 633 472 change;
#X obj 633 507 route 1 0;
#X obj 633 447 > 0.5;
#X obj 714 481 loadbang;
#X msg 715 507 three.wav;
#X obj 817 549 playAudioFile~;
#X obj 813 472 change;
#X obj 813 507 route 1 0;
#X obj 813 447 > 0.5;
#X obj 894 481 loadbang;
#X msg 895 507 four.wav;
#X obj 36 391 print touchSensor;
#X obj 35 48 loadbang;
#X obj 243 211 r bela_trill;
#X obj 35 167 s bela_setTrill;
#X text 189 49 First initialise the Trill sensor;
#X text 356 211 This receives the reading from the Trill sensor.;
#X text 567 314 and then the individual channels if in diff mode;
#X text 567 335 In this example we use the first 4 channels to;
#X text 360 247 Which will be prepended with the sensor_id;
#X text 517 128 [prescaler <sensor_id> <value> (between 1 and 8);
#X text 516 149 [threshold <sensor_id> <value>(between 0 and 1.0);
#X text 567 355 trigger sample playback and print all on the console.
;
#X obj 243 248 route mycraft;
#X text 20 613 device that was successfully initialised. The message
;
#X text 20 623 will contain: <sensor_id> <device> <mode> <address>
;
#X text 19 602 bela_trillCreated will receive a message for each;
#X obj 24 655 r bela_trillCreated;
#X obj 24 684 print bela_trillCreated;
#X text 84 16 >>> See full documentation in examples/Trill/general-pd
<<<;
#X text 516 108 We are also changing settings on initialisation:;
#X msg 35 128 new mycraft 1 CRAFT \, prescaler mycraft 2 \, threshold
mycraft 0.01;
#X text 159 82 Message: [new <sensor_id> <bus> <device> <address=255>(
;
#X connect 0 0 30 0;
#X connect 1 0 0 0;
#X connect 2 0 1 0;
#X connect 4 0 9 0;
#X connect 4 1 14 0;
#X connect 4 2 21 0;
#X connect 4 3 27 0;
#X connect 5 0 8 0;
#X connect 5 0 8 1;
#X connect 6 0 7 0;
#X connect 7 0 5 0;
#X connect 7 1 5 1;
#X connect 9 0 6 0;
#X connect 10 0 16 0;
#X connect 11 0 8 0;
#X connect 11 0 8 1;
#X connect 12 0 13 0;
#X connect 13 0 11 0;
#X connect 13 1 11 1;
#X connect 14 0 12 0;
#X connect 15 0 17 0;
#X connect 16 0 5 3;
#X connect 17 0 11 3;
#X connect 18 0 8 0;
#X connect 18 0 8 1;
#X connect 19 0 20 0;
#X connect 20 0 18 0;
#X connect 20 1 18 1;
#X connect 21 0 19 0;
#X connect 22 0 23 0;
#X connect 23 0 18 3;
#X connect 24 0 8 0;
#X connect 24 0 8 1;
#X connect 25 0 26 0;
#X connect 26 0 24 0;
#X connect 26 1 24 1;
#X connect 27 0 25 0;
#X connect 28 0 29 0;
#X connect 29 0 24 3;
#X connect 31 0 50 0;
#X connect 32 0 42 0;
#X connect 42 0 4 0;
#X connect 42 0 0 1;
#X connect 46 0 47 0;
#X connect 50 0 33 0;
