#N canvas 0 22 824 384 10;
#X obj 52 189 pow;
#X msg 52 161 2 \$1;
#X obj 52 134 *;
#X msg 52 106 1 \$1;
#X obj 102 199 pow;
#X msg 102 171 2 \$1;
#X obj 102 144 *;
#X obj 152 209 pow;
#X msg 152 181 2 \$1;
#X obj 152 154 *;
#X msg 102 116 1.585 \$1;
#X msg 152 126 2 \$1;
#X obj 222 209 pow;
#X msg 222 181 2 \$1;
#X obj 222 154 *;
#X msg 222 126 2.3219 \$1;
#X obj 302 209 pow;
#X msg 302 181 2 \$1;
#X obj 302 154 *;
#X msg 302 126 2.585 \$1;
#X obj 382 209 pow;
#X msg 382 181 2 \$1;
#X obj 382 154 *;
#X obj 435 229 pow;
#X msg 435 204 2 \$1;
#X obj 435 177 *;
#X obj 495 232 pow;
#X msg 495 204 2 \$1;
#X obj 495 177 *;
#X msg 495 149 3.1699 \$1;
#X msg 382 125 2.8074 \$1;
#X msg 435 149 3 \$1;
#X obj 189 26 bang~;
#X obj 93 70 t a a;
#X obj 91 13 inlet~;
#X obj 87 43 snapshot~;
#X obj 291 270 pack f f f f f f f f;
#X obj 293 304 outlet;
#X text 255 38 a harmonic series \, for an input of 2 gives 1 \, 4
\, 9 \, 16 \, 25 \, 36 \, 49 \, 64 \, 81;
#X text 255 18 For an input of 0 gives 1 1 1 1 1 1 1 1 1 (unison);
#X text 255 28 For an input of 1 gives 1 2 3 4 5 6 7 8 9 (harmonic
series);
#X text 255 60 Any in-between value is going to be inharmonic;
#X connect 0 0 36 0;
#X connect 1 0 0 0;
#X connect 2 0 1 0;
#X connect 3 0 2 0;
#X connect 4 0 36 1;
#X connect 5 0 4 0;
#X connect 6 0 5 0;
#X connect 7 0 36 2;
#X connect 8 0 7 0;
#X connect 9 0 8 0;
#X connect 10 0 6 0;
#X connect 11 0 9 0;
#X connect 12 0 36 3;
#X connect 13 0 12 0;
#X connect 14 0 13 0;
#X connect 15 0 14 0;
#X connect 16 0 36 4;
#X connect 17 0 16 0;
#X connect 18 0 17 0;
#X connect 19 0 18 0;
#X connect 20 0 36 5;
#X connect 21 0 20 0;
#X connect 22 0 21 0;
#X connect 23 0 36 6;
#X connect 24 0 23 0;
#X connect 25 0 24 0;
#X connect 26 0 36 7;
#X connect 27 0 26 0;
#X connect 28 0 27 0;
#X connect 29 0 28 0;
#X connect 30 0 22 0;
#X connect 31 0 25 0;
#X connect 32 0 35 0;
#X connect 33 0 3 0;
#X connect 33 1 10 0;
#X connect 33 1 11 0;
#X connect 33 1 15 0;
#X connect 33 1 19 0;
#X connect 33 1 30 0;
#X connect 33 1 31 0;
#X connect 33 1 29 0;
#X connect 34 0 35 0;
#X connect 35 0 33 0;
#X connect 36 0 37 0;
