#N canvas 0 22 1280 722 10;
#X obj 249 336 pack 0 0;
#X obj 251 279 ctlin;
#X obj 166 466 route 14 15 16 17 18 19 20 21 22;
#X obj 304 311 / 127;
#X obj 823 461 route 2 3 4 5 6 8 9 12 13;
#X obj 555 303 loadbang;
#X text 309 283 partial values from midi;
#X msg 554 332 0.99 0.89 0.79 0.69 0.59 0.49 0.39 0.29 0.19;
#X obj 511 471 unpack 0 0 0 0 0 0 0 0 0;
#X obj 1113 457 unpack 0 0 0 0 0 0 0 0 0;
#X msg 1067 337 0.99 0.19 0.79 0.29 0.59 0.39 0.49 0.69 0.89;
#X obj 157 567 s P1Vol-1;
#X obj 222 566 s P2Vol-1;
#X obj 288 566 s P3Vol-1;
#X obj 359 565 s P4Vol-1;
#X obj 429 564 s P5Vol-1;
#X obj 502 565 s P6Vol-1;
#X obj 575 566 s P7Vol-1;
#X obj 646 565 s P8Vol-1;
#X obj 714 564 s P9Vol-1;
#X obj 807 561 s P1Vol-2;
#X obj 876 563 s P2Vol-2;
#X obj 943 562 s P3Vol-2;
#X obj 1009 560 s P4Vol-2;
#X obj 1075 559 s P5Vol-2;
#X obj 1142 560 s P6Vol-2;
#X obj 1210 559 s P7Vol-2;
#X obj 1276 559 s P8Vol-2;
#X obj 1343 559 s P9Vol-2;
#X floatatom 134 442 5 0 0 0 - - -, f 5;
#X obj 495 135 s bela_setMidi;
#X msg 495 107 hw 0 0 0;
#X obj 495 80 loadbang;
#X text 476 57 Enable MIDI over USB from the host;
#X connect 0 0 2 0;
#X connect 0 0 4 0;
#X connect 1 0 3 0;
#X connect 1 1 0 0;
#X connect 2 0 11 0;
#X connect 2 1 12 0;
#X connect 2 2 13 0;
#X connect 2 3 14 0;
#X connect 2 4 15 0;
#X connect 2 5 16 0;
#X connect 2 6 17 0;
#X connect 2 7 18 0;
#X connect 2 8 19 0;
#X connect 3 0 0 1;
#X connect 4 0 20 0;
#X connect 4 1 21 0;
#X connect 4 2 22 0;
#X connect 4 3 23 0;
#X connect 4 4 24 0;
#X connect 4 5 25 0;
#X connect 4 6 26 0;
#X connect 4 7 27 0;
#X connect 4 8 28 0;
#X connect 5 0 7 0;
#X connect 5 0 10 0;
#X connect 7 0 8 0;
#X connect 8 0 11 0;
#X connect 8 1 12 0;
#X connect 8 2 13 0;
#X connect 8 3 14 0;
#X connect 8 4 15 0;
#X connect 8 5 16 0;
#X connect 8 6 17 0;
#X connect 8 7 18 0;
#X connect 8 8 19 0;
#X connect 9 0 20 0;
#X connect 9 1 21 0;
#X connect 9 2 22 0;
#X connect 9 3 23 0;
#X connect 9 4 24 0;
#X connect 9 5 25 0;
#X connect 9 6 26 0;
#X connect 9 7 27 0;
#X connect 9 8 28 0;
#X connect 10 0 9 0;
#X connect 29 0 11 0;
#X connect 31 0 30 0;
#X connect 32 0 31 0;
