#N canvas 0 23 560 460 10;
#X obj 99 119 debounce;
#X obj 99 143 select 1;
#X obj 100 177 tgl 15 0 empty empty empty 17 7 0 10 -262144 -1 -1 1
1;
#X obj 213 64 loadbang;
#X obj 99 94 bela_trigIn \$1;
#X obj 181 120 \$2;
#X obj 191 199 select 1;
#X obj 193 171 != 0;
#X obj 100 239 * 1;
#X obj 101 269 bela_led \$1;
#X obj 46 238 outlet;
#X text 191 33 Arguments: \$1: bela trigIn / LED \,;
#X text 268 43 \$2: initial value;
#X text 268 53 \$3: LED color (1 or 2);
#X obj 196 144 \$3;
#X obj 155 221 \$3;
#X msg 289 107 1;
#X obj 215 98 t b b;
#X connect 0 0 1 0;
#X connect 1 0 2 0;
#X connect 2 0 8 0;
#X connect 2 0 10 0;
#X connect 3 0 17 0;
#X connect 4 0 0 0;
#X connect 5 0 2 0;
#X connect 6 0 15 0;
#X connect 7 0 6 0;
#X connect 8 0 9 0;
#X connect 14 0 7 0;
#X connect 15 0 8 1;
#X connect 16 0 14 0;
#X connect 17 0 5 0;
#X connect 17 1 14 0;
