#N canvas 0 23 965 532 12;
#X obj 46 247 r distance;
#X obj 46 280 print;
#X text 505 32 ............................;
#X text 505 42 . ____ ._____ _ .......___ .;
#X text 505 52 .| __ )| ____| |....../ _ |.;
#X text 505 72 .| |_) | |___| |___ / ___ |.;
#X text 505 82 .|____/|_____|_____/_/..._|.io;
#X text 505 92 ............................;
#X text 505 62 .| __ || __|.| |...../ _| |.;
#X text 44 41 Ultrasonic Distance Sensor;
#X text 44 51 ==========================;
#X text 44 71 This example shows how to use an HC-SR04 ultrasonic;
#X text 44 121 https://learn.bela.io/tutorials/pure-data/sensors/distance-sensor/
;
#X text 44 91 distance sensor but with a custom render file in cpp.
;
#X text 505 207 It is important that the 5V ECHO output from the module
is;
#X text 505 227 not connected straight to Bela's digital inputs.;
#X text 505 247 You will need to use a passive resistor divider from
the;
#X text 505 267 HC-SR04's ECHO output to scale the output voltage down
to 3.3V.;
#X text 505 187 This module requires a 5V power supply.;
#X text 45 174 All the sensor communication is done in render.cpp using
;
#X text 45 194 digital channels 0 (TRIG) and 1 (ECHO). The resulting
;
#X text 45 214 distance measurement (in cm) is sent to the Pd patch
below;
#X connect 0 0 1 0;
